<?xml version="1.0" standalone="no"?>
<!DOCTYPE svg PUBLIC "-//W3C//DTD SVG 20010904//EN"
 "http://www.w3.org/TR/2001/REC-SVG-20010904/DTD/svg10.dtd">
<svg version="1.0" xmlns="http://www.w3.org/2000/svg"
 width="3000.000000pt" height="3000.000000pt" viewBox="0 0 3000.000000 3000.000000"
 preserveAspectRatio="xMidYMid meet">

<g transform="translate(0.000000,3000.000000) scale(0.100000,-0.100000)"
fill="#000000" stroke="none">
<path d="M14790 22440 c0 -980 2 -1110 15 -1110 13 0 15 -101 15 -845 0 -832
0 -845 -20 -865 -19 -19 -33 -20 -275 -20 l-255 0 0 1245 c0 1100 -2 1245 -15
1245 -10 0 -15 10 -15 30 0 20 -5 30 -15 30 -8 0 -15 7 -15 15 0 8 -7 15 -15
15 -8 0 -15 7 -15 15 0 8 -7 15 -15 15 -8 0 -15 7 -15 15 0 8 -7 15 -15 15 -8
0 -15 7 -15 15 0 8 -7 15 -15 15 -9 0 -15 9 -15 25 0 16 6 25 15 25 10 0 15
10 15 30 0 20 5 30 15 30 11 0 15 12 15 45 0 33 4 45 15 45 13 0 15 23 15 145
0 122 -2 145 -15 145 -11 0 -15 12 -15 45 0 33 -4 45 -15 45 -10 0 -15 10 -15
30 0 20 -5 30 -15 30 -10 0 -15 10 -15 30 0 20 -5 30 -15 30 -8 0 -15 7 -15
15 0 8 -7 15 -15 15 -8 0 -15 7 -15 15 0 8 -7 15 -15 15 -8 0 -15 7 -15 15 0
8 -7 15 -15 15 -8 0 -15 5 -15 11 0 21 -58 69 -84 69 -16 0 -26 6 -26 15 0 11
-12 15 -45 15 -33 0 -45 4 -45 15 0 12 -13 15 -60 15 -47 0 -60 3 -60 15 0 11
-13 15 -54 15 -39 0 -55 -4 -60 -15 -4 -11 -22 -15 -76 -15 -56 0 -70 -3 -70
-15 0 -10 -10 -15 -30 -15 -20 0 -30 -5 -30 -15 0 -10 -10 -15 -30 -15 -16 0
-30 -4 -30 -10 0 -5 -10 -10 -21 -10 -22 0 -119 -89 -119 -109 0 -6 -7 -11
-15 -11 -10 0 -15 -10 -15 -30 0 -20 -5 -30 -15 -30 -8 0 -15 -7 -15 -15 0 -8
-7 -15 -15 -15 -11 0 -15 -12 -15 -45 0 -33 -4 -45 -15 -45 -11 0 -15 -11 -15
-40 0 -27 -5 -43 -15 -46 -12 -5 -15 -26 -15 -105 0 -81 3 -99 15 -99 12 0 15
-13 15 -60 0 -47 3 -60 15 -60 10 0 15 -10 15 -30 0 -20 5 -30 15 -30 10 0 15
-10 15 -30 0 -16 5 -30 11 -30 14 0 69 -55 69 -69 0 -6 7 -11 15 -11 8 0 15
-7 15 -15 0 -8 7 -15 15 -15 8 0 15 -7 15 -15 0 -8 7 -15 15 -15 8 0 15 -7 15
-15 0 -8 7 -15 15 -15 8 0 15 -7 15 -15 0 -10 10 -15 30 -15 20 0 30 -5 30
-15 0 -11 12 -15 45 -15 33 0 45 -4 45 -15 0 -13 24 -15 160 -15 136 0 160 2
160 15 0 12 13 15 60 15 47 0 60 -3 60 -15 0 -8 7 -15 15 -15 10 0 15 -10 15
-30 0 -20 5 -30 15 -30 13 0 15 -138 15 -1185 l0 -1185 -280 0 -280 0 0 675
c0 593 -2 675 -15 675 -8 0 -15 7 -15 15 0 8 -7 15 -15 15 -8 0 -15 7 -15 15
0 8 -7 15 -15 15 -8 0 -15 7 -15 15 0 8 -5 15 -11 15 -14 0 -159 145 -159 159
0 6 -7 11 -15 11 -8 0 -15 7 -15 15 0 8 -7 15 -15 15 -8 0 -15 7 -15 15 0 8
-7 15 -15 15 -10 0 -15 10 -15 30 0 20 -5 30 -15 30 -8 0 -15 7 -15 15 0 10
-10 15 -30 15 -27 0 -30 3 -30 30 0 20 -5 30 -15 30 -8 0 -15 7 -15 15 0 9
-10 15 -26 15 -19 0 -46 20 -100 74 -41 41 -74 79 -74 85 0 6 -7 11 -15 11 -8
0 -15 7 -15 15 0 8 -7 15 -15 15 -8 0 -15 7 -15 15 0 8 -7 15 -15 15 -8 0 -15
7 -15 15 0 8 -7 15 -15 15 -8 0 -15 7 -15 15 0 8 -7 15 -15 15 -8 0 -15 7 -15
15 0 8 -7 15 -15 15 -8 0 -15 7 -15 15 0 8 -7 15 -15 15 -8 0 -15 7 -15 15 0
8 -7 15 -15 15 -8 0 -15 7 -15 15 0 8 -5 15 -11 15 -14 0 -159 145 -159 159 0
6 -7 11 -15 11 -8 0 -15 7 -15 15 0 8 -7 15 -15 15 -8 0 -15 7 -15 15 0 8 -7
15 -15 15 -8 0 -15 7 -15 15 0 8 -7 15 -15 15 -8 0 -15 7 -15 15 0 8 -7 15
-15 15 -8 0 -15 7 -15 15 0 8 -7 15 -15 15 -8 0 -15 7 -15 15 0 8 -7 15 -15
15 -8 0 -15 7 -15 15 0 8 -7 15 -15 15 -8 0 -15 7 -15 15 0 8 -5 15 -11 15
-14 0 -159 145 -159 159 0 6 -7 11 -15 11 -8 0 -15 7 -15 15 0 8 -7 15 -15 15
-8 0 -15 7 -15 15 0 8 -7 15 -15 15 -8 0 -15 7 -15 15 0 10 -10 15 -30 15 -20
0 -30 5 -30 15 0 8 -7 15 -15 15 -10 0 -15 10 -15 30 0 20 5 30 15 30 11 0 15
12 15 45 0 33 4 45 15 45 11 0 15 11 15 40 0 29 4 40 15 40 13 0 15 20 15 120
0 100 -2 120 -15 120 -12 0 -15 13 -15 55 0 42 -3 55 -15 55 -10 0 -15 10 -15
30 0 20 -5 30 -15 30 -10 0 -15 10 -15 30 0 20 -5 30 -15 30 -8 0 -15 7 -15
15 0 8 -7 15 -15 15 -8 0 -15 7 -15 15 0 8 -7 15 -15 15 -8 0 -15 7 -15 15 0
8 -7 15 -15 15 -8 0 -15 7 -15 15 0 8 -7 15 -15 15 -8 0 -15 7 -15 15 0 10
-10 15 -30 15 -16 0 -30 4 -30 10 0 25 -36 50 -71 50 -24 0 -39 5 -43 15 -4
11 -22 15 -76 15 -56 0 -70 3 -70 15 0 11 -11 15 -40 15 -27 0 -43 -5 -46 -15
-5 -11 -23 -15 -75 -15 -55 0 -69 -3 -69 -15 0 -10 -10 -15 -30 -15 -20 0 -30
-5 -30 -15 0 -10 -10 -15 -30 -15 -20 0 -30 -5 -30 -15 0 -8 -7 -15 -15 -15
-8 0 -15 -7 -15 -15 0 -10 -10 -15 -30 -15 -20 0 -30 -5 -30 -15 0 -8 -7 -15
-15 -15 -8 0 -15 -7 -15 -15 0 -8 -7 -15 -15 -15 -10 0 -15 -10 -15 -30 0 -20
-5 -30 -15 -30 -8 0 -15 -7 -15 -15 0 -8 -7 -15 -15 -15 -10 0 -15 -10 -15
-30 0 -20 -5 -30 -15 -30 -11 0 -15 -11 -15 -40 0 -22 -4 -40 -10 -40 -6 0
-10 -67 -10 -180 0 -113 4 -180 10 -180 6 0 10 -18 10 -40 0 -29 4 -40 15 -40
8 0 15 -7 15 -15 0 -8 7 -15 15 -15 10 0 15 -10 15 -30 0 -20 5 -30 15 -30 8
0 15 -7 15 -15 0 -8 7 -15 15 -15 8 0 15 -7 15 -15 0 -8 7 -15 15 -15 8 0 15
-7 15 -15 0 -8 7 -15 15 -15 8 0 15 -7 15 -15 0 -8 7 -15 15 -15 8 0 15 -7 15
-15 0 -10 10 -15 30 -15 20 0 30 -5 30 -15 0 -10 10 -15 30 -15 20 0 30 -5 30
-15 0 -11 11 -15 39 -15 25 0 41 -5 45 -15 4 -12 30 -15 146 -15 116 0 142 3
146 15 7 18 124 22 124 4 0 -14 55 -69 69 -69 6 0 11 -7 11 -15 0 -8 7 -15 15
-15 8 0 15 -7 15 -15 0 -8 7 -15 15 -15 8 0 15 -7 15 -15 0 -8 7 -15 15 -15 8
0 15 -7 15 -15 0 -8 7 -15 15 -15 8 0 15 -7 15 -15 0 -8 7 -15 15 -15 8 0 15
-7 15 -15 0 -8 7 -15 15 -15 8 0 15 -7 15 -15 0 -8 7 -15 15 -15 8 0 15 -7 15
-15 0 -8 7 -15 15 -15 8 0 15 -7 15 -15 0 -8 7 -15 15 -15 8 0 15 -7 15 -15 0
-8 7 -15 15 -15 8 0 15 -7 15 -15 0 -8 7 -15 15 -15 8 0 15 -5 15 -11 0 -21
58 -69 84 -69 16 0 26 -6 26 -15 0 -8 7 -15 15 -15 8 0 15 -7 15 -15 0 -8 7
-15 15 -15 8 0 15 -7 15 -15 0 -8 7 -15 15 -15 8 0 15 -7 15 -15 0 -8 7 -15
15 -15 8 0 15 -7 15 -15 0 -8 7 -15 15 -15 8 0 15 -7 15 -15 0 -8 7 -15 15
-15 8 0 15 -7 15 -15 0 -8 7 -15 15 -15 8 0 15 -7 15 -15 0 -8 7 -15 15 -15 8
0 15 -7 15 -15 0 -8 7 -15 15 -15 8 0 15 -7 15 -15 0 -8 7 -15 15 -15 8 0 15
-5 15 -11 0 -14 85 -99 99 -99 6 0 11 -7 11 -15 0 -8 7 -15 15 -15 8 0 15 -7
15 -15 0 -8 7 -15 15 -15 8 0 15 -7 15 -15 0 -8 7 -15 15 -15 8 0 15 -7 15
-15 0 -8 7 -15 15 -15 8 0 15 -7 15 -15 0 -8 7 -15 15 -15 8 0 15 -7 15 -15 0
-8 7 -15 15 -15 8 0 15 -7 15 -15 0 -8 7 -15 15 -15 8 0 15 -7 15 -15 0 -8 7
-15 15 -15 8 0 15 -7 15 -15 0 -8 7 -15 15 -15 8 0 15 -7 15 -15 0 -8 7 -15
15 -15 8 0 15 -5 15 -11 0 -14 85 -99 99 -99 6 0 11 -7 11 -15 0 -8 7 -15 15
-15 8 0 15 -7 15 -15 0 -8 7 -15 15 -15 8 0 15 -7 15 -15 0 -8 7 -15 15 -15 8
0 15 -7 15 -15 0 -8 7 -15 15 -15 8 0 15 -7 15 -15 0 -8 7 -15 15 -15 8 0 15
-7 15 -15 0 -8 7 -15 15 -15 8 0 15 -7 15 -15 0 -8 7 -15 15 -15 13 0 15 -75
15 -615 l0 -615 -135 0 c-113 0 -135 -2 -135 -15 0 -11 -11 -15 -40 -15 -29 0
-40 -4 -40 -15 0 -10 -10 -15 -30 -15 -20 0 -30 -5 -30 -15 0 -8 -7 -15 -15
-15 -8 0 -15 -7 -15 -15 0 -8 -7 -15 -15 -15 -8 0 -15 -7 -15 -15 0 -8 -7 -15
-15 -15 -8 0 -15 -7 -15 -15 0 -8 -7 -15 -15 -15 -9 0 -15 -9 -15 -24 0 -13
-7 -26 -15 -30 -10 -3 -15 -19 -15 -46 0 -29 -4 -40 -15 -40 -13 0 -15 -23
-15 -150 l0 -150 -1125 0 c-993 0 -1125 2 -1125 15 0 8 -7 15 -15 15 -8 0 -15
7 -15 15 0 10 -10 15 -30 15 -20 0 -30 5 -30 15 0 8 -7 15 -15 15 -10 0 -15
10 -15 30 0 20 5 30 15 30 13 0 15 28 15 190 0 162 -2 190 -15 190 -10 0 -15
10 -15 30 0 20 -5 30 -15 30 -10 0 -15 10 -15 30 0 20 -5 30 -15 30 -10 0 -15
10 -15 30 0 20 -5 30 -15 30 -8 0 -15 7 -15 15 0 8 -7 15 -15 15 -8 0 -15 7
-15 15 0 8 -7 15 -15 15 -8 0 -15 7 -15 15 0 8 -7 15 -15 15 -8 0 -15 5 -15
10 0 6 -10 10 -23 10 -22 0 -57 31 -57 50 0 6 -20 10 -45 10 -33 0 -45 4 -45
15 0 11 -12 15 -45 15 -33 0 -45 4 -45 15 0 12 -19 15 -114 15 -92 0 -115 -3
-120 -15 -3 -10 -19 -15 -45 -15 -25 0 -41 -5 -45 -15 -3 -10 -19 -15 -46 -15
-29 0 -40 -4 -40 -15 0 -8 -7 -15 -15 -15 -8 0 -15 -7 -15 -15 0 -9 -10 -15
-26 -15 -31 0 -154 -117 -154 -148 0 -11 -7 -22 -15 -26 -8 -3 -15 -17 -15
-31 0 -14 -4 -25 -10 -25 -5 0 -10 -11 -10 -25 0 -14 -7 -28 -15 -31 -11 -5
-15 -21 -15 -60 0 -39 -4 -56 -15 -60 -22 -9 -22 -174 0 -174 11 0 15 -12 15
-45 0 -33 4 -45 15 -45 11 0 15 -11 15 -41 0 -32 6 -47 25 -65 14 -13 25 -32
25 -44 0 -11 7 -20 15 -20 8 0 15 -7 15 -15 0 -8 7 -15 15 -15 8 0 15 -7 15
-15 0 -8 7 -15 15 -15 8 0 15 -7 15 -15 0 -8 7 -15 15 -15 8 0 15 -7 15 -15 0
-8 7 -15 15 -15 8 0 15 -7 15 -15 0 -10 10 -15 30 -15 20 0 30 -5 30 -15 0
-10 10 -15 30 -15 20 0 30 -5 30 -15 0 -12 13 -15 60 -15 47 0 60 -3 60 -15 0
-12 18 -15 100 -15 82 0 100 3 100 15 0 12 13 15 60 15 47 0 60 3 60 15 0 10
10 15 30 15 20 0 30 5 30 15 0 12 13 15 55 15 42 0 55 -3 55 -15 0 -8 7 -15
15 -15 8 0 15 -7 15 -15 0 -8 7 -15 15 -15 8 0 15 -7 15 -15 0 -8 7 -15 15
-15 8 0 15 -7 15 -15 0 -8 7 -15 15 -15 8 0 15 -7 15 -15 0 -10 10 -15 30 -15
20 0 30 -5 30 -15 0 -13 138 -15 1185 -15 l1185 0 0 -260 0 -260 -1677 0
-1678 0 -23 -24 c-22 -23 -22 -30 -20 -178 l3 -153 1635 -3 c1439 -2 1635 -4
1643 -17 5 -10 24 -15 62 -15 l55 0 0 -230 c0 -198 2 -230 15 -230 8 0 15 -7
15 -15 0 -13 -195 -15 -1692 -15 l-1693 0 -22 -24 c-22 -23 -23 -32 -23 -175
l0 -151 350 0 c302 0 351 -2 356 -15 5 -13 35 -15 180 -15 148 0 174 2 174 15
0 13 32 15 230 15 196 0 231 -2 236 -15 5 -13 54 -15 355 -15 304 0 349 2 349
15 0 13 31 15 215 15 182 0 217 -2 221 -15 5 -13 56 -15 370 -15 l364 0 0
-135 c0 -113 2 -135 15 -135 12 0 15 -18 15 -100 0 -82 -3 -100 -15 -100 -10
0 -15 -10 -15 -30 l0 -30 -1185 0 c-1047 0 -1185 -2 -1185 -15 0 -8 -7 -15
-15 -15 -8 0 -15 -7 -15 -15 0 -8 -7 -15 -15 -15 -8 0 -15 -7 -15 -15 0 -8 -7
-15 -15 -15 -8 0 -15 -7 -15 -15 0 -10 -10 -15 -30 -15 -20 0 -30 -5 -30 -15
0 -8 -7 -15 -15 -15 -8 0 -15 -7 -15 -15 0 -8 -7 -15 -15 -15 -8 0 -15 -7 -15
-15 0 -9 -9 -15 -25 -15 -16 0 -25 6 -25 15 0 10 -10 15 -30 15 -20 0 -30 5
-30 15 0 10 -10 15 -30 15 -20 0 -30 5 -30 15 0 13 -26 15 -175 15 -149 0
-175 -2 -175 -15 0 -11 -12 -15 -45 -15 -33 0 -45 -4 -45 -15 0 -8 -7 -15 -15
-15 -8 0 -15 -7 -15 -15 0 -10 -10 -15 -30 -15 -20 0 -30 -5 -30 -15 0 -8 -7
-15 -15 -15 -8 0 -15 -7 -15 -15 0 -8 -5 -15 -11 -15 -20 0 -139 -127 -139
-149 0 -11 -4 -21 -10 -21 -5 0 -10 -18 -10 -40 0 -27 -5 -43 -15 -46 -11 -5
-15 -21 -15 -60 0 -39 -4 -56 -15 -60 -11 -5 -15 -23 -15 -74 0 -51 4 -69 15
-74 11 -4 15 -21 15 -61 0 -42 3 -55 15 -55 10 0 15 -10 15 -30 0 -16 5 -30
10 -30 6 0 10 -10 10 -23 0 -13 13 -33 30 -47 16 -14 29 -35 30 -47 0 -14 6
-23 15 -23 8 0 15 -7 15 -15 0 -10 10 -15 30 -15 20 0 30 -5 30 -15 0 -8 7
-15 15 -15 8 0 15 -7 15 -15 0 -8 7 -15 15 -15 8 0 15 -7 15 -15 0 -10 10 -15
30 -15 20 0 30 -5 30 -15 0 -11 12 -15 45 -15 33 0 45 -4 45 -15 0 -12 13 -15
55 -15 42 0 55 -3 55 -15 0 -12 13 -15 60 -15 47 0 60 3 60 15 0 12 13 15 60
15 47 0 60 3 60 15 0 11 12 15 45 15 33 0 45 4 45 15 0 8 7 15 15 15 8 0 15 7
15 15 0 8 9 15 20 15 11 0 44 25 74 55 29 30 59 55 65 55 6 0 11 7 11 15 0 8
7 15 15 15 8 0 15 7 15 15 0 8 7 15 15 15 10 0 15 10 15 30 0 20 5 30 15 30
11 0 15 12 15 45 0 33 4 45 15 45 13 0 15 26 15 175 0 149 -2 175 -15 175 -11
0 -15 12 -15 45 0 33 4 45 15 45 8 0 15 7 15 15 0 8 7 15 15 15 8 0 15 7 15
15 0 8 7 15 15 15 8 0 15 7 15 15 0 13 133 15 1140 15 l1140 0 0 -135 c0 -113
2 -135 15 -135 13 0 15 -21 15 -130 0 -109 -2 -130 -15 -130 -8 0 -15 -7 -15
-15 0 -13 -59 -15 -475 -15 l-474 0 -36 -35 c-19 -20 -35 -40 -35 -45 0 -6 -7
-10 -15 -10 -8 0 -15 -7 -15 -15 0 -10 -10 -15 -30 -15 -20 0 -30 -5 -30 -15
0 -8 -7 -15 -15 -15 -8 0 -15 -7 -15 -15 0 -8 -5 -15 -11 -15 -6 0 -29 -18
-50 -40 -22 -22 -43 -40 -49 -40 -5 0 -10 -7 -10 -15 0 -8 -7 -15 -15 -15 -8
0 -15 -7 -15 -15 0 -8 -7 -15 -15 -15 -8 0 -15 -5 -15 -10 0 -6 -18 -27 -40
-49 -22 -21 -40 -44 -40 -50 0 -6 -7 -11 -15 -11 -8 0 -15 -7 -15 -15 0 -8 -7
-15 -15 -15 -8 0 -15 -7 -15 -15 0 -8 -7 -15 -15 -15 -8 0 -15 -7 -15 -15 0
-8 -7 -15 -15 -15 -8 0 -15 -7 -15 -15 0 -8 -7 -15 -15 -15 -8 0 -15 -7 -15
-15 0 -8 -4 -15 -10 -15 -5 0 -28 -18 -50 -40 -22 -22 -44 -40 -50 -40 -5 0
-10 -7 -10 -15 0 -8 -7 -15 -15 -15 -8 0 -15 -7 -15 -15 0 -8 -7 -15 -15 -15
-8 0 -15 -7 -15 -15 0 -8 -7 -15 -15 -15 -8 0 -15 -5 -15 -10 0 -6 -11 -21
-25 -34 -14 -13 -25 -28 -25 -35 0 -6 -7 -11 -15 -11 -8 0 -15 -7 -15 -15 0
-8 -7 -15 -15 -15 -8 0 -15 -7 -15 -15 0 -8 -7 -15 -15 -15 -8 0 -15 -7 -15
-15 0 -8 -7 -15 -15 -15 -8 0 -15 -7 -15 -15 0 -8 -7 -15 -15 -15 -8 0 -15 -7
-15 -15 0 -8 -7 -15 -15 -15 -8 0 -15 -7 -15 -15 0 -8 -5 -15 -11 -15 -7 0
-22 -11 -35 -25 -13 -14 -28 -25 -34 -25 -5 0 -10 -7 -10 -15 0 -8 -7 -15 -15
-15 -8 0 -15 -7 -15 -15 0 -8 -7 -15 -15 -15 -8 0 -15 -7 -15 -15 0 -8 -7 -15
-15 -15 -8 0 -15 -5 -15 -10 0 -6 -11 -21 -25 -34 -14 -13 -25 -28 -25 -35 0
-6 -7 -11 -15 -11 -8 0 -15 -7 -15 -15 0 -8 -7 -15 -15 -15 -8 0 -15 -7 -15
-15 0 -8 -7 -15 -15 -15 -8 0 -15 -7 -15 -15 0 -8 -7 -15 -15 -15 -8 0 -15 -7
-15 -15 0 -8 -7 -15 -15 -15 -8 0 -15 -7 -15 -15 0 -8 -7 -15 -15 -15 -8 0
-15 -7 -15 -15 0 -8 -5 -15 -11 -15 -7 0 -22 -11 -35 -25 -13 -14 -28 -25 -34
-25 -5 0 -10 -7 -10 -15 0 -8 -7 -15 -15 -15 -8 0 -15 -7 -15 -15 0 -8 -7 -15
-15 -15 -8 0 -15 -7 -15 -15 0 -8 -7 -15 -15 -15 -8 0 -15 -4 -15 -10 0 -17
-39 -50 -60 -50 -11 0 -20 7 -20 15 0 11 -12 15 -45 15 -33 0 -45 4 -45 15 0
12 -15 15 -75 15 -60 0 -75 3 -75 15 0 11 -11 15 -40 15 -27 0 -43 -5 -46 -15
-5 -11 -23 -15 -75 -15 -55 0 -69 -3 -69 -15 0 -10 -10 -15 -30 -15 -20 0 -30
-5 -30 -15 0 -10 -10 -15 -30 -15 -20 0 -30 -5 -30 -15 0 -8 -7 -15 -15 -15
-8 0 -15 -7 -15 -15 0 -10 -10 -15 -30 -15 -20 0 -30 -5 -30 -15 0 -8 -7 -15
-15 -15 -8 0 -15 -7 -15 -15 0 -8 -7 -15 -15 -15 -10 0 -15 -10 -15 -30 0 -20
-5 -30 -15 -30 -8 0 -15 -7 -15 -15 0 -8 -7 -15 -15 -15 -9 0 -15 -9 -15 -25
0 -14 -4 -25 -10 -25 -5 0 -10 -13 -10 -30 0 -20 -5 -30 -15 -30 -12 0 -15
-13 -15 -60 0 -47 -3 -60 -15 -60 -22 0 -22 -195 0 -204 10 -3 15 -19 15 -45
0 -25 5 -41 15 -45 8 -3 15 -17 15 -31 0 -14 5 -25 10 -25 6 0 10 -13 10 -30
0 -20 5 -30 15 -30 8 0 15 -7 15 -15 0 -8 7 -15 15 -15 8 0 15 -7 15 -15 0 -8
7 -15 15 -15 10 0 15 -10 15 -30 0 -27 3 -30 30 -30 20 0 30 -5 30 -15 0 -8 7
-15 15 -15 8 0 15 -7 15 -15 0 -8 7 -15 15 -15 8 0 15 -7 15 -15 0 -10 10 -15
30 -15 17 0 30 -4 30 -10 0 -5 18 -10 40 -10 27 0 43 -5 46 -15 9 -22 324 -22
324 0 0 11 12 15 45 15 25 0 45 5 45 10 0 6 10 10 23 10 22 0 57 31 57 50 0 6
14 10 30 10 20 0 30 5 30 15 0 8 7 15 15 15 8 0 15 7 15 15 0 8 7 15 15 15 8
0 15 7 15 15 0 8 7 15 15 15 10 0 15 10 15 30 0 20 5 30 15 30 8 0 15 7 15 15
0 8 7 15 15 15 10 0 15 10 15 30 0 20 5 30 15 30 11 0 15 12 15 45 0 33 4 45
15 45 13 0 15 24 15 160 0 136 -2 160 -15 160 -10 0 -15 10 -15 30 0 20 -5 30
-15 30 -10 0 -15 10 -15 30 0 17 5 30 11 30 14 0 189 175 189 189 0 6 7 11 15
11 8 0 15 7 15 15 0 8 7 15 15 15 8 0 15 7 15 15 0 8 7 15 15 15 8 0 15 7 15
15 0 8 7 15 15 15 8 0 15 7 15 15 0 8 7 15 15 15 8 0 15 7 15 15 0 8 7 15 15
15 8 0 15 7 15 15 0 8 7 15 15 15 8 0 15 7 15 15 0 8 5 15 11 15 6 0 51 40
100 89 49 49 89 94 89 100 0 6 7 11 15 11 8 0 15 7 15 15 0 8 7 15 15 15 8 0
15 7 15 15 0 8 7 15 15 15 8 0 15 7 15 15 0 8 7 15 15 15 8 0 15 7 15 15 0 8
7 15 15 15 8 0 15 7 15 15 0 8 7 15 15 15 8 0 15 7 15 15 0 8 7 15 15 15 8 0
15 7 15 15 0 8 5 15 11 15 6 0 51 40 100 89 49 49 89 94 89 100 0 6 7 11 15
11 8 0 15 7 15 15 0 8 7 15 15 15 8 0 15 7 15 15 0 8 7 15 15 15 8 0 15 7 15
15 0 8 7 15 15 15 8 0 15 7 15 15 0 8 7 15 15 15 8 0 15 7 15 15 0 8 7 15 15
15 8 0 15 7 15 15 0 8 7 15 15 15 8 0 15 7 15 15 0 8 5 15 11 15 14 0 219 205
219 219 0 6 7 11 15 11 8 0 15 7 15 15 0 10 10 15 30 15 20 0 30 5 30 15 0 13
54 15 425 15 l425 0 0 -205 c0 -176 2 -205 15 -205 12 0 15 -18 15 -105 0 -87
3 -105 15 -105 9 0 15 -9 15 -25 0 -14 7 -28 15 -31 13 -5 15 -67 15 -470 0
-406 -2 -464 -15 -464 -8 0 -15 -7 -15 -15 0 -8 -7 -15 -15 -15 -8 0 -15 -7
-15 -15 0 -8 -7 -15 -15 -15 -8 0 -15 -7 -15 -15 0 -8 -7 -15 -15 -15 -8 0
-15 -7 -15 -15 0 -8 -7 -15 -15 -15 -8 0 -15 -7 -15 -15 0 -8 -7 -15 -15 -15
-8 0 -15 -7 -15 -15 0 -8 -7 -15 -15 -15 -8 0 -15 -5 -15 -11 0 -14 -145 -159
-159 -159 -6 0 -11 -7 -11 -15 0 -8 -7 -15 -15 -15 -8 0 -15 -7 -15 -15 0 -8
-7 -15 -15 -15 -8 0 -15 -7 -15 -15 0 -8 -7 -15 -15 -15 -8 0 -15 -7 -15 -15
0 -8 -7 -15 -15 -15 -8 0 -15 -7 -15 -15 0 -8 -7 -15 -15 -15 -8 0 -15 -7 -15
-15 0 -8 -7 -15 -15 -15 -8 0 -15 -7 -15 -15 0 -8 -7 -15 -15 -15 -8 0 -15 -7
-15 -15 0 -8 -7 -15 -15 -15 -8 0 -15 -5 -15 -11 0 -14 -145 -159 -159 -159
-6 0 -11 -7 -11 -15 0 -8 -7 -15 -15 -15 -8 0 -15 -7 -15 -15 0 -8 -7 -15 -15
-15 -8 0 -15 -7 -15 -15 0 -8 -7 -15 -15 -15 -8 0 -15 -7 -15 -15 0 -8 -7 -15
-15 -15 -8 0 -15 -7 -15 -15 0 -8 -7 -15 -15 -15 -8 0 -15 -7 -15 -15 0 -8 -7
-15 -15 -15 -8 0 -15 -7 -15 -15 0 -8 -7 -15 -15 -15 -8 0 -15 -7 -15 -15 0
-8 -7 -15 -15 -15 -8 0 -15 -4 -15 -10 0 -12 -32 -50 -42 -50 -5 0 -8 7 -8 15
0 11 -12 15 -45 15 -33 0 -45 4 -45 15 0 13 -23 15 -150 15 -127 0 -150 -2
-150 -15 0 -11 -11 -15 -40 -15 -29 0 -40 -4 -40 -15 0 -10 -10 -15 -30 -15
-20 0 -30 -5 -30 -15 0 -10 -10 -15 -30 -15 -20 0 -30 -5 -30 -15 0 -8 -7 -15
-15 -15 -8 0 -15 -7 -15 -15 0 -8 -5 -15 -11 -15 -18 0 -109 -96 -109 -116 -1
-11 -14 -30 -30 -44 -24 -19 -30 -32 -30 -62 0 -21 -4 -38 -10 -38 -6 0 -10
-30 -10 -70 0 -54 -4 -72 -15 -76 -10 -4 -15 -20 -15 -44 0 -24 5 -40 15 -44
11 -4 15 -22 15 -76 0 -40 4 -70 10 -70 6 0 10 -11 10 -25 0 -14 7 -28 15 -31
8 -4 15 -17 15 -30 0 -14 7 -27 15 -30 8 -4 15 -16 15 -28 0 -21 31 -56 50
-56 6 0 10 -7 10 -15 0 -8 7 -15 15 -15 8 0 15 -7 15 -15 0 -8 7 -15 15 -15 8
0 15 -7 15 -15 0 -10 10 -15 30 -15 20 0 30 -5 30 -15 0 -10 10 -15 30 -15 20
0 30 -5 30 -15 0 -10 10 -15 30 -15 20 0 30 -5 30 -15 0 -12 13 -15 55 -15 42
0 55 -3 55 -15 0 -12 17 -15 90 -15 73 0 90 3 90 15 0 12 13 15 60 15 47 0 60
3 60 15 0 10 10 15 30 15 20 0 30 5 30 15 0 8 9 15 20 15 11 0 50 31 89 70 38
39 74 70 80 70 6 0 11 7 11 15 0 8 7 15 15 15 10 0 15 10 15 30 0 20 5 30 15
30 10 0 15 10 15 30 0 20 5 30 15 30 10 0 15 10 15 30 0 20 5 30 15 30 13 0
15 24 15 160 0 136 -2 160 -15 160 -11 0 -15 12 -15 45 0 33 -4 45 -15 45 -10
0 -15 10 -15 30 0 20 -5 30 -15 30 -8 0 -15 7 -15 15 0 8 7 15 15 15 8 0 15 7
15 15 0 8 7 15 15 15 8 0 15 7 15 15 0 8 7 15 15 15 8 0 15 7 15 15 0 8 5 15
11 15 14 0 99 85 99 99 0 6 7 11 15 11 8 0 15 7 15 15 0 8 7 15 15 15 8 0 15
7 15 15 0 8 7 15 15 15 8 0 15 7 15 15 0 8 7 15 15 15 8 0 15 7 15 15 0 8 7
15 15 15 8 0 15 7 15 15 0 8 7 15 15 15 8 0 15 7 15 15 0 8 7 15 15 15 8 0 15
7 15 15 0 8 7 15 15 15 8 0 15 7 15 15 0 8 7 15 15 15 8 0 15 7 15 15 0 8 7
15 15 15 8 0 15 7 15 15 0 8 5 15 11 15 6 0 29 18 50 40 22 22 48 40 59 40 11
0 20 7 20 15 0 8 7 15 15 15 8 0 15 7 15 15 0 8 7 15 15 15 8 0 15 7 15 15 0
8 7 15 15 15 10 0 15 10 15 30 0 20 5 30 15 30 8 0 15 7 15 15 0 8 7 15 15 15
8 0 15 7 15 15 0 8 7 15 15 15 8 0 15 7 15 15 0 10 10 15 30 15 20 0 30 5 30
15 0 8 7 15 15 15 8 0 15 7 15 15 0 8 7 15 15 15 8 0 15 7 15 15 0 8 7 15 15
15 8 0 15 7 15 15 0 8 7 15 15 15 9 0 15 9 15 25 0 14 5 25 10 25 6 0 10 7 10
15 0 8 7 15 15 15 8 0 15 7 15 15 0 10 10 15 30 15 20 0 30 5 30 15 0 8 7 15
15 15 10 0 15 10 15 30 0 20 5 30 15 30 13 0 15 57 15 455 l0 455 280 0 280 0
0 -1215 c0 -1073 -2 -1215 -15 -1215 -8 0 -15 -7 -15 -15 0 -8 -7 -15 -15 -15
-8 0 -15 -7 -15 -15 0 -8 -7 -15 -15 -15 -8 0 -15 -7 -15 -15 0 -8 -7 -15 -15
-15 -8 0 -15 -7 -15 -15 0 -8 -7 -15 -15 -15 -8 0 -15 -7 -15 -15 0 -8 -7 -15
-15 -15 -8 0 -15 -7 -15 -15 0 -8 -7 -15 -15 -15 -8 0 -15 -7 -15 -15 0 -8 -7
-15 -15 -15 -8 0 -15 -7 -15 -15 0 -8 -7 -15 -15 -15 -8 0 -15 -5 -15 -11 0
-14 -85 -99 -99 -99 -6 0 -11 -7 -11 -15 0 -8 -7 -15 -15 -15 -8 0 -15 -7 -15
-15 0 -8 -7 -15 -15 -15 -8 0 -15 -7 -15 -15 0 -11 -12 -15 -45 -15 -33 0 -45
4 -45 15 0 12 -15 15 -75 15 -60 0 -75 3 -75 15 0 11 -11 15 -40 15 -29 0 -40
-4 -40 -15 0 -12 -15 -15 -75 -15 -60 0 -75 -3 -75 -15 0 -11 -12 -15 -45 -15
-33 0 -45 -4 -45 -15 0 -8 -7 -15 -15 -15 -8 0 -15 -7 -15 -15 0 -10 -10 -15
-30 -15 -16 0 -30 -5 -30 -10 0 -6 -11 -21 -25 -34 -14 -13 -25 -28 -25 -35 0
-6 -7 -11 -15 -11 -8 0 -15 -7 -15 -15 0 -8 -7 -15 -15 -15 -8 0 -15 -7 -15
-15 0 -8 -7 -15 -15 -15 -9 0 -15 -9 -15 -23 0 -13 -13 -33 -30 -47 -22 -19
-29 -33 -30 -62 0 -27 -4 -38 -15 -38 -13 0 -15 -27 -15 -180 0 -153 2 -180
15 -180 11 0 15 -11 15 -40 0 -29 4 -40 15 -40 10 0 15 -10 15 -30 0 -20 5
-30 15 -30 8 0 15 -7 15 -15 0 -8 7 -15 15 -15 8 0 15 -7 15 -15 0 -8 7 -15
15 -15 8 0 15 -7 15 -15 0 -8 7 -15 15 -15 8 0 15 -5 15 -10 0 -20 67 -80 89
-80 12 0 21 -6 21 -15 0 -10 10 -15 30 -15 20 0 30 -5 30 -15 0 -11 12 -15 45
-15 33 0 45 -4 45 -15 0 -13 23 -15 145 -15 122 0 145 2 145 15 0 11 12 15 45
15 33 0 45 4 45 15 0 10 10 15 30 15 20 0 30 5 30 15 0 8 7 15 15 15 8 0 15 7
15 15 0 10 10 15 30 15 20 0 30 5 30 15 0 8 7 15 15 15 8 0 15 5 15 11 0 7 11
22 25 35 14 13 25 31 25 41 0 11 13 30 30 43 16 14 29 35 30 48 0 12 7 25 15
28 10 4 15 20 15 45 0 28 4 39 15 39 13 0 15 23 15 150 0 127 -2 150 -15 150
-11 0 -15 11 -15 39 0 25 -5 41 -15 45 -8 3 -15 16 -15 30 0 13 -7 26 -15 30
-8 3 -15 10 -15 16 0 5 7 10 15 10 8 0 15 7 15 15 0 8 7 15 15 15 8 0 15 7 15
15 0 8 7 15 15 15 8 0 15 7 15 15 0 8 7 15 15 15 8 0 15 7 15 15 0 8 7 15 15
15 8 0 15 7 15 15 0 8 7 15 15 15 8 0 15 7 15 15 0 8 7 15 15 15 8 0 15 7 15
15 0 8 7 15 15 15 8 0 15 7 15 15 0 8 7 15 15 15 8 0 15 7 15 15 0 8 7 15 15
15 8 0 15 7 15 15 0 8 7 15 15 15 8 0 15 7 15 15 0 8 5 15 11 15 14 0 39 25
39 39 0 6 7 11 15 11 8 0 15 7 15 15 0 8 7 15 15 15 8 0 15 7 15 15 0 8 7 15
15 15 8 0 15 7 15 15 0 8 7 15 15 15 8 0 15 7 15 15 0 8 7 15 15 15 8 0 15 7
15 15 0 8 7 15 15 15 8 0 15 7 15 15 0 8 7 15 15 15 13 0 15 148 15 1275 l0
1275 293 -2 292 -3 3 -1978 2 -1977 173 2 172 3 3 1978 2 1977 275 0 275 0 0
-1845 0 -1845 180 0 180 0 0 1845 0 1845 190 0 c162 0 190 2 190 15 0 12 18
15 100 15 l100 0 0 -1275 c0 -1127 2 -1275 15 -1275 8 0 15 -7 15 -15 0 -8 7
-15 15 -15 8 0 15 -7 15 -15 0 -8 7 -15 15 -15 8 0 15 -7 15 -15 0 -8 7 -15
15 -15 8 0 15 -7 15 -15 0 -8 7 -15 15 -15 8 0 15 -7 15 -15 0 -8 7 -15 15
-15 8 0 15 -7 15 -15 0 -8 7 -15 15 -15 8 0 15 -7 15 -15 0 -8 7 -15 15 -15 8
0 15 -5 15 -11 0 -14 25 -39 39 -39 6 0 11 -7 11 -15 0 -8 7 -15 15 -15 8 0
15 -7 15 -15 0 -8 7 -15 15 -15 8 0 15 -7 15 -15 0 -8 7 -15 15 -15 8 0 15 -7
15 -15 0 -8 7 -15 15 -15 8 0 15 -7 15 -15 0 -8 7 -15 15 -15 8 0 15 -7 15
-15 0 -8 7 -15 15 -15 8 0 15 -7 15 -15 0 -8 7 -15 15 -15 8 0 15 -7 15 -15 0
-8 7 -15 15 -15 8 0 15 -7 15 -15 0 -8 7 -15 15 -15 8 0 15 -7 15 -15 0 -8 7
-15 15 -15 8 0 15 -7 15 -15 0 -8 7 -15 15 -15 19 0 19 -19 0 -26 -8 -4 -15
-17 -15 -30 0 -14 -7 -27 -15 -30 -10 -4 -15 -20 -15 -45 0 -28 -4 -39 -15
-39 -13 0 -15 -25 -15 -165 0 -140 2 -165 15 -165 9 0 15 -9 15 -24 0 -13 7
-26 15 -30 8 -3 15 -16 15 -30 0 -13 7 -26 15 -30 8 -3 15 -17 15 -31 0 -16 6
-25 15 -25 8 0 15 -5 15 -10 0 -6 11 -21 25 -34 14 -13 25 -28 25 -35 0 -6 7
-11 15 -11 8 0 15 -7 15 -15 0 -8 7 -15 15 -15 8 0 15 -7 15 -15 0 -10 10 -15
30 -15 20 0 30 -5 30 -15 0 -10 10 -15 30 -15 20 0 30 -5 30 -15 0 -11 12 -15
45 -15 33 0 45 -4 45 -15 0 -13 23 -15 145 -15 122 0 145 2 145 15 0 11 12 15
45 15 33 0 45 4 45 15 0 10 10 15 30 15 20 0 30 5 30 15 0 9 9 15 21 15 22 0
89 60 89 80 0 5 7 10 15 10 8 0 15 7 15 15 0 8 7 15 15 15 8 0 15 7 15 15 0 8
7 15 15 15 10 0 15 10 15 30 0 20 5 30 15 30 10 0 15 10 15 30 0 20 5 30 15
30 11 0 15 11 15 40 0 29 4 40 15 40 13 0 15 25 15 165 0 140 -2 165 -15 165
-9 0 -15 9 -15 24 0 13 -7 26 -15 30 -8 3 -15 16 -15 30 0 13 -7 26 -15 30 -8
3 -15 17 -15 31 0 16 -6 25 -15 25 -8 0 -15 7 -15 15 0 8 -7 15 -15 15 -8 0
-15 7 -15 15 0 8 -7 15 -15 15 -8 0 -15 5 -15 11 0 7 -11 22 -25 35 -14 13
-25 28 -25 34 0 5 -7 10 -15 10 -8 0 -15 7 -15 15 0 10 -10 15 -30 15 -20 0
-30 5 -30 15 0 11 -12 15 -45 15 -33 0 -45 4 -45 15 0 12 -15 15 -75 15 -60 0
-75 3 -75 15 0 11 -11 15 -40 15 -29 0 -40 -4 -40 -15 0 -12 -15 -15 -75 -15
-60 0 -75 -3 -75 -15 0 -11 -12 -15 -45 -15 -33 0 -45 4 -45 15 0 8 -7 15 -15
15 -8 0 -15 7 -15 15 0 8 -7 15 -15 15 -8 0 -15 7 -15 15 0 8 -5 15 -11 15
-14 0 -99 85 -99 99 0 6 -7 11 -15 11 -8 0 -15 7 -15 15 0 8 -7 15 -15 15 -8
0 -15 7 -15 15 0 8 -7 15 -15 15 -8 0 -15 7 -15 15 0 8 -7 15 -15 15 -8 0 -15
7 -15 15 0 8 -7 15 -15 15 -8 0 -15 7 -15 15 0 8 -7 15 -15 15 -8 0 -15 7 -15
15 0 8 -7 15 -15 15 -8 0 -15 7 -15 15 0 8 -7 15 -15 15 -8 0 -15 7 -15 15 0
8 -7 15 -15 15 -8 0 -15 7 -15 15 0 8 -7 15 -15 15 -13 0 -15 140 -15 1200 l0
1200 295 0 295 0 0 -470 c0 -411 2 -470 15 -470 8 0 15 -7 15 -15 0 -8 7 -15
15 -15 8 0 15 -7 15 -15 0 -8 7 -15 15 -15 8 0 15 -7 15 -15 0 -8 7 -15 15
-15 8 0 15 -7 15 -15 0 -8 7 -15 15 -15 8 0 15 -5 15 -11 0 -14 25 -39 39 -39
6 0 11 -7 11 -15 0 -8 7 -15 15 -15 8 0 15 -7 15 -15 0 -8 7 -15 15 -15 8 0
15 -7 15 -15 0 -8 7 -15 15 -15 8 0 15 -7 15 -15 0 -8 7 -15 15 -15 8 0 15 -7
15 -15 0 -8 7 -15 15 -15 8 0 15 -7 15 -15 0 -8 7 -15 15 -15 8 0 15 -7 15
-15 0 -8 7 -15 15 -15 8 0 15 -7 15 -15 0 -8 7 -15 15 -15 8 0 15 -7 15 -15 0
-8 7 -15 15 -15 8 0 15 -7 15 -15 0 -8 7 -15 15 -15 8 0 15 -7 15 -15 0 -8 7
-15 15 -15 8 0 15 -7 15 -15 0 -8 7 -15 15 -15 8 0 15 -5 15 -11 0 -14 55 -69
69 -69 6 0 11 -7 11 -15 0 -8 7 -15 15 -15 8 0 15 -7 15 -15 0 -8 7 -15 15
-15 8 0 15 -7 15 -15 0 -8 7 -15 15 -15 8 0 15 -7 15 -15 0 -8 7 -15 15 -15 8
0 15 -7 15 -15 0 -8 7 -15 15 -15 8 0 15 -7 15 -15 0 -8 7 -15 15 -15 8 0 15
-7 15 -15 0 -10 10 -15 30 -15 20 0 30 -5 30 -15 0 -8 7 -15 15 -15 10 0 15
-10 15 -30 0 -20 5 -30 15 -30 8 0 15 -7 15 -15 0 -8 7 -15 15 -15 8 0 15 -4
15 -10 0 -19 35 -50 57 -50 13 0 23 -4 23 -10 0 -5 7 -10 15 -10 10 0 15 -10
15 -30 0 -20 5 -30 15 -30 8 0 15 -7 15 -15 0 -8 7 -15 15 -15 10 0 15 -10 15
-30 0 -20 -5 -30 -15 -30 -10 0 -15 -10 -15 -30 0 -20 -5 -30 -15 -30 -11 0
-15 -12 -15 -45 0 -33 -4 -45 -15 -45 -13 0 -15 -23 -15 -145 0 -122 2 -145
15 -145 10 0 15 -10 15 -30 0 -20 5 -30 15 -30 11 0 15 -12 15 -45 0 -33 4
-45 15 -45 8 0 15 -7 15 -15 0 -8 7 -15 15 -15 8 0 15 -7 15 -15 0 -8 7 -15
15 -15 9 0 15 -9 15 -25 0 -20 5 -25 25 -25 14 0 28 -7 31 -15 4 -8 12 -15 20
-15 8 0 14 -7 14 -15 0 -8 7 -15 15 -15 8 0 15 -7 15 -15 0 -9 9 -15 25 -15
14 0 28 -7 31 -15 4 -8 17 -15 30 -15 15 0 24 -6 24 -15 0 -12 13 -15 60 -15
47 0 60 -3 60 -15 0 -12 18 -15 105 -15 87 0 105 3 105 15 0 12 13 15 55 15
42 0 55 3 55 15 0 10 10 15 30 15 20 0 30 5 30 15 0 8 7 15 15 15 8 0 15 7 15
15 0 10 10 15 30 15 20 0 30 5 30 15 0 8 7 15 15 15 8 0 15 7 15 15 0 8 7 15
15 15 8 0 15 7 15 15 0 8 5 15 10 15 19 0 80 67 80 87 0 12 7 23 15 27 8 3 15
16 15 30 0 13 7 26 15 30 8 3 15 17 15 31 0 14 5 25 10 25 6 0 10 60 10 160 0
100 -4 160 -10 160 -5 0 -10 20 -10 45 0 33 -4 45 -15 45 -9 0 -15 9 -15 23 0
13 -13 33 -30 47 -16 14 -29 34 -30 44 0 20 -61 86 -80 86 -5 0 -10 7 -10 15
0 10 -10 15 -30 15 -20 0 -30 5 -30 15 0 8 -7 15 -15 15 -8 0 -15 7 -15 15 0
10 -10 15 -30 15 -20 0 -30 5 -30 15 0 11 -11 15 -40 15 -29 0 -40 4 -40 15 0
13 -23 15 -150 15 -127 0 -150 -2 -150 -15 0 -11 -12 -15 -45 -15 -33 0 -45
-4 -45 -15 0 -9 -9 -15 -25 -15 -16 0 -25 6 -25 15 0 8 -7 15 -15 15 -8 0 -15
7 -15 15 0 8 -7 15 -15 15 -8 0 -15 7 -15 15 0 8 -7 15 -15 15 -8 0 -15 7 -15
15 0 8 -7 15 -15 15 -8 0 -15 7 -15 15 0 8 -7 15 -15 15 -8 0 -15 7 -15 15 0
8 -7 15 -15 15 -8 0 -15 7 -15 15 0 8 -7 15 -15 15 -8 0 -15 7 -15 15 0 8 -7
15 -15 15 -8 0 -15 7 -15 15 0 8 -7 15 -15 15 -8 0 -15 7 -15 15 0 8 -5 15
-11 15 -6 0 -37 27 -70 59 -32 33 -59 64 -59 70 0 6 -7 11 -15 11 -8 0 -15 7
-15 15 0 8 -7 15 -15 15 -8 0 -15 7 -15 15 0 8 -7 15 -15 15 -8 0 -15 7 -15
15 0 8 -7 15 -15 15 -8 0 -15 7 -15 15 0 8 -7 15 -15 15 -8 0 -15 7 -15 15 0
8 -7 15 -15 15 -8 0 -15 7 -15 15 0 8 -7 15 -15 15 -8 0 -15 7 -15 15 0 8 -7
15 -15 15 -8 0 -15 7 -15 15 0 8 -7 15 -15 15 -8 0 -15 7 -15 15 0 8 -5 15
-11 15 -6 0 -37 27 -70 59 -32 33 -59 64 -59 70 0 6 -7 11 -15 11 -8 0 -15 7
-15 15 0 8 -7 15 -15 15 -8 0 -15 7 -15 15 0 8 -7 15 -15 15 -8 0 -15 7 -15
15 0 8 -7 15 -15 15 -8 0 -15 7 -15 15 0 8 -7 15 -15 15 -8 0 -15 7 -15 15 0
8 -7 15 -15 15 -8 0 -15 7 -15 15 0 8 -7 15 -15 15 -8 0 -15 7 -15 15 0 8 -7
15 -15 15 -13 0 -15 57 -15 450 0 391 2 451 15 456 8 4 15 17 15 30 0 15 6 24
15 24 11 0 15 12 15 45 0 33 4 45 15 45 13 0 15 38 15 280 l0 280 440 0 c384
0 440 -2 440 -15 0 -8 7 -15 15 -15 8 0 15 -7 15 -15 0 -8 7 -15 15 -15 8 0
15 -7 15 -15 0 -8 7 -15 15 -15 8 0 15 -5 15 -11 0 -6 40 -51 89 -100 49 -49
94 -89 100 -89 6 0 11 -7 11 -15 0 -8 7 -15 15 -15 8 0 15 -7 15 -15 0 -8 7
-15 15 -15 8 0 15 -7 15 -15 0 -10 10 -15 30 -15 20 0 30 -5 30 -15 0 -8 7
-15 15 -15 8 0 15 -7 15 -15 0 -8 7 -15 15 -15 8 0 15 -7 15 -15 0 -8 7 -15
15 -15 8 0 15 -7 15 -15 0 -8 7 -15 15 -15 8 0 15 -5 15 -11 0 -6 40 -51 89
-100 49 -49 94 -89 100 -89 6 0 11 -7 11 -15 0 -8 7 -15 15 -15 8 0 15 -7 15
-15 0 -8 7 -15 15 -15 8 0 15 -7 15 -15 0 -8 7 -15 15 -15 8 0 15 -7 15 -15 0
-8 7 -15 15 -15 8 0 15 -7 15 -15 0 -8 7 -15 15 -15 8 0 15 -7 15 -15 0 -8 7
-15 15 -15 8 0 15 -7 15 -15 0 -8 7 -15 15 -15 8 0 15 -5 15 -11 0 -6 40 -51
89 -100 49 -49 94 -89 100 -89 6 0 11 -7 11 -15 0 -8 7 -15 15 -15 8 0 15 -7
15 -15 0 -8 7 -15 15 -15 8 0 15 -7 15 -15 0 -8 7 -15 15 -15 8 0 15 -7 15
-15 0 -8 7 -15 15 -15 8 0 15 -7 15 -15 0 -8 7 -15 15 -15 8 0 15 -7 15 -15 0
-8 7 -15 15 -15 8 0 15 -7 15 -15 0 -8 7 -15 15 -15 8 0 15 -5 15 -11 0 -14
175 -189 189 -189 6 0 11 -7 11 -15 0 -8 -7 -15 -15 -15 -11 0 -15 -12 -15
-45 0 -33 -4 -45 -15 -45 -13 0 -15 -28 -15 -190 0 -162 2 -190 15 -190 10 0
15 -10 15 -30 0 -20 5 -30 15 -30 10 0 15 -10 15 -30 0 -20 5 -30 15 -30 8 0
15 -7 15 -15 0 -8 7 -15 15 -15 8 0 15 -7 15 -15 0 -8 7 -15 15 -15 8 0 15 -7
15 -15 0 -8 7 -15 15 -15 8 0 15 -7 15 -15 0 -8 7 -15 15 -15 8 0 15 -7 15
-15 0 -8 7 -15 15 -15 8 0 15 -7 15 -15 0 -9 9 -15 24 -15 13 0 26 -7 30 -15
3 -8 17 -15 31 -15 14 0 25 -4 25 -10 0 -5 14 -10 30 -10 20 0 30 -5 30 -15 0
-13 26 -15 174 -15 145 0 175 2 180 15 3 8 17 15 31 15 14 0 25 5 25 10 0 6
14 10 30 10 20 0 30 5 30 15 0 10 10 15 30 15 20 0 30 5 30 15 0 8 7 15 15 15
8 0 15 7 15 15 0 8 7 15 15 15 8 0 15 7 15 15 0 8 7 15 15 15 8 0 15 7 15 15
0 8 7 15 15 15 8 0 15 7 15 15 0 8 7 15 15 15 10 0 15 10 15 30 0 20 5 30 15
30 10 0 15 10 15 30 0 17 5 30 10 30 6 0 10 18 10 40 0 27 5 43 15 46 12 5 15
33 15 165 0 135 -2 159 -15 159 -11 0 -15 11 -15 41 0 32 -6 47 -25 65 -14 13
-25 32 -25 44 0 11 -7 20 -15 20 -8 0 -15 7 -15 15 0 8 -7 15 -15 15 -8 0 -15
7 -15 15 0 8 -7 15 -15 15 -8 0 -15 7 -15 15 0 8 -7 15 -15 15 -8 0 -15 7 -15
15 0 8 -7 15 -15 15 -8 0 -15 7 -15 15 0 10 -10 15 -30 15 -20 0 -30 5 -30 15
0 8 -7 15 -15 15 -8 0 -15 7 -15 15 0 11 -12 15 -45 15 -33 0 -45 4 -45 15 0
12 -14 15 -70 15 -56 0 -70 3 -70 15 0 11 -12 15 -45 15 -33 0 -45 -4 -45 -15
0 -12 -13 -15 -60 -15 -47 0 -60 -3 -60 -15 0 -11 -12 -15 -45 -15 -33 0 -45
-4 -45 -15 0 -8 -9 -15 -20 -15 -21 0 -60 33 -60 50 0 6 -7 10 -15 10 -8 0
-15 7 -15 15 0 8 -7 15 -15 15 -8 0 -15 7 -15 15 0 8 -7 15 -15 15 -8 0 -15 7
-15 15 0 8 -5 15 -10 15 -6 0 -21 11 -34 25 -13 14 -28 25 -35 25 -6 0 -11 7
-11 15 0 8 -7 15 -15 15 -8 0 -15 7 -15 15 0 8 -7 15 -15 15 -8 0 -15 7 -15
15 0 8 -7 15 -15 15 -8 0 -15 7 -15 15 0 8 -7 15 -15 15 -8 0 -15 7 -15 15 0
8 -7 15 -15 15 -8 0 -15 7 -15 15 0 8 -7 15 -15 15 -8 0 -15 5 -15 11 0 7 -11
22 -25 35 -14 13 -25 28 -25 34 0 5 -7 10 -15 10 -8 0 -15 7 -15 15 0 8 -7 15
-15 15 -8 0 -15 7 -15 15 0 8 -7 15 -15 15 -8 0 -15 7 -15 15 0 8 -5 15 -10
15 -6 0 -21 11 -34 25 -13 14 -28 25 -35 25 -6 0 -11 7 -11 15 0 8 -7 15 -15
15 -8 0 -15 7 -15 15 0 8 -7 15 -15 15 -8 0 -15 7 -15 15 0 8 -7 15 -15 15 -8
0 -15 7 -15 15 0 8 -7 15 -15 15 -8 0 -15 7 -15 15 0 8 -7 15 -15 15 -8 0 -15
7 -15 15 0 8 -7 15 -15 15 -8 0 -15 5 -15 11 0 7 -11 22 -25 35 -14 13 -25 28
-25 34 0 5 -7 10 -15 10 -8 0 -15 7 -15 15 0 8 -7 15 -15 15 -8 0 -15 7 -15
15 0 8 -7 15 -15 15 -8 0 -15 7 -15 15 0 8 -4 15 -10 15 -5 0 -28 18 -50 40
-22 22 -44 40 -50 40 -5 0 -10 7 -10 15 0 8 -7 15 -15 15 -8 0 -15 7 -15 15 0
8 -7 15 -15 15 -8 0 -15 7 -15 15 0 8 -7 15 -15 15 -8 0 -15 7 -15 15 0 8 -7
15 -15 15 -8 0 -15 7 -15 15 0 8 -7 15 -15 15 -8 0 -15 5 -15 10 0 20 -67 80
-89 80 -12 0 -21 6 -21 15 0 8 -7 15 -15 15 -8 0 -15 7 -15 15 0 8 -7 15 -15
15 -8 0 -15 7 -15 15 0 8 -7 15 -15 15 -8 0 -15 7 -15 15 0 8 -7 15 -15 15 -8
0 -15 7 -15 15 0 8 -5 15 -11 15 -6 0 -29 18 -50 40 -22 22 -43 40 -49 40 -5
0 -10 7 -10 15 0 8 -7 15 -15 15 -8 0 -15 4 -15 10 0 5 -16 25 -35 45 l-36 35
-489 0 -490 0 0 280 0 280 1140 0 c1007 0 1140 -2 1140 -15 0 -10 10 -15 30
-15 20 0 30 -5 30 -15 0 -8 7 -15 15 -15 8 0 15 -7 15 -15 0 -8 7 -15 15 -15
11 0 15 -12 15 -45 0 -33 -4 -45 -15 -45 -13 0 -15 -28 -15 -190 0 -162 2
-190 15 -190 10 0 15 -10 15 -30 0 -20 5 -30 15 -30 10 0 15 -10 15 -30 0 -20
5 -30 15 -30 10 0 15 -10 15 -30 0 -16 5 -30 11 -30 6 0 29 -18 50 -40 22 -22
47 -40 57 -40 10 0 29 -13 42 -30 14 -16 35 -29 48 -30 13 0 22 -6 22 -15 0
-10 10 -15 30 -15 20 0 30 -5 30 -15 0 -12 13 -15 60 -15 47 0 60 -3 60 -15 0
-12 15 -15 75 -15 60 0 75 3 75 15 0 12 13 15 55 15 42 0 55 3 55 15 0 11 12
15 45 15 33 0 45 4 45 15 0 8 7 15 15 15 8 0 15 7 15 15 0 10 10 15 30 15 20
0 30 5 30 15 0 8 7 15 15 15 8 0 15 7 15 15 0 8 7 15 15 15 8 0 15 7 15 15 0
8 5 15 10 15 18 0 80 66 80 84 0 9 11 27 25 40 19 18 25 33 25 65 0 30 4 41
15 41 13 0 15 24 15 159 0 132 -3 160 -15 165 -10 3 -15 19 -15 46 0 22 -4 40
-10 40 -5 0 -10 11 -10 25 0 14 -7 28 -15 31 -8 4 -15 15 -15 26 0 21 -90 118
-109 118 -6 0 -11 7 -11 15 0 8 -7 15 -15 15 -8 0 -15 7 -15 15 0 10 -10 15
-30 15 -20 0 -30 5 -30 15 0 10 -10 15 -30 15 -20 0 -30 5 -30 15 0 10 -10 15
-30 15 -20 0 -30 5 -30 15 0 13 -26 15 -175 15 -149 0 -175 -2 -175 -15 0 -11
-12 -15 -45 -15 -33 0 -45 -4 -45 -15 0 -8 -7 -15 -15 -15 -8 0 -15 -7 -15
-15 0 -9 -9 -15 -25 -15 -16 0 -25 6 -25 15 0 8 -7 15 -15 15 -8 0 -15 7 -15
15 0 8 -7 15 -15 15 -8 0 -15 7 -15 15 0 10 -10 15 -30 15 -20 0 -30 5 -30 15
0 8 -7 15 -15 15 -8 0 -15 7 -15 15 0 8 -7 15 -15 15 -8 0 -15 7 -15 15 0 8
-7 15 -15 15 -8 0 -15 7 -15 15 0 13 -140 15 -1200 15 l-1200 0 0 265 0 265
1184 0 c1043 0 1185 2 1190 15 5 13 71 15 516 15 l510 0 -2 173 -3 172 -1697
3 -1698 2 0 260 0 260 871 0 872 0 48 49 c27 28 49 55 49 60 0 6 7 11 15 11 8
0 15 7 15 15 0 8 7 15 15 15 8 0 15 7 15 15 0 8 7 15 15 15 8 0 15 7 15 15 0
8 7 15 15 15 8 0 15 7 15 15 0 8 7 15 15 15 8 0 15 7 15 15 0 8 7 15 15 15 8
0 15 7 15 15 0 8 7 15 15 15 8 0 15 7 15 15 0 8 7 15 15 15 8 0 15 7 15 15 0
8 5 15 11 15 6 0 42 32 80 70 39 39 78 70 89 70 11 0 20 7 20 15 0 8 7 15 15
15 10 0 15 10 15 30 0 27 3 30 30 30 20 0 30 5 30 15 0 8 7 15 15 15 8 0 15 7
15 15 0 8 7 15 15 15 8 0 15 7 15 15 0 8 7 15 15 15 8 0 15 7 15 15 0 8 7 15
15 15 8 0 15 7 15 15 0 8 7 15 15 15 8 0 15 7 15 15 0 8 5 15 11 15 6 0 36 25
65 55 45 45 60 55 88 55 21 0 36 -6 40 -15 3 -10 19 -15 46 -15 29 0 40 -4 40
-15 0 -13 23 -15 145 -15 122 0 145 2 145 15 0 11 12 15 45 15 33 0 45 4 45
15 0 10 10 15 30 15 20 0 30 5 30 15 0 8 7 15 15 15 8 0 15 7 15 15 0 10 10
15 30 15 20 0 30 5 30 15 0 8 7 15 15 15 8 0 15 7 15 15 0 8 7 15 15 15 8 0
15 7 15 15 0 8 7 15 15 15 10 0 15 10 15 30 0 20 5 30 15 30 8 0 15 7 15 15 0
8 7 15 15 15 10 0 15 10 15 30 0 17 5 30 10 30 6 0 10 18 10 40 0 29 4 40 15
40 13 0 15 27 15 180 0 153 -2 180 -15 180 -9 0 -15 9 -15 25 0 14 -4 25 -10
25 -5 0 -10 14 -10 30 0 20 -5 30 -15 30 -8 0 -15 7 -15 15 0 8 -7 15 -15 15
-10 0 -15 10 -15 30 0 20 -5 30 -15 30 -8 0 -15 7 -15 15 0 8 -7 15 -15 15 -8
0 -15 7 -15 15 0 10 -10 15 -30 15 -20 0 -30 5 -30 15 0 8 -7 15 -15 15 -8 0
-15 7 -15 15 0 10 -10 15 -30 15 -20 0 -30 5 -30 15 0 10 -10 15 -30 15 -20 0
-30 5 -30 15 0 11 -13 15 -54 15 -39 0 -55 4 -60 15 -4 12 -24 15 -91 15 -69
0 -85 -3 -85 -15 0 -12 -13 -15 -55 -15 -40 0 -57 -4 -61 -15 -4 -8 -17 -15
-30 -15 -14 0 -27 -7 -30 -15 -4 -8 -17 -15 -30 -15 -15 0 -24 -6 -24 -15 0
-8 -7 -15 -15 -15 -8 0 -15 -7 -15 -15 0 -10 -10 -15 -30 -15 -20 0 -30 -5
-30 -15 0 -8 -7 -15 -15 -15 -10 0 -15 -10 -15 -30 0 -20 -5 -30 -15 -30 -8 0
-15 -7 -15 -15 0 -8 -7 -15 -15 -15 -10 0 -15 -10 -15 -30 0 -20 -5 -30 -15
-30 -10 0 -15 -10 -15 -30 0 -20 -5 -30 -15 -30 -12 0 -15 -13 -15 -55 0 -42
-3 -55 -15 -55 -12 0 -15 -20 -15 -120 0 -100 3 -120 15 -120 12 0 15 -13 15
-55 0 -42 3 -55 15 -55 10 0 15 -10 15 -30 0 -20 -5 -30 -15 -30 -8 0 -15 -7
-15 -15 0 -8 -7 -15 -15 -15 -8 0 -15 -7 -15 -15 0 -8 -7 -15 -15 -15 -8 0
-15 -7 -15 -15 0 -8 -7 -15 -15 -15 -8 0 -15 -7 -15 -15 0 -8 -7 -15 -15 -15
-8 0 -15 -7 -15 -15 0 -8 -7 -15 -15 -15 -8 0 -15 -5 -15 -11 0 -17 -96 -109
-114 -109 -9 0 -33 -18 -55 -40 -21 -22 -44 -40 -50 -40 -6 0 -11 -7 -11 -15
0 -8 -7 -15 -15 -15 -8 0 -15 -7 -15 -15 0 -8 -7 -15 -15 -15 -8 0 -15 -7 -15
-15 0 -8 -7 -15 -15 -15 -8 0 -15 -7 -15 -15 0 -8 -7 -15 -15 -15 -8 0 -15 -7
-15 -15 0 -8 -7 -15 -15 -15 -8 0 -15 -7 -15 -15 0 -8 -7 -15 -15 -15 -8 0
-15 -5 -15 -11 0 -6 -47 -58 -104 -115 l-104 -104 -816 0 -816 0 0 600 c0 527
-2 600 -15 600 -11 0 -15 11 -15 40 0 29 -4 40 -15 40 -8 0 -15 7 -15 15 0 8
-7 15 -15 15 -10 0 -15 10 -15 30 0 20 -5 30 -15 30 -8 0 -15 7 -15 15 0 10
-10 15 -30 15 -20 0 -30 5 -30 15 0 8 -7 15 -15 15 -8 0 -15 7 -15 15 0 11
-11 15 -40 15 -29 0 -40 4 -40 15 0 13 -23 15 -150 15 l-150 0 0 615 c0 540 2
615 15 615 8 0 15 7 15 15 0 8 7 15 15 15 8 0 15 7 15 15 0 8 7 15 15 15 8 0
15 7 15 15 0 8 7 15 15 15 8 0 15 7 15 15 0 8 7 15 15 15 8 0 15 7 15 15 0 8
7 15 15 15 8 0 15 7 15 15 0 8 7 15 15 15 8 0 15 7 15 15 0 8 5 15 11 15 7 0
22 11 34 24 12 13 33 26 46 28 18 2 25 10 27 31 3 21 9 27 28 27 15 0 24 6 24
15 0 8 7 15 15 15 8 0 15 7 15 15 0 8 7 15 15 15 8 0 15 7 15 15 0 8 7 15 15
15 8 0 15 7 15 15 0 8 7 15 15 15 8 0 15 7 15 15 0 8 7 15 15 15 8 0 15 7 15
15 0 8 7 15 15 15 8 0 15 7 15 15 0 8 7 15 15 15 8 0 15 7 15 15 0 8 7 15 15
15 8 0 15 7 15 15 0 8 7 15 15 15 8 0 15 7 15 15 0 8 5 15 11 15 14 0 99 85
99 99 0 6 7 11 15 11 8 0 15 7 15 15 0 8 7 15 15 15 8 0 15 7 15 15 0 8 7 15
15 15 8 0 15 7 15 15 0 8 7 15 15 15 8 0 15 7 15 15 0 8 7 15 15 15 8 0 15 7
15 15 0 8 7 15 15 15 8 0 15 7 15 15 0 8 7 15 15 15 8 0 15 7 15 15 0 8 7 15
15 15 8 0 15 7 15 15 0 8 7 15 15 15 8 0 15 7 15 15 0 8 7 15 15 15 8 0 15 7
15 15 0 8 5 15 11 15 14 0 99 85 99 99 0 6 7 11 15 11 8 0 15 7 15 15 0 8 7
15 15 15 8 0 15 7 15 15 0 8 7 15 15 15 8 0 15 7 15 15 0 8 7 15 15 15 8 0 15
7 15 15 0 8 7 15 15 15 8 0 15 7 15 15 0 8 7 15 15 15 8 0 15 7 15 15 0 8 7
15 15 15 8 0 15 7 15 15 0 8 7 15 15 15 8 0 15 7 15 15 0 8 7 15 15 15 8 0 15
7 15 15 0 8 7 15 15 15 8 0 15 7 15 15 0 8 5 15 11 15 6 0 29 18 50 40 37 38
41 40 103 40 48 0 65 -4 70 -15 4 -12 30 -15 146 -15 116 0 142 3 146 15 4 10
20 15 45 15 28 0 39 4 39 15 0 10 10 15 30 15 20 0 30 5 30 15 0 8 7 15 15 15
8 0 15 7 15 15 0 10 10 15 30 15 20 0 30 5 30 15 0 8 7 15 15 15 8 0 15 7 15
15 0 8 7 15 15 15 8 0 15 7 15 15 0 8 7 15 15 15 8 0 15 7 15 15 0 8 7 15 15
15 10 0 15 10 15 30 0 20 5 30 15 30 10 0 15 10 15 30 0 20 5 30 15 30 11 0
15 11 15 40 0 22 5 40 10 40 6 0 10 62 10 165 0 103 -4 165 -10 165 -5 0 -10
11 -10 25 0 16 -6 25 -15 25 -10 0 -15 10 -15 30 0 20 -5 30 -15 30 -10 0 -15
10 -15 30 0 20 -5 30 -15 30 -8 0 -15 7 -15 15 0 8 -7 15 -15 15 -8 0 -15 7
-15 15 0 8 -7 15 -15 15 -8 0 -15 7 -15 15 0 8 -7 15 -15 15 -8 0 -15 7 -15
15 0 8 -7 15 -15 15 -8 0 -15 7 -15 15 0 10 -10 15 -30 15 -20 0 -30 5 -30 15
0 8 -7 15 -15 15 -8 0 -15 7 -15 15 0 11 -12 15 -45 15 -33 0 -45 4 -45 15 0
12 -14 15 -69 15 -52 0 -70 4 -75 15 -3 8 -17 15 -31 15 -16 0 -25 -6 -25 -15
0 -12 -16 -15 -85 -15 -67 0 -87 -3 -91 -15 -4 -8 -17 -15 -30 -15 -14 0 -27
-7 -30 -15 -4 -8 -17 -15 -30 -15 -15 0 -24 -6 -24 -15 0 -8 -7 -15 -15 -15
-8 0 -15 -7 -15 -15 0 -10 -10 -15 -30 -15 -20 0 -30 -5 -30 -15 0 -8 -7 -15
-15 -15 -8 0 -15 -7 -15 -15 0 -8 -7 -15 -15 -15 -10 0 -15 -10 -15 -30 0 -20
-5 -30 -15 -30 -8 0 -15 -7 -15 -15 0 -8 -7 -15 -15 -15 -10 0 -15 -10 -15
-30 0 -20 -5 -30 -15 -30 -9 0 -15 -9 -15 -24 0 -13 -7 -26 -15 -30 -11 -4
-15 -21 -15 -61 0 -42 -3 -55 -15 -55 -12 0 -15 -17 -15 -90 0 -73 3 -90 15
-90 12 0 15 -13 15 -55 0 -42 3 -55 15 -55 10 0 15 -10 15 -30 0 -20 5 -30 15
-30 11 0 15 -12 15 -45 0 -33 -4 -45 -15 -45 -8 0 -15 -7 -15 -15 0 -8 -7 -15
-15 -15 -8 0 -15 -7 -15 -15 0 -8 -7 -15 -15 -15 -8 0 -15 -7 -15 -15 0 -8 -7
-15 -15 -15 -8 0 -15 -7 -15 -15 0 -8 -7 -15 -15 -15 -8 0 -15 -5 -15 -11 0
-14 -145 -159 -159 -159 -6 0 -11 -7 -11 -15 0 -8 -7 -15 -15 -15 -8 0 -15 -7
-15 -15 0 -8 -7 -15 -15 -15 -8 0 -15 -7 -15 -15 0 -8 -7 -15 -15 -15 -8 0
-15 -7 -15 -15 0 -8 -7 -15 -15 -15 -8 0 -15 -7 -15 -15 0 -8 -7 -15 -15 -15
-8 0 -15 -7 -15 -15 0 -8 -7 -15 -15 -15 -8 0 -15 -7 -15 -15 0 -8 -7 -15 -15
-15 -8 0 -15 -7 -15 -15 0 -8 -7 -15 -15 -15 -8 0 -15 -5 -15 -11 0 -14 -145
-159 -159 -159 -6 0 -11 -7 -11 -15 0 -8 -7 -15 -15 -15 -8 0 -15 -7 -15 -15
0 -8 -7 -15 -15 -15 -8 0 -15 -7 -15 -15 0 -8 -7 -15 -15 -15 -8 0 -15 -7 -15
-15 0 -8 -7 -15 -15 -15 -8 0 -15 -7 -15 -15 0 -8 -7 -15 -15 -15 -8 0 -15 -7
-15 -15 0 -8 -7 -15 -15 -15 -8 0 -15 -7 -15 -15 0 -8 -7 -15 -15 -15 -8 0
-15 -7 -15 -15 0 -8 -9 -15 -20 -15 -11 0 -55 -36 -104 -85 -46 -47 -89 -85
-95 -85 -6 0 -11 -7 -11 -15 0 -8 -7 -15 -15 -15 -8 0 -15 -7 -15 -15 0 -8 -7
-15 -15 -15 -8 0 -15 -7 -15 -15 0 -8 -7 -15 -15 -15 -8 0 -15 -7 -15 -15 0
-8 -7 -15 -15 -15 -8 0 -15 -7 -15 -15 0 -8 -7 -15 -15 -15 -8 0 -15 -7 -15
-15 0 -8 -7 -15 -15 -15 -8 0 -15 -7 -15 -15 0 -8 -7 -15 -15 -15 -8 0 -15 -5
-15 -11 0 -14 -175 -189 -189 -189 -6 0 -11 -7 -11 -15 0 -8 -7 -15 -15 -15
-8 0 -15 -7 -15 -15 0 -8 -7 -15 -15 -15 -8 0 -15 -7 -15 -15 0 -8 -7 -15 -15
-15 -13 0 -15 -82 -15 -675 l0 -675 -280 0 -280 0 0 1185 c0 1047 2 1185 15
1185 10 0 15 10 15 30 0 20 5 30 15 30 8 0 15 7 15 15 0 8 7 15 15 15 8 0 15
7 15 15 0 8 7 15 15 15 8 0 15 -7 15 -15 0 -12 13 -15 60 -15 47 0 60 -3 60
-15 0 -13 21 -15 130 -15 109 0 130 2 130 15 0 11 12 15 45 15 33 0 45 4 45
15 0 10 10 15 30 15 20 0 30 5 30 15 0 8 7 15 15 15 8 0 15 7 15 15 0 8 7 15
15 15 8 0 15 7 15 15 0 10 10 15 30 15 20 0 30 5 30 15 0 8 7 15 15 15 9 0 15
10 15 26 0 26 20 54 39 54 6 0 11 7 11 15 0 8 7 15 15 15 10 0 15 10 15 30 0
20 5 30 15 30 12 0 15 13 15 60 0 47 3 60 15 60 13 0 15 21 15 129 0 105 -3
130 -15 135 -10 3 -15 19 -15 46 0 29 -4 40 -15 40 -10 0 -15 10 -15 30 0 20
-5 30 -15 30 -10 0 -15 10 -15 30 0 20 -5 30 -15 30 -8 0 -15 5 -15 11 0 20
-127 139 -149 139 -11 0 -21 5 -21 10 0 6 -7 10 -15 10 -8 0 -15 7 -15 15 0
11 -11 15 -40 15 -27 0 -43 5 -46 15 -5 11 -23 15 -75 15 -55 0 -69 3 -69 15
0 10 -10 15 -29 15 -16 0 -31 -6 -35 -15 -4 -12 -24 -15 -91 -15 -69 0 -85 -3
-85 -15 0 -10 -10 -15 -30 -15 -20 0 -30 -5 -30 -15 0 -10 -10 -15 -30 -15
-16 0 -30 -4 -30 -10 0 -5 -11 -10 -25 -10 -16 0 -25 -6 -25 -15 0 -8 -7 -15
-15 -15 -8 0 -15 -7 -15 -15 0 -8 -7 -15 -15 -15 -8 0 -15 -7 -15 -15 0 -8 -7
-15 -15 -15 -8 0 -15 -7 -15 -15 0 -8 -7 -15 -15 -15 -10 0 -15 -10 -15 -30 0
-20 -5 -30 -15 -30 -10 0 -15 -10 -15 -30 0 -20 -5 -30 -15 -30 -10 0 -15 -10
-15 -30 0 -20 -5 -30 -15 -30 -11 0 -15 -13 -15 -54 0 -39 -4 -55 -15 -60 -11
-4 -15 -22 -15 -76 0 -56 3 -70 15 -70 12 0 15 -13 15 -60 0 -47 3 -60 15 -60
11 0 15 -12 15 -45 0 -33 4 -45 15 -45 11 0 15 -11 15 -40 0 -29 -4 -40 -15
-40 -8 0 -15 -7 -15 -15 0 -8 -7 -15 -15 -15 -8 0 -15 -7 -15 -15 0 -8 -7 -15
-15 -15 -8 0 -15 -7 -15 -15 0 -8 -7 -15 -15 -15 -10 0 -15 -10 -15 -30 0 -20
-5 -30 -15 -30 -8 0 -15 -7 -15 -15 0 -8 -7 -15 -15 -15 -13 0 -15 -88 -15
-730 0 -642 2 -730 15 -730 13 0 15 -64 15 -515 l0 -515 -290 0 -290 0 0 1975
0 1975 -180 0 -180 0 0 -1110z m-3480 775 c0 -10 10 -15 30 -15 20 0 30 -5 30
-15 0 -8 7 -15 15 -15 8 0 15 -7 15 -15 0 -8 5 -15 11 -15 6 0 24 -13 40 -29
23 -23 29 -39 29 -70 0 -30 4 -41 15 -41 12 0 15 -15 15 -75 0 -60 -3 -75 -15
-75 -11 0 -15 -12 -15 -45 0 -25 -4 -45 -10 -45 -5 0 -10 -11 -10 -25 0 -16
-6 -25 -15 -25 -8 0 -15 -7 -15 -15 0 -8 -7 -15 -15 -15 -8 0 -15 -7 -15 -15
0 -10 -10 -15 -30 -15 -20 0 -30 -5 -30 -15 0 -10 -10 -15 -30 -15 -20 0 -30
-5 -30 -15 0 -12 -17 -15 -90 -15 -73 0 -90 3 -90 15 0 10 -10 15 -30 15 -20
0 -30 5 -30 15 0 8 -9 15 -20 15 -11 0 -37 18 -59 40 -21 22 -44 40 -50 40 -6
0 -11 14 -11 30 0 20 -5 30 -15 30 -12 0 -15 20 -15 120 0 100 3 120 15 120
10 0 15 10 15 30 0 20 5 30 15 30 8 0 15 9 15 20 0 26 34 60 60 60 11 0 23 7
26 15 4 8 17 15 30 15 15 0 24 6 24 15 0 13 20 15 120 15 100 0 120 -2 120
-15z m7620 0 c0 -8 9 -15 20 -15 11 0 37 -18 59 -40 21 -22 44 -40 50 -40 6 0
11 -7 11 -15 0 -8 7 -15 15 -15 11 0 15 -12 15 -45 0 -33 4 -45 15 -45 12 0
15 -17 15 -90 0 -73 -3 -90 -15 -90 -10 0 -15 -10 -15 -30 0 -20 -5 -30 -15
-30 -8 0 -15 -9 -15 -20 0 -25 -34 -60 -58 -60 -18 0 -52 -33 -52 -50 0 -6
-13 -10 -30 -10 -20 0 -30 -5 -30 -15 0 -12 -18 -15 -105 -15 -87 0 -105 3
-105 15 0 10 -10 15 -30 15 -20 0 -30 5 -30 15 0 10 -10 15 -30 15 -20 0 -30
5 -30 15 0 8 -7 15 -15 15 -9 0 -15 9 -15 25 0 14 -4 25 -10 25 -5 0 -10 7
-10 15 0 8 -7 15 -15 15 -12 0 -15 13 -15 60 0 47 -3 60 -15 60 -11 0 -15 12
-15 45 0 33 4 45 15 45 11 0 15 12 15 45 0 33 4 45 15 45 9 0 15 10 15 26 0
26 20 54 39 54 6 0 11 7 11 15 0 8 7 15 15 15 8 0 15 7 15 15 0 10 10 15 30
15 20 0 30 5 30 15 0 13 22 15 135 15 113 0 135 -2 135 -15z m-5220 -290 c0
-10 10 -15 30 -15 20 0 30 -5 30 -15 0 -8 7 -15 15 -15 8 0 15 -7 15 -15 0 -8
7 -15 15 -15 8 0 15 -7 15 -15 0 -8 7 -15 15 -15 10 0 15 -10 15 -30 0 -20 5
-30 15 -30 11 0 15 -11 15 -39 0 -25 5 -41 15 -45 11 -4 15 -21 15 -61 0 -42
-3 -55 -15 -55 -11 0 -15 -12 -15 -45 0 -33 -4 -45 -15 -45 -10 0 -15 -10 -15
-30 0 -20 -5 -30 -15 -30 -8 0 -15 -7 -15 -15 0 -8 -7 -15 -15 -15 -8 0 -15
-7 -15 -15 0 -10 -10 -15 -30 -15 -20 0 -30 -5 -30 -15 0 -10 -10 -15 -30 -15
-20 0 -30 -5 -30 -15 0 -12 -16 -15 -85 -15 -69 0 -85 3 -85 15 0 11 -12 15
-45 15 -33 0 -45 4 -45 15 0 8 -7 15 -15 15 -8 0 -15 7 -15 15 0 8 -7 15 -15
15 -8 0 -15 7 -15 15 0 8 -7 15 -15 15 -8 0 -15 7 -15 15 0 8 -7 15 -15 15
-10 0 -15 10 -15 30 0 20 -5 30 -15 30 -13 0 -15 21 -15 130 0 109 2 130 15
130 8 0 15 7 15 15 0 8 7 15 15 15 10 0 15 10 15 30 0 20 5 30 15 30 8 0 15 7
15 15 0 8 7 15 15 15 8 0 15 7 15 15 0 10 10 15 30 15 20 0 30 5 30 15 0 13
21 15 130 15 109 0 130 -2 130 -15z m2810 0 c0 -10 10 -15 30 -15 20 0 30 -5
30 -15 0 -8 7 -15 15 -15 8 0 15 -7 15 -15 0 -8 7 -15 15 -15 8 0 15 -7 15
-15 0 -8 7 -15 15 -15 10 0 15 -10 15 -30 0 -20 5 -30 15 -30 11 0 15 -11 15
-39 0 -25 5 -41 15 -45 10 -3 15 -19 15 -46 0 -29 -4 -40 -15 -40 -12 0 -15
-13 -15 -60 0 -47 -3 -60 -15 -60 -8 0 -15 -7 -15 -15 0 -8 -7 -15 -15 -15
-10 0 -15 -10 -15 -30 0 -20 -5 -30 -15 -30 -8 0 -15 -7 -15 -15 0 -10 -10
-15 -30 -15 -20 0 -30 -5 -30 -15 0 -11 -12 -15 -45 -15 -33 0 -45 -4 -45 -15
0 -12 -14 -15 -70 -15 -56 0 -70 3 -70 15 0 11 -12 15 -45 15 -33 0 -45 4 -45
15 0 8 -7 15 -15 15 -8 0 -15 7 -15 15 0 8 -7 15 -15 15 -8 0 -15 7 -15 15 0
8 -7 15 -15 15 -8 0 -15 7 -15 15 0 8 -7 15 -15 15 -10 0 -15 10 -15 30 0 20
-5 30 -15 30 -13 0 -15 21 -15 130 0 109 2 130 15 130 8 0 15 7 15 15 0 8 7
15 15 15 10 0 15 10 15 30 0 20 5 30 15 30 8 0 15 7 15 15 0 10 10 15 30 15
20 0 30 5 30 15 0 8 7 15 15 15 8 0 15 7 15 15 0 13 21 15 130 15 109 0 130
-2 130 -15z m-6940 -3280 c0 -10 10 -15 30 -15 20 0 30 -5 30 -15 0 -10 10
-15 30 -15 20 0 30 -5 30 -15 0 -8 7 -15 15 -15 8 0 15 -7 15 -15 0 -8 7 -15
15 -15 8 0 15 -7 15 -15 0 -8 7 -15 15 -15 10 0 15 -10 15 -30 0 -16 5 -30 10
-30 6 0 10 -50 10 -130 0 -80 -4 -130 -10 -130 -5 0 -10 -10 -10 -23 0 -13
-13 -33 -30 -47 -16 -14 -29 -31 -30 -37 0 -7 -7 -13 -15 -13 -8 0 -15 -7 -15
-15 0 -10 -10 -15 -30 -15 -20 0 -30 -5 -30 -15 0 -12 -13 -15 -60 -15 -47 0
-60 -3 -60 -15 0 -9 -9 -15 -25 -15 -14 0 -28 7 -31 15 -5 11 -21 15 -60 15
-41 0 -54 4 -54 15 0 10 -10 15 -30 15 -20 0 -30 5 -30 15 0 8 -7 15 -15 15
-8 0 -15 7 -15 15 0 8 -7 15 -15 15 -8 0 -15 7 -15 15 0 8 -7 15 -15 15 -10 0
-15 10 -15 30 0 20 -5 30 -15 30 -13 0 -15 21 -15 130 0 109 2 130 15 130 10
0 15 10 15 30 0 20 5 30 15 30 8 0 15 7 15 15 0 8 7 15 15 15 8 0 15 7 15 15
0 8 7 15 15 15 8 0 15 7 15 15 0 10 10 15 30 15 20 0 30 5 30 15 0 9 9 15 24
15 13 0 26 7 30 15 4 12 24 15 91 15 69 0 85 -3 85 -15z m10960 -150 c0 -11
13 -15 54 -15 39 0 55 -4 60 -15 3 -8 14 -15 25 -15 26 0 91 -65 91 -90 0 -11
7 -20 15 -20 10 0 15 -10 15 -30 0 -20 5 -30 15 -30 12 0 15 -18 15 -105 0
-87 -3 -105 -15 -105 -10 0 -15 -10 -15 -30 0 -20 -5 -30 -15 -30 -8 0 -15 -9
-15 -20 0 -25 -65 -90 -91 -90 -11 0 -22 -7 -25 -15 -5 -11 -21 -15 -60 -15
-41 0 -54 -4 -54 -15 0 -11 -12 -15 -45 -15 -33 0 -45 4 -45 15 0 11 -12 15
-45 15 -33 0 -45 4 -45 15 0 10 -10 15 -30 15 -20 0 -30 5 -30 15 0 8 -7 15
-15 15 -8 0 -15 7 -15 15 0 8 -7 15 -15 15 -9 0 -15 9 -15 24 0 13 -7 26 -15
30 -8 3 -15 17 -15 31 0 14 -4 25 -10 25 -6 0 -10 42 -10 105 0 63 4 105 10
105 6 0 10 11 10 25 0 14 7 28 15 31 8 4 15 17 15 30 0 15 6 24 15 24 8 0 15
7 15 15 0 8 7 15 15 15 8 0 15 7 15 15 0 10 10 15 30 15 20 0 30 5 30 15 0 11
12 15 45 15 33 0 45 4 45 15 0 11 12 15 45 15 33 0 45 -4 45 -15z m-6100 -950
l0 -235 -350 0 c-304 0 -350 -2 -350 -15 0 -8 -7 -15 -15 -15 -13 0 -15 -49
-15 -380 l0 -380 -250 0 -250 0 0 630 0 630 615 0 615 0 0 -235z m940 0 l0
-235 -395 0 -395 0 0 235 0 235 395 0 395 0 0 -235z m1410 -395 l0 -630 -250
0 c-216 0 -250 2 -250 15 0 8 -7 15 -15 15 -12 0 -15 19 -15 115 0 96 3 115
15 115 13 0 15 34 15 250 l0 250 -30 0 c-20 0 -30 5 -30 15 0 8 -7 15 -15 15
-8 0 -15 -7 -15 -15 0 -12 -14 -15 -70 -15 -54 0 -72 4 -76 15 -5 13 -44 15
-265 15 l-259 0 0 235 0 235 630 0 630 0 0 -630z m-3080 -1235 l0 -455 -247 2
-248 3 -3 453 -2 452 250 0 250 0 0 -455z m3050 425 c0 -20 5 -30 15 -30 13 0
15 -51 13 -422 l-3 -423 -262 -3 -263 -2 0 280 c0 242 2 280 15 280 13 0 15
26 15 175 l0 175 235 0 235 0 0 -30z m-3050 -1415 l0 -395 365 0 365 0 0 -250
0 -250 -615 0 -615 0 0 645 0 645 250 0 250 0 0 -395z m2640 380 c0 -13 29
-15 205 -15 l205 0 0 -45 c0 -33 4 -45 15 -45 13 0 15 -60 15 -480 0 -446 -1
-480 -17 -490 -17 -10 -17 -10 0 -20 21 -13 22 -30 2 -30 -8 0 -15 -6 -15 -14
0 -8 7 -16 15 -20 8 -3 15 -10 15 -16 0 -5 -7 -10 -15 -10 -11 0 -15 -12 -15
-45 l0 -45 -615 0 -615 0 0 235 0 235 30 0 c20 0 30 5 30 15 0 13 46 15 350
15 l350 0 0 55 c0 42 -3 55 -15 55 -12 0 -15 18 -15 105 0 87 3 105 15 105 13
0 15 33 15 235 l0 235 30 0 c20 0 30 -5 30 -15z m-6740 -380 c0 -10 10 -15 30
-15 20 0 30 -5 30 -15 0 -8 7 -15 15 -15 8 0 15 -7 15 -15 0 -8 7 -15 15 -15
8 0 15 -7 15 -15 0 -8 7 -15 15 -15 8 0 15 -7 15 -15 0 -8 7 -15 15 -15 10 0
15 -10 15 -30 0 -16 5 -30 10 -30 6 0 10 -45 10 -115 0 -70 -4 -115 -10 -115
-5 0 -10 -13 -10 -30 0 -20 -5 -30 -15 -30 -8 0 -15 -7 -15 -15 0 -8 -7 -15
-15 -15 -8 0 -15 -7 -15 -15 0 -8 -7 -15 -15 -15 -8 0 -15 -7 -15 -15 0 -8 -7
-15 -15 -15 -8 0 -15 -7 -15 -15 0 -10 -10 -15 -30 -15 -20 0 -30 -5 -30 -15
0 -12 -19 -15 -115 -15 -94 0 -117 3 -121 15 -4 8 -17 15 -30 15 -15 0 -24 6
-24 15 0 8 -7 15 -15 15 -8 0 -15 7 -15 15 0 10 -10 15 -30 15 -27 0 -30 3
-30 30 0 20 -5 30 -15 30 -8 0 -15 7 -15 15 0 8 -7 15 -15 15 -13 0 -15 23
-15 145 0 122 2 145 15 145 8 0 15 7 15 15 0 8 7 15 15 15 10 0 15 10 15 30 0
20 5 30 15 30 8 0 15 7 15 15 0 10 10 15 30 15 20 0 30 5 30 15 0 9 9 15 24
15 13 0 26 7 30 15 4 12 27 15 121 15 96 0 115 -3 115 -15z m10986 0 c4 -8 17
-15 30 -15 15 0 24 -6 24 -15 0 -10 10 -15 30 -15 20 0 30 -5 30 -15 0 -8 7
-15 15 -15 8 0 15 -7 15 -15 0 -8 7 -15 15 -15 8 0 15 -7 15 -15 0 -8 7 -15
15 -15 11 0 15 -12 15 -45 0 -33 4 -45 15 -45 12 0 15 -16 15 -85 0 -69 -3
-85 -15 -85 -11 0 -15 -12 -15 -45 0 -33 -4 -45 -15 -45 -8 0 -15 -7 -15 -15
0 -8 -7 -15 -15 -15 -8 0 -15 -7 -15 -15 0 -8 -7 -15 -15 -15 -8 0 -15 -7 -15
-15 0 -8 -7 -15 -15 -15 -8 0 -15 -7 -15 -15 0 -9 -9 -15 -24 -15 -13 0 -26
-7 -30 -15 -4 -12 -27 -15 -121 -15 -96 0 -115 3 -115 15 0 10 -10 15 -30 15
-20 0 -30 5 -30 15 0 8 -7 15 -15 15 -8 0 -15 7 -15 15 0 8 -7 15 -15 15 -8 0
-15 7 -15 15 0 8 -7 15 -15 15 -8 0 -15 7 -15 15 0 8 -7 15 -15 15 -10 0 -15
10 -15 30 0 17 -4 30 -10 30 -6 0 -10 45 -10 115 0 70 4 115 10 115 6 0 10 14
10 30 0 20 5 30 15 30 8 0 15 7 15 15 0 8 7 15 15 15 8 0 15 7 15 15 0 8 7 15
15 15 8 0 15 7 15 15 0 8 7 15 15 15 8 0 15 7 15 15 0 11 12 15 45 15 33 0 45
4 45 15 0 12 16 15 85 15 67 0 87 -3 91 -15z m-5246 -410 c0 -8 7 -15 15 -15
13 0 15 -33 15 -235 l0 -235 -395 0 -395 0 0 235 0 235 90 0 c73 0 90 3 90 15
0 13 39 15 290 15 251 0 290 -2 290 -15z m-5740 -1965 c0 -5 9 -10 21 -10 13
0 48 -27 90 -69 60 -60 69 -74 69 -105 0 -20 5 -36 10 -36 6 0 10 -32 10 -75
0 -43 -4 -75 -10 -75 -5 0 -10 -18 -10 -40 0 -29 -4 -40 -15 -40 -10 0 -15
-10 -15 -30 0 -20 -5 -30 -15 -30 -8 0 -15 -7 -15 -15 0 -8 -7 -15 -15 -15 -8
0 -15 -7 -15 -15 0 -10 -10 -15 -30 -15 -20 0 -30 -5 -30 -15 0 -10 -10 -15
-30 -15 -20 0 -30 -5 -30 -15 0 -12 -18 -15 -105 -15 -87 0 -105 3 -105 15 0
9 -9 15 -25 15 -16 0 -25 6 -25 15 0 10 -10 15 -30 15 -20 0 -30 5 -30 15 0 8
-7 15 -15 15 -10 0 -15 10 -15 30 0 20 -5 30 -15 30 -8 0 -15 7 -15 15 0 8 -7
15 -15 15 -13 0 -15 23 -15 145 0 122 2 145 15 145 10 0 15 10 15 30 0 20 5
30 15 30 8 0 15 7 15 15 0 8 7 15 15 15 8 0 15 7 15 15 0 8 7 15 15 15 8 0 15
7 15 15 0 10 10 15 30 15 17 0 30 5 30 10 0 6 50 10 130 10 80 0 130 -4 130
-10z m11020 0 c0 -5 11 -10 25 -10 16 0 25 -6 25 -15 0 -8 7 -15 15 -15 8 0
15 -7 15 -15 0 -8 7 -15 15 -15 8 0 15 -7 15 -15 0 -8 7 -15 15 -15 8 0 15 -7
15 -15 0 -8 7 -15 15 -15 11 0 15 -12 15 -45 0 -33 4 -45 15 -45 12 0 15 -17
15 -90 0 -73 -3 -90 -15 -90 -11 0 -15 -11 -15 -40 0 -29 -4 -40 -15 -40 -8 0
-15 -7 -15 -15 0 -8 -7 -15 -15 -15 -8 0 -15 -7 -15 -15 0 -8 -7 -15 -15 -15
-8 0 -15 -7 -15 -15 0 -9 -9 -15 -25 -15 -14 0 -28 -7 -31 -15 -4 -8 -17 -15
-30 -15 -15 0 -24 -6 -24 -15 0 -12 -17 -15 -90 -15 -73 0 -90 3 -90 15 0 11
-12 15 -45 15 -33 0 -45 4 -45 15 0 8 -7 15 -15 15 -8 0 -15 7 -15 15 0 8 -7
15 -15 15 -8 0 -15 7 -15 15 0 8 -7 15 -15 15 -8 0 -15 7 -15 15 0 8 -7 15
-15 15 -9 0 -15 9 -15 25 0 14 -4 25 -10 25 -6 0 -10 47 -10 120 0 73 4 120
10 120 6 0 10 11 10 25 0 14 7 28 15 31 8 4 15 15 15 26 0 27 40 68 66 68 12
0 24 7 28 15 3 8 17 15 31 15 14 0 25 5 25 10 0 6 47 10 120 10 73 0 120 -4
120 -10z m-9350 -1375 c0 -10 10 -15 30 -15 20 0 30 -5 30 -15 0 -10 10 -15
30 -15 20 0 30 -5 30 -15 0 -8 7 -15 15 -15 8 0 15 -7 15 -15 0 -8 7 -15 15
-15 10 0 15 -10 15 -30 0 -16 5 -30 10 -30 6 0 10 -11 10 -25 0 -14 7 -28 15
-31 12 -5 15 -25 15 -89 0 -64 -3 -84 -15 -89 -10 -3 -15 -19 -15 -42 0 -26
-7 -43 -25 -60 -14 -13 -25 -28 -25 -34 0 -5 -7 -10 -15 -10 -8 0 -15 -7 -15
-15 0 -8 -7 -15 -15 -15 -8 0 -15 -7 -15 -15 0 -10 -10 -15 -30 -15 -20 0 -30
-5 -30 -15 0 -12 -19 -15 -115 -15 -94 0 -117 3 -121 15 -4 8 -17 15 -30 15
-15 0 -24 6 -24 15 0 8 -7 15 -15 15 -8 0 -15 7 -15 15 0 8 -7 15 -15 15 -8 0
-15 7 -15 15 0 8 -7 15 -15 15 -8 0 -15 7 -15 15 0 8 -7 15 -15 15 -10 0 -15
10 -15 30 0 20 -5 30 -15 30 -12 0 -15 19 -15 115 0 96 3 115 15 115 10 0 15
10 15 30 0 20 5 30 15 30 8 0 15 7 15 15 0 8 7 15 15 15 8 0 15 7 15 15 0 8 7
15 15 15 8 0 15 7 15 15 0 8 7 15 15 15 8 0 15 7 15 15 0 11 11 15 39 15 25 0
41 5 45 15 4 12 24 15 91 15 69 0 85 -3 85 -15z m7616 0 c4 -8 17 -15 30 -15
14 0 27 -7 30 -15 4 -8 17 -15 30 -15 15 0 24 -6 24 -15 0 -8 7 -15 15 -15 8
0 15 -7 15 -15 0 -8 7 -15 15 -15 10 0 15 -10 15 -30 0 -20 5 -30 15 -30 10 0
15 -10 15 -30 0 -20 5 -30 15 -30 12 0 15 -16 15 -85 0 -69 -3 -85 -15 -85
-11 0 -15 -12 -15 -45 0 -33 -4 -45 -15 -45 -8 0 -15 -7 -15 -15 0 -8 -7 -15
-15 -15 -8 0 -15 -7 -15 -15 0 -8 -7 -15 -15 -15 -8 0 -15 -7 -15 -15 0 -8 -7
-15 -15 -15 -8 0 -15 -7 -15 -15 0 -9 -9 -15 -24 -15 -13 0 -26 -7 -30 -15 -4
-11 -22 -15 -76 -15 -56 0 -70 -3 -70 -15 0 -8 -7 -15 -15 -15 -8 0 -15 7 -15
15 0 11 -12 15 -45 15 -33 0 -45 4 -45 15 0 10 -10 15 -30 15 -16 0 -30 5 -30
10 0 6 -18 27 -40 49 -22 21 -40 44 -40 50 0 6 -7 11 -15 11 -11 0 -15 11 -15
40 0 27 -5 43 -15 46 -11 5 -15 23 -15 74 0 51 4 69 15 74 9 3 15 19 15 41 0
25 7 43 25 59 14 13 25 33 25 45 0 12 7 24 15 27 8 4 15 12 15 20 0 9 11 14
30 14 20 0 30 5 30 15 0 11 12 15 45 15 33 0 45 4 45 15 0 12 16 15 85 15 67
0 87 -3 91 -15z m-6092 -1060 c3 -8 17 -15 31 -15 16 0 25 -6 25 -15 0 -8 5
-15 10 -15 6 0 21 -11 34 -25 13 -14 28 -25 35 -25 6 0 11 -7 11 -15 0 -8 7
-15 15 -15 10 0 15 -10 15 -30 0 -20 5 -30 15 -30 12 0 15 -18 15 -105 0 -87
-3 -105 -15 -105 -11 0 -15 -11 -15 -38 0 -36 -25 -72 -50 -72 -6 0 -10 -7
-10 -15 0 -8 -7 -15 -15 -15 -8 0 -15 -7 -15 -15 0 -10 -10 -15 -30 -15 -20 0
-30 -5 -30 -15 0 -9 -9 -15 -25 -15 -14 0 -28 -7 -31 -15 -5 -12 -25 -15 -90
-15 -68 0 -84 3 -84 15 0 10 -10 15 -30 15 -20 0 -30 5 -30 15 0 10 -10 15
-30 15 -20 0 -30 5 -30 15 0 8 -7 15 -15 15 -8 0 -15 7 -15 15 0 8 -4 15 -10
15 -19 0 -50 35 -50 56 0 12 -7 24 -15 28 -12 4 -15 27 -15 121 0 96 3 115 15
115 9 0 15 9 15 25 0 14 7 28 15 31 8 4 15 17 15 30 0 15 6 24 15 24 8 0 15 7
15 15 0 10 10 15 30 15 20 0 30 5 30 15 0 10 10 15 30 15 20 0 30 5 30 15 0
12 19 15 114 15 92 0 115 -3 120 -15z m4626 0 c0 -10 10 -15 30 -15 20 0 30
-5 30 -15 0 -8 7 -15 15 -15 8 0 15 -7 15 -15 0 -8 5 -15 10 -15 20 0 80 -67
80 -89 0 -12 6 -21 15 -21 12 0 15 -18 15 -100 0 -80 -3 -102 -15 -106 -8 -4
-15 -17 -15 -30 0 -14 -7 -27 -15 -30 -8 -4 -15 -17 -15 -30 0 -15 -6 -24 -15
-24 -8 0 -15 -7 -15 -15 0 -8 -7 -15 -15 -15 -8 0 -15 -7 -15 -15 0 -10 -10
-15 -30 -15 -20 0 -30 -5 -30 -15 0 -10 -10 -15 -30 -15 -20 0 -30 -5 -30 -15
0 -12 -16 -15 -84 -15 -65 0 -85 3 -90 15 -3 8 -17 15 -31 15 -16 0 -25 6 -25
15 0 10 -10 15 -30 15 -20 0 -30 5 -30 15 0 8 -7 15 -15 15 -8 0 -15 7 -15 15
0 8 -4 15 -10 15 -19 0 -50 35 -50 57 0 14 -6 23 -15 23 -12 0 -15 20 -15 120
0 100 3 120 15 120 10 0 15 10 15 30 0 20 5 30 15 30 8 0 15 7 15 15 0 8 5 15
11 15 7 0 22 11 35 25 13 14 28 25 34 25 5 0 10 7 10 15 0 9 9 15 25 15 14 0
28 7 31 15 5 12 28 15 120 15 95 0 114 -3 114 -15z"/>
<path d="M13330 18150 l0 -510 130 0 130 0 2 393 3 392 368 3 367 2 0 115 0
115 -500 0 -500 0 0 -510z"/>
<path d="M14740 18545 l0 -115 240 0 c290 0 280 -4 280 115 0 119 10 115 -280
115 l-240 0 0 -115z"/>
<path d="M15670 18545 l0 -115 368 -2 367 -3 3 -392 2 -393 115 0 115 0 0 510
0 510 -485 0 -485 0 0 -115z"/>
<path d="M13360 17245 c0 -8 -7 -15 -15 -15 -13 0 -15 -43 -15 -325 l0 -325
130 0 130 0 0 325 c0 282 -2 325 -15 325 -8 0 -15 7 -15 15 0 12 -18 15 -100
15 -82 0 -100 -3 -100 -15z"/>
<path d="M16440 17245 c0 -8 -7 -15 -15 -15 -13 0 -15 -43 -15 -325 l0 -325
115 0 115 0 0 340 0 340 -100 0 c-82 0 -100 -3 -100 -15z"/>
<path d="M13330 15675 c0 -433 2 -495 15 -495 8 0 15 -7 15 -15 0 -13 28 -15
190 -15 162 0 190 2 190 15 0 13 39 15 295 15 l295 0 0 100 0 100 -370 0 -370
0 0 395 0 395 -130 0 -130 0 0 -495z"/>
<path d="M16410 15775 l0 -395 -370 0 -370 0 0 -115 0 -115 470 0 c411 0 470
2 470 15 0 8 7 15 15 15 13 0 15 62 15 495 l0 495 -115 0 -115 0 0 -395z"/>
<path d="M14740 15280 l0 -100 260 0 260 0 0 80 c0 125 11 120 -280 120 l-240
0 0 -100z"/>
<path d="M9404 22135 c-5 -11 -21 -15 -60 -15 -41 0 -54 -4 -54 -15 0 -10 -10
-15 -30 -15 -20 0 -30 -5 -30 -15 0 -10 -10 -15 -30 -15 -20 0 -30 -5 -30 -15
0 -10 -10 -15 -30 -15 -20 0 -30 -5 -30 -15 0 -8 -7 -15 -15 -15 -8 0 -15 -7
-15 -15 0 -8 -7 -15 -15 -15 -8 0 -15 -7 -15 -15 0 -8 -7 -15 -15 -15 -8 0
-15 -7 -15 -15 0 -8 -7 -15 -15 -15 -8 0 -15 -9 -15 -20 0 -12 -11 -31 -25
-44 -14 -14 -25 -34 -25 -50 0 -16 -5 -26 -15 -26 -12 0 -15 -13 -15 -60 0
-47 -3 -60 -15 -60 -12 0 -15 -19 -15 -114 0 -92 3 -115 15 -120 10 -3 15 -19
15 -45 0 -25 5 -41 15 -45 8 -3 15 -17 15 -31 0 -14 5 -25 10 -25 6 0 10 -10
10 -23 0 -13 13 -33 30 -47 16 -14 29 -31 30 -37 0 -7 7 -13 15 -13 9 0 15 -9
15 -21 0 -28 40 -69 68 -69 12 0 22 -4 22 -10 0 -5 7 -10 15 -10 8 0 15 -7 15
-15 0 -9 9 -15 25 -15 14 0 28 -7 31 -15 4 -10 20 -15 45 -15 26 0 42 -5 45
-15 5 -12 33 -15 165 -15 135 0 159 2 159 15 0 11 12 15 45 15 33 0 45 4 45
15 0 11 11 15 40 15 29 0 40 -4 40 -15 0 -8 7 -15 15 -15 8 0 15 -7 15 -15 0
-8 7 -15 15 -15 8 0 15 -7 15 -15 0 -8 7 -15 15 -15 8 0 15 -7 15 -15 0 -8 7
-15 15 -15 8 0 15 -7 15 -15 0 -8 7 -15 15 -15 8 0 15 -7 15 -15 0 -8 7 -15
15 -15 8 0 15 -7 15 -15 0 -8 7 -15 15 -15 8 0 15 -7 15 -15 0 -8 7 -15 15
-15 8 0 15 -7 15 -15 0 -8 7 -15 15 -15 8 0 15 -7 15 -15 0 -8 7 -15 15 -15 8
0 15 -7 15 -15 0 -8 7 -15 15 -15 8 0 15 -7 15 -15 0 -8 5 -15 11 -15 14 0 69
-55 69 -69 0 -6 7 -11 15 -11 8 0 15 -7 15 -15 0 -8 7 -15 15 -15 8 0 15 -7
15 -15 0 -8 7 -15 15 -15 8 0 15 -7 15 -15 0 -8 7 -15 15 -15 8 0 15 -7 15
-15 0 -8 7 -15 15 -15 8 0 15 -7 15 -15 0 -8 7 -15 15 -15 8 0 15 -7 15 -15 0
-8 7 -15 15 -15 8 0 15 -7 15 -15 0 -8 7 -15 15 -15 8 0 15 -7 15 -15 0 -10
10 -15 30 -15 27 0 30 -3 30 -30 0 -20 5 -30 15 -30 8 0 15 -7 15 -15 0 -10
10 -15 30 -15 17 0 30 -5 30 -11 0 -14 25 -39 39 -39 6 0 11 -7 11 -15 0 -8 7
-15 15 -15 8 0 15 -7 15 -15 0 -8 7 -15 15 -15 8 0 15 -7 15 -15 0 -8 7 -15
15 -15 10 0 15 -10 15 -30 0 -27 3 -30 30 -30 20 0 30 -5 30 -15 0 -8 7 -15
15 -15 8 0 15 -7 15 -15 0 -8 7 -15 15 -15 8 0 15 -7 15 -15 0 -8 7 -15 15
-15 8 0 15 -7 15 -15 0 -8 7 -15 15 -15 8 0 15 -7 15 -15 0 -8 7 -15 15 -15 8
0 15 -7 15 -15 0 -8 7 -15 15 -15 8 0 15 -7 15 -15 0 -8 7 -15 15 -15 8 0 15
-5 15 -11 0 -14 25 -39 39 -39 6 0 11 -7 11 -15 0 -8 7 -15 15 -15 8 0 15 -7
15 -15 0 -8 7 -15 15 -15 8 0 15 -7 15 -15 0 -8 7 -15 15 -15 8 0 15 -7 15
-15 0 -8 7 -15 15 -15 8 0 15 -7 15 -15 0 -8 7 -15 15 -15 8 0 15 -7 15 -15 0
-8 7 -15 15 -15 8 0 15 -7 15 -15 0 -8 7 -15 15 -15 8 0 15 -7 15 -15 0 -8 7
-15 15 -15 8 0 15 -7 15 -15 0 -13 54 -15 425 -15 371 0 425 2 425 15 0 8 7
15 15 15 13 0 15 23 15 145 0 122 -2 145 -15 145 -8 0 -15 7 -15 15 0 13 -47
15 -365 15 -318 0 -365 2 -365 15 0 8 -7 15 -15 15 -8 0 -15 7 -15 15 0 8 -7
15 -15 15 -8 0 -15 7 -15 15 0 8 -7 15 -15 15 -8 0 -15 7 -15 15 0 8 -7 15
-15 15 -8 0 -15 7 -15 15 0 8 -7 15 -15 15 -8 0 -15 7 -15 15 0 8 -7 15 -15
15 -8 0 -15 7 -15 15 0 8 -7 15 -15 15 -8 0 -15 7 -15 15 0 8 -7 15 -15 15 -8
0 -15 7 -15 15 0 8 -7 15 -15 15 -8 0 -15 7 -15 15 0 8 -7 15 -15 15 -8 0 -15
7 -15 15 0 8 -5 15 -11 15 -14 0 -99 85 -99 99 0 6 -7 11 -15 11 -8 0 -15 7
-15 15 0 8 -7 15 -15 15 -8 0 -15 7 -15 15 0 8 -7 15 -15 15 -8 0 -15 7 -15
15 0 8 -7 15 -15 15 -8 0 -15 7 -15 15 0 10 -10 15 -30 15 -20 0 -30 5 -30 15
0 8 -7 15 -15 15 -8 0 -15 7 -15 15 0 8 -7 15 -15 15 -8 0 -15 7 -15 15 0 8
-7 15 -15 15 -8 0 -15 7 -15 15 0 8 -7 15 -15 15 -8 0 -15 7 -15 15 0 8 -7 15
-15 15 -8 0 -15 7 -15 15 0 8 -5 15 -11 15 -14 0 -69 55 -69 69 0 6 -7 11 -15
11 -8 0 -15 7 -15 15 0 8 -7 15 -15 15 -8 0 -15 7 -15 15 0 8 -7 15 -15 15 -8
0 -15 7 -15 15 0 8 -7 15 -15 15 -8 0 -15 7 -15 15 0 8 -7 15 -15 15 -8 0 -15
7 -15 15 0 8 -7 15 -15 15 -8 0 -15 7 -15 15 0 8 -7 15 -15 15 -8 0 -15 7 -15
15 0 8 -7 15 -15 15 -8 0 -15 7 -15 15 0 8 -7 15 -15 15 -8 0 -15 7 -15 15 0
8 -7 15 -15 15 -8 0 -15 7 -15 15 0 8 -7 15 -15 15 -8 0 -15 7 -15 15 0 8 -7
15 -15 15 -8 0 -15 7 -15 15 0 8 -5 15 -11 15 -14 0 -39 25 -39 39 0 6 -7 11
-15 11 -8 0 -15 7 -15 15 0 8 -7 15 -15 15 -8 0 -15 7 -15 15 0 8 -7 15 -15
15 -8 0 -15 7 -15 15 0 8 -7 15 -15 15 -8 0 -15 7 -15 15 0 8 -7 15 -15 15 -8
0 -15 7 -15 15 0 8 -7 15 -15 15 -8 0 -15 7 -15 15 0 8 7 15 15 15 12 0 15 13
15 60 0 47 3 60 15 60 13 0 15 26 15 175 0 149 -2 175 -15 175 -10 0 -15 10
-15 30 0 20 -5 30 -15 30 -10 0 -15 10 -15 30 0 17 -5 30 -11 30 -6 0 -29 18
-50 40 -22 22 -43 40 -49 40 -5 0 -10 7 -10 15 0 8 -7 15 -15 15 -8 0 -15 7
-15 15 0 8 -7 15 -15 15 -8 0 -15 5 -15 10 0 17 -39 50 -60 50 -11 0 -20 7
-20 15 0 10 -10 15 -30 15 -20 0 -30 5 -30 15 0 12 -13 15 -60 15 -47 0 -60 3
-60 15 0 12 -16 15 -85 15 -67 0 -87 -3 -91 -15z m146 -265 c0 -5 17 -10 38
-10 30 0 43 -6 62 -30 14 -16 33 -29 44 -30 25 0 66 -41 66 -66 0 -12 7 -24
15 -28 8 -3 15 -17 15 -31 0 -14 5 -25 10 -25 6 0 10 -45 10 -115 0 -70 -4
-115 -10 -115 -5 0 -10 -13 -10 -30 0 -20 -5 -30 -15 -30 -8 0 -15 -7 -15 -15
0 -8 -7 -15 -15 -15 -8 0 -15 -7 -15 -15 0 -8 -7 -15 -15 -15 -8 0 -15 -7 -15
-15 0 -8 -7 -15 -15 -15 -8 0 -15 -7 -15 -15 0 -11 -12 -15 -45 -15 -33 0 -45
-4 -45 -15 0 -12 -18 -15 -100 -15 -80 0 -102 3 -106 15 -4 8 -17 15 -30 15
-15 0 -24 6 -24 15 0 8 -7 15 -15 15 -8 0 -15 7 -15 15 0 8 -7 15 -15 15 -8 0
-15 7 -15 15 0 8 -7 15 -15 15 -8 0 -15 7 -15 15 0 8 -7 15 -15 15 -10 0 -15
10 -15 30 0 20 -5 30 -15 30 -13 0 -15 21 -15 130 0 109 2 130 15 130 10 0 15
10 15 30 0 20 5 30 15 30 8 0 15 7 15 15 0 8 7 15 15 15 8 0 15 7 15 15 0 8 7
15 15 15 8 0 15 7 15 15 0 10 10 15 30 15 20 0 30 5 30 15 0 11 11 15 40 15
22 0 40 5 40 10 0 6 27 10 60 10 33 0 60 -4 60 -10z"/>
<path d="M20450 22135 c0 -12 -15 -15 -75 -15 -60 0 -75 -3 -75 -15 0 -10 -10
-15 -30 -15 -20 0 -30 -5 -30 -15 0 -8 -9 -15 -20 -15 -21 0 -60 -33 -60 -50
0 -5 -7 -10 -15 -10 -8 0 -15 -7 -15 -15 0 -8 -7 -15 -15 -15 -8 0 -15 -7 -15
-15 0 -8 -4 -15 -10 -15 -17 0 -80 -70 -80 -90 0 -11 -7 -20 -15 -20 -10 0
-15 -10 -15 -30 0 -20 -5 -30 -15 -30 -11 0 -15 -12 -15 -45 0 -33 -4 -45 -15
-45 -13 0 -15 -24 -15 -160 0 -136 2 -160 15 -160 11 0 15 -12 15 -45 0 -33 4
-45 15 -45 8 0 15 -7 15 -15 0 -8 -7 -15 -15 -15 -8 0 -15 -7 -15 -15 0 -8 -7
-15 -15 -15 -8 0 -15 -7 -15 -15 0 -8 -7 -15 -15 -15 -8 0 -15 -7 -15 -15 0
-8 -7 -15 -15 -15 -8 0 -15 -7 -15 -15 0 -8 -7 -15 -15 -15 -8 0 -15 -7 -15
-15 0 -8 -7 -15 -15 -15 -8 0 -15 -5 -15 -11 0 -14 -25 -39 -39 -39 -6 0 -11
-7 -11 -15 0 -8 -7 -15 -15 -15 -8 0 -15 -7 -15 -15 0 -8 -7 -15 -15 -15 -8 0
-15 -7 -15 -15 0 -8 -7 -15 -15 -15 -8 0 -15 -7 -15 -15 0 -8 -7 -15 -15 -15
-8 0 -15 -7 -15 -15 0 -8 -7 -15 -15 -15 -8 0 -15 -7 -15 -15 0 -8 -7 -15 -15
-15 -8 0 -15 -7 -15 -15 0 -8 -7 -15 -15 -15 -8 0 -15 -7 -15 -15 0 -8 -7 -15
-15 -15 -8 0 -15 -7 -15 -15 0 -8 -7 -15 -15 -15 -8 0 -15 -7 -15 -15 0 -10
-10 -15 -30 -15 -27 0 -30 -3 -30 -30 0 -20 -5 -30 -15 -30 -8 0 -15 -5 -15
-11 0 -14 -55 -69 -69 -69 -6 0 -11 -7 -11 -15 0 -8 -7 -15 -15 -15 -8 0 -15
-7 -15 -15 0 -10 -10 -15 -30 -15 -20 0 -30 -5 -30 -15 0 -8 -7 -15 -15 -15
-8 0 -15 -7 -15 -15 0 -8 -7 -15 -15 -15 -8 0 -15 -7 -15 -15 0 -8 -7 -15 -15
-15 -8 0 -15 -7 -15 -15 0 -8 -7 -15 -15 -15 -8 0 -15 -7 -15 -15 0 -8 -7 -15
-15 -15 -8 0 -15 -7 -15 -15 0 -8 -7 -15 -15 -15 -8 0 -15 -7 -15 -15 0 -8 -7
-15 -15 -15 -8 0 -15 -7 -15 -15 0 -8 -7 -15 -15 -15 -8 0 -15 -5 -15 -11 0
-14 -85 -99 -99 -99 -6 0 -11 -7 -11 -15 0 -8 -7 -15 -15 -15 -8 0 -15 -7 -15
-15 0 -8 -7 -15 -15 -15 -8 0 -15 -7 -15 -15 0 -8 -7 -15 -15 -15 -8 0 -15 -7
-15 -15 0 -8 -7 -15 -15 -15 -8 0 -15 -7 -15 -15 0 -8 -7 -15 -15 -15 -8 0
-15 -7 -15 -15 0 -8 -7 -15 -15 -15 -8 0 -15 -7 -15 -15 0 -8 -7 -15 -15 -15
-8 0 -15 -7 -15 -15 0 -8 -7 -15 -15 -15 -8 0 -15 -7 -15 -15 0 -8 -7 -15 -15
-15 -8 0 -15 -7 -15 -15 0 -8 -7 -15 -15 -15 -8 0 -15 -7 -15 -15 0 -8 -7 -15
-15 -15 -8 0 -15 -5 -15 -11 0 -14 -55 -69 -69 -69 -6 0 -11 -7 -11 -15 0 -8
-7 -15 -15 -15 -8 0 -15 -7 -15 -15 0 -8 -7 -15 -15 -15 -8 0 -15 -7 -15 -15
0 -8 -7 -15 -15 -15 -8 0 -15 -7 -15 -15 0 -8 -7 -15 -15 -15 -8 0 -15 -7 -15
-15 0 -8 -7 -15 -15 -15 -8 0 -15 -7 -15 -15 0 -10 -10 -15 -30 -15 -27 0 -30
-3 -30 -30 0 -20 -5 -30 -15 -30 -8 0 -15 -7 -15 -15 0 -8 -7 -15 -15 -15 -8
0 -15 -7 -15 -15 0 -10 -10 -15 -30 -15 -16 0 -30 -5 -30 -11 0 -6 -20 -30
-44 -55 -25 -24 -49 -44 -55 -44 -6 0 -11 -7 -11 -15 0 -8 -7 -15 -15 -15 -8
0 -15 -7 -15 -15 0 -8 -7 -15 -15 -15 -8 0 -15 -7 -15 -15 0 -8 -7 -15 -15
-15 -8 0 -15 -7 -15 -15 0 -8 -7 -15 -15 -15 -10 0 -15 -10 -15 -30 0 -20 5
-30 15 -30 8 0 15 -7 15 -15 0 -8 7 -15 15 -15 8 0 15 -7 15 -15 0 -8 7 -15
15 -15 8 0 15 -7 15 -15 0 -8 7 -15 15 -15 8 0 15 -7 15 -15 0 -8 7 -15 15
-15 8 0 15 -7 15 -15 0 -8 7 -15 15 -15 8 0 15 -7 15 -15 0 -8 7 -15 15 -15 8
0 15 -7 15 -15 0 -9 9 -15 25 -15 16 0 25 6 25 15 0 8 7 15 15 15 8 0 15 7 15
15 0 8 7 15 15 15 8 0 15 7 15 15 0 8 7 15 15 15 8 0 15 7 15 15 0 8 7 15 15
15 8 0 15 7 15 15 0 8 7 15 15 15 8 0 15 7 15 15 0 8 7 15 15 15 8 0 15 7 15
15 0 8 7 15 15 15 8 0 15 7 15 15 0 8 7 15 15 15 8 0 15 7 15 15 0 8 7 15 15
15 8 0 15 7 15 15 0 8 7 15 15 15 8 0 15 7 15 15 0 8 7 15 15 15 8 0 15 7 15
15 0 8 7 15 15 15 8 0 15 5 15 11 0 14 25 39 39 39 6 0 11 7 11 15 0 8 7 15
15 15 8 0 15 7 15 15 0 8 7 15 15 15 8 0 15 7 15 15 0 8 7 15 15 15 8 0 15 7
15 15 0 8 7 15 15 15 8 0 15 7 15 15 0 8 7 15 15 15 8 0 15 7 15 15 0 8 7 15
15 15 8 0 15 7 15 15 0 8 7 15 15 15 8 0 15 7 15 15 0 8 7 15 15 15 8 0 15 7
15 15 0 8 7 15 15 15 8 0 15 7 15 15 0 8 7 15 15 15 8 0 15 7 15 15 0 8 7 15
15 15 8 0 15 7 15 15 0 8 7 15 15 15 8 0 15 7 15 15 0 8 5 15 11 15 14 0 39
25 39 39 0 6 7 11 15 11 8 0 15 7 15 15 0 8 7 15 15 15 8 0 15 7 15 15 0 8 7
15 15 15 8 0 15 7 15 15 0 8 7 15 15 15 8 0 15 7 15 15 0 8 7 15 15 15 8 0 15
7 15 15 0 8 7 15 15 15 8 0 15 7 15 15 0 8 7 15 15 15 8 0 15 7 15 15 0 8 7
15 15 15 8 0 15 7 15 15 0 8 7 15 15 15 8 0 15 7 15 15 0 8 7 15 15 15 8 0 15
7 15 15 0 8 7 15 15 15 8 0 15 7 15 15 0 8 7 15 15 15 8 0 15 7 15 15 0 8 5
15 11 15 14 0 39 25 39 39 0 6 7 11 15 11 8 0 15 7 15 15 0 10 10 15 30 15 27
0 30 3 30 30 0 20 5 30 15 30 8 0 15 7 15 15 0 8 7 15 15 15 8 0 15 7 15 15 0
10 10 15 30 15 27 0 30 3 30 30 0 20 5 30 15 30 8 0 15 7 15 15 0 10 10 15 30
15 20 0 30 5 30 15 0 8 7 15 15 15 8 0 15 7 15 15 0 8 7 15 15 15 8 0 15 7 15
15 0 8 7 15 15 15 8 0 15 5 15 11 0 14 55 69 69 69 6 0 11 7 11 15 0 8 7 15
15 15 8 0 15 7 15 15 0 8 7 15 15 15 8 0 15 7 15 15 0 8 7 15 15 15 8 0 15 7
15 15 0 8 7 15 15 15 8 0 15 7 15 15 0 8 7 15 15 15 8 0 15 7 15 15 0 8 7 15
15 15 8 0 15 7 15 15 0 8 7 15 15 15 8 0 15 7 15 15 0 8 7 15 15 15 8 0 15 7
15 15 0 8 7 15 15 15 8 0 15 7 15 15 0 8 7 15 15 15 8 0 15 7 15 15 0 8 7 15
15 15 8 0 15 7 15 15 0 9 9 15 25 15 16 0 25 -6 25 -15 0 -11 12 -15 45 -15
33 0 45 -4 45 -15 0 -13 26 -15 174 -15 145 0 175 2 180 15 3 8 16 15 30 15
13 0 26 7 30 15 3 8 16 15 30 15 13 0 26 7 30 15 3 8 15 15 27 15 12 0 39 18
60 40 22 22 43 40 49 40 5 0 10 7 10 15 0 8 7 15 15 15 8 0 15 6 15 14 0 8 7
16 15 20 8 3 15 17 15 31 0 16 6 25 15 25 10 0 15 10 15 30 0 17 5 30 10 30 6
0 10 18 10 40 0 27 5 43 15 46 13 5 15 35 15 180 0 148 -2 174 -15 174 -10 0
-15 10 -15 30 0 17 -4 30 -10 30 -5 0 -10 10 -10 23 0 22 -31 57 -50 57 -6 0
-10 14 -10 30 0 20 -5 30 -15 30 -8 0 -15 7 -15 15 0 10 -10 15 -30 15 -20 0
-30 5 -30 15 0 8 -7 15 -15 15 -8 0 -15 7 -15 15 0 8 -7 15 -15 15 -8 0 -15 7
-15 15 0 10 -10 15 -30 15 -20 0 -30 5 -30 15 0 10 -10 15 -30 15 -20 0 -30 5
-30 15 0 11 -13 15 -54 15 -39 0 -55 4 -60 15 -4 11 -22 15 -76 15 -56 0 -70
-3 -70 -15z m120 -265 c0 -5 18 -10 40 -10 29 0 40 -4 40 -15 0 -10 10 -15 30
-15 20 0 30 -5 30 -15 0 -8 7 -15 15 -15 8 0 15 -7 15 -15 0 -8 7 -15 15 -15
8 0 15 -7 15 -15 0 -8 7 -15 15 -15 10 0 15 -10 15 -30 0 -20 5 -30 15 -30 13
0 15 -21 15 -130 0 -109 -2 -130 -15 -130 -10 0 -15 -10 -15 -30 0 -20 -5 -30
-15 -30 -8 0 -15 -7 -15 -15 0 -8 -7 -15 -15 -15 -8 0 -15 -7 -15 -15 0 -8 -7
-15 -15 -15 -8 0 -15 -7 -15 -15 0 -8 -7 -15 -15 -15 -8 0 -15 -7 -15 -15 0
-11 -11 -15 -40 -15 -29 0 -40 -4 -40 -15 0 -12 -18 -15 -105 -15 -87 0 -105
3 -105 15 0 10 -10 15 -30 15 -20 0 -30 5 -30 15 0 8 -7 15 -15 15 -8 0 -15 7
-15 15 0 8 -7 15 -15 15 -8 0 -15 7 -15 15 0 8 -7 15 -15 15 -8 0 -15 7 -15
15 0 8 -7 15 -15 15 -11 0 -15 12 -15 45 0 25 -4 45 -10 45 -6 0 -10 40 -10
100 0 60 4 100 10 100 6 0 10 10 10 23 0 12 13 34 29 48 16 14 31 36 33 50 2
17 10 25 27 27 14 2 36 17 50 33 22 25 32 29 78 29 29 0 53 5 53 10 0 6 20 10
45 10 25 0 45 -4 45 -10z"/>
<path d="M11396 21575 c-3 -8 -17 -15 -31 -15 -16 0 -25 -6 -25 -15 0 -10 -10
-15 -30 -15 -20 0 -30 -5 -30 -15 0 -10 -10 -15 -30 -15 -20 0 -30 -5 -30 -15
0 -8 -5 -15 -10 -15 -19 0 -80 -67 -80 -87 0 -12 -7 -23 -15 -27 -8 -3 -15
-17 -15 -31 0 -16 -6 -25 -15 -25 -12 0 -15 -13 -15 -60 0 -47 -3 -60 -15 -60
-11 0 -15 -11 -15 -40 0 -27 5 -43 15 -46 11 -5 15 -21 15 -60 0 -41 4 -54 15
-54 10 0 15 -10 15 -30 0 -20 5 -30 15 -30 10 0 15 -10 15 -30 0 -20 5 -30 15
-30 8 0 15 -7 15 -15 0 -8 7 -15 15 -15 8 0 15 -7 15 -15 0 -8 7 -15 15 -15 8
0 15 -7 15 -15 0 -8 7 -15 15 -15 8 0 15 -7 15 -15 0 -10 10 -15 30 -15 20 0
30 -5 30 -15 0 -10 10 -15 30 -15 20 0 30 -5 30 -15 0 -13 23 -15 145 -15 122
0 145 2 145 15 0 10 10 15 30 15 20 0 30 5 30 15 0 10 10 15 30 15 20 0 30 5
30 15 0 8 7 15 15 15 8 0 15 7 15 15 0 8 7 15 15 15 8 0 15 7 15 15 0 8 7 15
15 15 8 0 15 5 15 11 0 7 11 22 25 35 14 13 25 32 25 44 0 11 7 23 15 26 10 4
15 20 15 45 0 26 5 42 15 45 12 5 15 28 15 120 0 95 -3 114 -15 114 -10 0 -15
10 -15 30 0 20 -5 30 -15 30 -10 0 -15 10 -15 30 0 20 -5 30 -15 30 -8 0 -15
5 -15 11 0 14 -55 69 -69 69 -6 0 -11 7 -11 15 0 8 -7 15 -15 15 -8 0 -15 7
-15 15 0 10 -10 15 -30 15 -20 0 -30 5 -30 15 0 10 -10 15 -30 15 -20 0 -30 5
-30 15 0 13 -21 15 -129 15 -105 0 -130 -3 -135 -15z"/>
<path d="M18340 21405 c0 -12 -13 -15 -55 -15 -40 0 -57 -4 -61 -15 -4 -8 -15
-15 -27 -15 -20 0 -87 -61 -87 -80 0 -5 -7 -10 -15 -10 -8 0 -15 -7 -15 -15 0
-8 -7 -15 -15 -15 -8 0 -15 -7 -15 -15 0 -8 -7 -15 -15 -15 -10 0 -15 -10 -15
-30 0 -20 -5 -30 -15 -30 -10 0 -15 -10 -15 -30 0 -20 -5 -30 -15 -30 -13 0
-15 -21 -15 -130 0 -109 2 -130 15 -130 11 0 15 -12 15 -45 0 -33 4 -45 15
-45 8 0 15 -7 15 -15 0 -8 7 -15 15 -15 10 0 15 -10 15 -30 0 -16 5 -30 11
-30 14 0 69 -55 69 -69 0 -6 14 -11 30 -11 20 0 30 -5 30 -15 0 -11 12 -15 45
-15 33 0 45 -4 45 -15 0 -13 23 -15 144 -15 119 0 145 3 150 15 3 8 16 15 30
15 13 0 26 7 30 15 3 8 15 15 26 15 11 0 37 18 59 40 21 22 44 40 50 40 6 0
11 7 11 15 0 8 7 15 15 15 10 0 15 10 15 30 0 20 5 30 15 30 10 0 15 10 15 30
0 20 5 30 15 30 12 0 15 13 15 60 0 47 3 60 15 60 9 0 15 9 15 25 0 14 -7 28
-15 31 -11 5 -15 23 -15 75 0 55 -3 69 -15 69 -10 0 -15 10 -15 30 0 20 -5 30
-15 30 -8 0 -15 7 -15 15 0 8 -7 15 -15 15 -10 0 -15 10 -15 30 0 20 -5 30
-15 30 -8 0 -15 7 -15 15 0 8 -7 15 -15 15 -8 0 -15 7 -15 15 0 10 -10 15 -30
15 -20 0 -30 5 -30 15 0 10 -10 15 -30 15 -20 0 -30 5 -30 15 0 11 -11 15 -39
15 -25 0 -41 5 -45 15 -4 12 -24 15 -91 15 -69 0 -85 -3 -85 -15z"/>
<path d="M18340 14075 c0 -10 -10 -15 -30 -15 -20 0 -30 -5 -30 -15 0 -8 -7
-15 -15 -15 -8 0 -15 -7 -15 -15 0 -10 -10 -15 -30 -15 -20 0 -30 -5 -30 -15
0 -8 -5 -15 -11 -15 -21 0 -69 -58 -69 -84 0 -16 -6 -26 -15 -26 -8 0 -15 -7
-15 -15 0 -8 -7 -15 -15 -15 -12 0 -15 -13 -15 -60 0 -47 -3 -60 -15 -60 -12
0 -15 -16 -15 -84 0 -65 3 -85 15 -90 10 -3 15 -19 15 -43 1 -30 7 -43 30 -63
17 -14 30 -34 30 -47 0 -13 5 -23 10 -23 6 0 10 -7 10 -15 0 -8 7 -15 15 -15
8 0 15 -7 15 -15 0 -8 7 -15 15 -15 8 0 15 -7 15 -15 0 -8 7 -15 15 -15 8 0
15 -7 15 -15 0 -10 10 -15 30 -15 20 0 30 -5 30 -15 0 -10 10 -15 30 -15 20 0
30 -5 30 -15 0 -13 23 -15 145 -15 122 0 145 2 145 15 0 10 10 15 30 15 20 0
30 5 30 15 0 10 10 15 30 15 20 0 30 5 30 15 0 8 7 15 15 15 8 0 15 7 15 15 0
10 10 15 30 15 20 0 30 5 30 15 0 8 7 15 15 15 10 0 15 10 15 30 0 20 5 30 15
30 8 0 15 7 15 15 0 8 7 15 15 15 11 0 15 12 15 45 0 33 4 45 15 45 13 0 15
21 15 125 0 102 -3 127 -15 131 -10 4 -15 19 -15 43 0 29 -7 42 -30 61 -16 14
-29 34 -30 45 0 27 -34 55 -65 55 -16 0 -25 6 -25 15 0 8 -7 15 -15 15 -8 0
-15 7 -15 15 0 8 -7 15 -15 15 -8 0 -15 7 -15 15 0 11 -12 15 -45 15 -33 0
-45 4 -45 15 0 13 -23 15 -145 15 -122 0 -145 -2 -145 -15z"/>
<path d="M11366 14045 c-3 -10 -19 -15 -46 -15 -29 0 -40 -4 -40 -15 0 -10
-10 -15 -30 -15 -20 0 -30 -5 -30 -15 0 -8 -5 -15 -11 -15 -19 0 -139 -127
-139 -148 0 -11 -7 -22 -15 -26 -10 -3 -15 -19 -15 -46 0 -22 -4 -40 -10 -40
-6 0 -10 -40 -10 -100 0 -60 4 -100 10 -100 6 0 10 -20 10 -45 0 -33 4 -45 15
-45 10 0 15 -10 15 -30 0 -20 5 -30 15 -30 8 0 15 -7 15 -15 0 -8 7 -15 15
-15 8 0 15 -7 15 -15 0 -8 7 -15 15 -15 8 0 15 -7 15 -15 0 -8 7 -15 15 -15 8
0 15 -7 15 -15 0 -8 7 -15 15 -15 8 0 15 -7 15 -15 0 -10 10 -15 30 -15 20 0
30 -5 30 -15 0 -11 12 -15 45 -15 33 0 45 -4 45 -15 0 -12 19 -15 115 -15 96
0 115 3 115 15 0 11 12 15 45 15 33 0 45 4 45 15 0 10 10 15 30 15 20 0 30 5
30 15 0 8 7 15 15 15 8 0 15 7 15 15 0 8 7 15 15 15 8 0 15 7 15 15 0 8 7 15
15 15 8 0 15 7 15 15 0 8 7 15 15 15 8 0 15 7 15 15 0 8 5 15 10 15 6 0 10 11
10 25 0 14 7 28 15 31 10 4 15 20 15 45 0 26 5 42 15 45 12 5 15 26 15 105 0
81 -3 99 -15 99 -11 0 -15 12 -15 45 0 33 -4 45 -15 45 -9 0 -15 10 -15 26 0
18 -18 43 -59 85 -33 32 -64 59 -70 59 -6 0 -11 7 -11 15 0 10 -10 15 -30 15
-20 0 -30 5 -30 15 0 10 -10 15 -30 15 -20 0 -30 5 -30 15 0 13 -21 15 -129
15 -105 0 -130 -3 -135 -15z"/>
<path d="M9082 7678 l3 -1203 788 -3 c695 -2 787 0 787 13 0 8 7 15 15 15 8 0
15 6 15 14 0 8 -7 16 -15 20 -12 4 -15 29 -15 131 0 102 3 127 15 131 9 4 15
19 15 35 0 19 -5 29 -15 29 -8 0 -15 5 -15 10 0 6 7 10 15 10 21 0 19 16 -5
40 -24 24 -40 26 -40 5 0 -13 -55 -15 -435 -15 -380 0 -435 2 -435 15 0 12
-18 15 -105 15 l-105 0 0 955 c0 842 -2 955 -15 955 -8 0 -15 7 -15 15 0 13
-31 15 -220 15 l-220 0 2 -1202z"/>
<path d="M11477 8860 c-9 -11 -17 -25 -17 -30 0 -6 -7 -10 -15 -10 -8 0 -15
-7 -15 -15 0 -8 -7 -15 -15 -15 -8 0 -15 -7 -15 -15 0 -8 -7 -15 -15 -15 -8 0
-15 -7 -15 -15 0 -8 -7 -15 -15 -15 -8 0 -15 -7 -15 -15 0 -8 -7 -15 -15 -15
-8 0 -15 -7 -15 -15 0 -8 -7 -15 -15 -15 -8 0 -15 -7 -15 -15 0 -8 -7 -15 -15
-15 -8 0 -15 -7 -15 -15 0 -8 -7 -15 -15 -15 -8 0 -15 -7 -15 -15 0 -8 -7 -15
-15 -15 -8 0 -15 -7 -15 -15 0 -8 -5 -15 -11 -15 -6 0 -44 -33 -85 -74 l-74
-74 0 -276 c0 -177 4 -276 10 -276 6 0 10 7 10 15 0 8 7 15 15 15 8 0 15 7 15
15 0 8 7 15 15 15 8 0 15 7 15 15 0 10 10 15 30 15 20 0 30 5 30 15 0 8 7 15
15 15 8 0 15 7 15 15 0 8 7 15 15 15 8 0 15 7 15 15 0 8 7 15 15 15 8 0 15 7
15 15 0 8 7 15 15 15 8 0 15 7 15 15 0 8 7 15 15 15 8 0 15 7 15 15 0 8 5 15
11 15 6 0 29 18 50 40 22 22 47 40 57 40 18 0 52 33 52 50 0 6 7 10 15 10 13
0 15 -104 15 -872 l0 -873 24 -22 c23 -22 30 -23 235 -23 l211 0 0 1205 0
1205 -243 0 c-231 0 -243 -1 -260 -20z"/>
<path d="M12800 8865 c0 -8 -7 -15 -15 -15 -8 0 -15 -5 -15 -10 0 -6 -18 -27
-40 -49 -22 -21 -40 -44 -40 -50 0 -6 -7 -11 -15 -11 -8 0 -15 -7 -15 -15 0
-8 -7 -15 -15 -15 -8 0 -15 -7 -15 -15 0 -8 -7 -15 -15 -15 -8 0 -15 -7 -15
-15 0 -8 -7 -15 -15 -15 -8 0 -15 -7 -15 -15 0 -8 -7 -15 -15 -15 -8 0 -15 -7
-15 -15 0 -8 -7 -15 -15 -15 -9 0 -15 -9 -15 -25 0 -16 -6 -25 -15 -25 -8 0
-15 -7 -15 -15 0 -8 -7 -15 -15 -15 -8 0 -15 -7 -15 -15 0 -8 7 -15 15 -15 8
0 15 -7 15 -15 0 -8 -7 -15 -15 -15 -13 0 -15 -83 -15 -690 0 -607 2 -690 15
-690 13 0 15 -21 15 -130 0 -109 2 -130 15 -130 8 0 15 -7 15 -15 0 -8 7 -15
15 -15 8 0 15 -7 15 -15 0 -8 7 -15 15 -15 8 0 15 -7 15 -15 0 -8 7 -15 15
-15 8 0 15 -7 15 -15 0 -8 7 -15 15 -15 8 0 15 -7 15 -15 0 -8 7 -15 15 -15 8
0 15 -7 15 -15 0 -8 7 -15 15 -15 8 0 15 -5 15 -11 0 -19 97 -109 118 -109 11
0 22 -7 26 -15 5 -13 70 -15 507 -15 l501 0 64 64 c35 36 64 70 64 75 0 6 7
11 15 11 8 0 15 7 15 15 0 8 7 15 15 15 8 0 15 7 15 15 0 8 7 15 15 15 8 0 15
7 15 15 0 8 7 15 15 15 8 0 15 7 15 15 0 8 7 15 15 15 8 0 15 7 15 15 0 8 7
15 15 15 8 0 15 7 15 15 0 8 7 15 15 15 10 0 15 10 15 30 0 20 5 30 15 30 13
0 15 96 15 805 0 709 -2 805 -15 805 -11 0 -15 11 -15 40 0 29 -4 40 -15 40
-8 0 -15 7 -15 15 0 8 -7 15 -15 15 -8 0 -15 7 -15 15 0 8 -7 15 -15 15 -8 0
-15 7 -15 15 0 8 -7 15 -15 15 -8 0 -15 7 -15 15 0 8 -7 15 -15 15 -8 0 -15 7
-15 15 0 8 -7 15 -15 15 -8 0 -15 7 -15 15 0 8 -7 15 -15 15 -8 0 -15 5 -15
11 0 7 -11 22 -25 35 -14 13 -25 28 -25 34 0 5 -7 10 -15 10 -8 0 -15 7 -15
15 0 10 -10 15 -30 15 -20 0 -30 5 -30 15 0 13 -64 15 -515 15 -451 0 -515 -2
-515 -15z m760 -440 c0 -10 10 -15 30 -15 20 0 30 -5 30 -15 0 -8 7 -15 15
-15 8 0 15 -7 15 -15 0 -8 7 -15 15 -15 8 0 15 -7 15 -15 0 -8 7 -15 15 -15 8
0 15 -7 15 -15 0 -8 7 -15 15 -15 13 0 15 -75 15 -615 0 -540 -2 -615 -15
-615 -8 0 -15 -7 -15 -15 0 -8 -7 -15 -15 -15 -8 0 -15 -7 -15 -15 0 -8 -7
-15 -15 -15 -8 0 -15 -7 -15 -15 0 -8 -7 -15 -15 -15 -8 0 -15 -7 -15 -15 0
-10 -10 -15 -30 -15 -20 0 -30 -5 -30 -15 0 -13 -32 -15 -230 -15 -198 0 -230
2 -230 15 0 10 -10 15 -30 15 -20 0 -30 5 -30 15 0 8 -7 15 -15 15 -8 0 -15 7
-15 15 0 8 -7 15 -15 15 -8 0 -15 7 -15 15 0 8 -7 15 -15 15 -10 0 -15 10 -15
30 0 20 -5 30 -15 30 -13 0 -15 73 -15 600 0 527 2 600 15 600 8 0 15 7 15 15
0 8 7 15 15 15 8 0 15 7 15 15 0 8 7 15 15 15 8 0 15 7 15 15 0 8 7 15 15 15
8 0 15 7 15 15 0 8 7 15 15 15 8 0 15 7 15 15 0 13 34 15 245 15 211 0 245 -2
245 -15z"/>
<path d="M14940 8865 c0 -8 -7 -15 -15 -15 -8 0 -15 -7 -15 -15 0 -8 -7 -15
-15 -15 -8 0 -15 -7 -15 -15 0 -8 -7 -15 -15 -15 -8 0 -15 -7 -15 -15 0 -8 -7
-15 -15 -15 -8 0 -15 -7 -15 -15 0 -8 -7 -15 -15 -15 -8 0 -15 -5 -15 -11 0
-7 -11 -22 -25 -35 -14 -13 -25 -31 -25 -40 0 -18 -92 -114 -109 -114 -8 0
-11 -260 -11 -850 0 -749 2 -850 15 -850 10 0 15 -10 15 -30 0 -20 5 -30 15
-30 8 0 15 -7 15 -15 0 -8 7 -15 15 -15 8 0 15 -7 15 -15 0 -8 7 -15 15 -15 8
0 15 -7 15 -15 0 -8 7 -15 15 -15 8 0 15 -5 15 -11 0 -6 42 -53 94 -105 l94
-94 512 0 513 0 33 35 c19 18 34 39 34 45 0 5 7 10 15 10 8 0 15 7 15 15 0 8
7 15 15 15 8 0 15 7 15 15 0 8 7 15 15 15 8 0 15 7 15 15 0 8 7 15 15 15 8 0
15 7 15 15 0 8 7 15 15 15 8 0 15 7 15 15 0 8 7 15 15 15 8 0 15 7 15 15 0 8
7 15 15 15 8 0 15 7 15 15 0 8 7 15 15 15 8 0 15 7 15 15 0 8 7 15 15 15 8 0
15 7 15 15 0 8 7 15 15 15 13 0 15 100 15 843 0 832 0 843 -20 860 -11 9 -25
17 -30 17 -6 0 -10 7 -10 15 0 8 -7 15 -15 15 -8 0 -15 7 -15 15 0 8 -7 15
-15 15 -8 0 -15 7 -15 15 0 8 -7 15 -15 15 -8 0 -15 7 -15 15 0 8 -7 15 -15
15 -10 0 -15 10 -15 30 0 20 -5 30 -15 30 -8 0 -15 7 -15 15 0 8 -7 15 -15 15
-8 0 -15 7 -15 15 0 10 -10 15 -30 15 -16 0 -30 5 -30 10 0 6 -15 27 -34 45
l-33 35 -522 0 c-456 0 -521 -2 -521 -15z m790 -440 c0 -8 7 -15 15 -15 8 0
15 -7 15 -15 0 -8 7 -15 15 -15 8 0 15 -7 15 -15 0 -8 7 -15 15 -15 8 0 15 -7
15 -15 0 -8 7 -15 15 -15 8 0 15 -7 15 -15 0 -8 7 -15 15 -15 13 0 15 -73 15
-600 0 -527 -2 -600 -15 -600 -10 0 -15 -10 -15 -30 0 -20 -5 -30 -15 -30 -8
0 -15 -7 -15 -15 0 -8 -7 -15 -15 -15 -8 0 -15 -7 -15 -15 0 -8 -7 -15 -15
-15 -8 0 -15 -7 -15 -15 0 -8 -7 -15 -15 -15 -8 0 -15 -7 -15 -15 0 -13 -34
-15 -245 -15 -209 0 -246 2 -251 15 -4 8 -17 15 -30 15 -15 0 -24 6 -24 15 0
8 -7 15 -15 15 -10 0 -15 10 -15 30 0 20 -5 30 -15 30 -8 0 -15 7 -15 15 0 8
-7 15 -15 15 -8 0 -15 7 -15 15 0 8 -7 15 -15 15 -13 0 -15 72 -15 585 0 513
2 585 15 585 10 0 15 10 15 30 0 20 5 30 15 30 8 0 15 7 15 15 0 8 7 15 15 15
8 0 15 7 15 15 0 8 7 15 15 15 8 0 15 7 15 15 0 9 9 15 24 15 13 0 26 7 30 15
5 13 42 15 251 15 211 0 245 -2 245 -15z"/>
<path d="M17260 8865 c0 -10 -10 -15 -30 -15 -27 0 -30 -3 -30 -30 0 -27 -3
-30 -30 -30 -20 0 -30 -5 -30 -15 0 -8 -7 -15 -15 -15 -8 0 -15 -7 -15 -15 0
-8 -7 -15 -15 -15 -8 0 -15 -7 -15 -15 0 -8 -7 -15 -15 -15 -8 0 -15 -7 -15
-15 0 -8 -7 -15 -15 -15 -8 0 -15 -7 -15 -15 0 -8 -7 -15 -15 -15 -8 0 -15 -7
-15 -15 0 -8 -7 -15 -15 -15 -8 0 -15 -7 -15 -15 0 -8 -7 -15 -15 -15 -8 0
-15 -7 -15 -15 0 -8 -5 -15 -11 -15 -14 0 -39 -25 -39 -39 0 -6 -7 -11 -15
-11 -8 0 -15 -7 -15 -15 0 -8 -7 -15 -15 -15 -8 0 -15 -7 -15 -15 0 -8 -7 -15
-15 -15 -8 0 -15 -7 -15 -15 0 -8 -7 -15 -15 -15 -13 0 -15 -38 -15 -280 0
-242 2 -280 15 -280 8 0 15 7 15 15 0 8 7 15 15 15 8 0 15 7 15 15 0 8 7 15
15 15 8 0 15 5 15 11 0 20 97 109 119 109 12 0 21 6 21 15 0 8 7 15 15 15 8 0
15 7 15 15 0 8 5 15 10 15 6 0 21 11 34 25 13 14 28 25 35 25 6 0 11 7 11 15
0 8 7 15 15 15 8 0 15 7 15 15 0 8 7 15 15 15 8 0 15 7 15 15 0 8 7 15 15 15
8 0 15 7 15 15 0 8 7 15 15 15 8 0 15 7 15 15 0 8 7 15 15 15 13 0 15 -108 15
-910 l0 -910 213 0 c201 0 214 1 230 20 16 19 17 97 17 1185 0 1088 -1 1166
-17 1185 -16 19 -29 20 -230 20 -183 0 -213 -2 -213 -15z"/>
<path d="M18568 8830 c-27 -27 -48 -54 -48 -60 0 -5 -7 -10 -15 -10 -8 0 -15
-7 -15 -15 0 -8 -7 -15 -15 -15 -8 0 -15 -7 -15 -15 0 -8 -7 -15 -15 -15 -8 0
-15 -7 -15 -15 0 -8 -7 -15 -15 -15 -8 0 -15 -7 -15 -15 0 -8 -7 -15 -15 -15
-8 0 -15 -7 -15 -15 0 -8 -7 -15 -15 -15 -8 0 -15 -7 -15 -15 0 -8 -7 -15 -15
-15 -8 0 -15 -7 -15 -15 0 -8 -7 -15 -15 -15 -9 0 -15 -9 -15 -24 0 -13 -7
-26 -15 -30 -13 -5 -15 -105 -15 -821 0 -718 2 -815 15 -815 10 0 15 -10 15
-30 0 -20 5 -30 15 -30 8 0 15 -7 15 -15 0 -8 7 -15 15 -15 8 0 15 -7 15 -15
0 -8 7 -15 15 -15 8 0 15 -7 15 -15 0 -8 7 -15 15 -15 8 0 15 -7 15 -15 0 -8
7 -15 15 -15 8 0 15 -7 15 -15 0 -8 7 -15 15 -15 8 0 15 -7 15 -15 0 -8 7 -15
15 -15 8 0 15 -7 15 -15 0 -8 7 -15 15 -15 8 0 15 -5 15 -10 0 -19 67 -80 87
-80 12 0 23 -7 27 -15 5 -13 69 -15 496 -15 427 0 491 2 496 15 4 8 12 15 20
15 8 0 14 7 14 15 0 8 7 15 15 15 8 0 15 7 15 15 0 9 9 15 21 15 22 0 89 60
89 80 0 5 7 10 15 10 8 0 15 7 15 15 0 8 7 15 15 15 8 0 15 7 15 15 0 8 7 15
15 15 8 0 15 7 15 15 0 8 7 15 15 15 8 0 15 7 15 15 0 8 7 15 15 15 8 0 15 7
15 15 0 8 7 15 15 15 13 0 15 103 15 870 l0 869 -100 100 c-55 54 -100 104
-100 110 0 6 -7 11 -15 11 -8 0 -15 7 -15 15 0 8 -7 15 -15 15 -8 0 -15 7 -15
15 0 10 -10 15 -30 15 -20 0 -30 5 -30 15 0 8 -7 15 -15 15 -8 0 -15 7 -15 15
0 13 -63 15 -507 15 l-508 -1 -47 -49z m798 -405 c4 -8 17 -15 30 -15 15 0 24
-6 24 -15 0 -8 7 -15 15 -15 8 0 15 -7 15 -15 0 -8 7 -15 15 -15 8 0 15 -7 15
-15 0 -8 7 -15 15 -15 8 0 15 -7 15 -15 0 -8 7 -15 15 -15 13 0 15 -73 15
-600 0 -527 -2 -600 -15 -600 -8 0 -15 -7 -15 -15 0 -8 -7 -15 -15 -15 -8 0
-15 -7 -15 -15 0 -8 -7 -15 -15 -15 -10 0 -15 -10 -15 -30 0 -20 -5 -30 -15
-30 -8 0 -15 -7 -15 -15 0 -9 -9 -15 -24 -15 -13 0 -26 -7 -30 -15 -5 -13 -42
-15 -251 -15 -211 0 -245 2 -245 15 0 8 -7 15 -15 15 -8 0 -15 7 -15 15 0 8
-7 15 -15 15 -8 0 -15 7 -15 15 0 8 -7 15 -15 15 -8 0 -15 7 -15 15 0 8 -7 15
-15 15 -8 0 -15 7 -15 15 0 8 -7 15 -15 15 -13 0 -15 75 -15 615 0 540 2 615
15 615 8 0 15 7 15 15 0 8 7 15 15 15 8 0 15 7 15 15 0 8 7 15 15 15 8 0 15 7
15 15 0 8 7 15 15 15 8 0 15 7 15 15 0 8 7 15 15 15 8 0 15 7 15 15 0 13 34
15 245 15 209 0 246 -2 251 -15z"/>
<path d="M20890 8865 c0 -8 -7 -15 -15 -15 -8 0 -15 -7 -15 -15 0 -8 -7 -15
-15 -15 -8 0 -15 -7 -15 -15 0 -8 -7 -15 -15 -15 -8 0 -15 -7 -15 -15 0 -8 -7
-15 -15 -15 -8 0 -15 -7 -15 -15 0 -8 -7 -15 -15 -15 -8 0 -15 -7 -15 -15 0
-8 -7 -15 -15 -15 -8 0 -15 -7 -15 -15 0 -8 -7 -15 -15 -15 -8 0 -15 -7 -15
-15 0 -8 -7 -15 -15 -15 -8 0 -15 -7 -15 -15 0 -9 -9 -15 -25 -15 -19 0 -25
-5 -25 -23 0 -22 -31 -57 -50 -57 -6 0 -10 -7 -10 -15 0 -10 -10 -15 -30 -15
-27 0 -30 -3 -30 -30 0 -20 -5 -30 -15 -30 -8 0 -15 -7 -15 -15 0 -8 -7 -15
-15 -15 -8 0 -15 -7 -15 -15 0 -8 -7 -15 -15 -15 -13 0 -15 -36 -15 -265 l0
-265 30 0 c20 0 30 5 30 15 0 8 7 15 15 15 8 0 15 7 15 15 0 8 7 15 15 15 8 0
15 7 15 15 0 8 7 15 15 15 8 0 15 7 15 15 0 8 7 15 15 15 8 0 15 7 15 15 0 8
7 15 15 15 8 0 15 5 15 11 0 14 115 129 129 129 6 0 11 7 11 15 0 10 10 15 30
15 20 0 30 5 30 15 0 8 7 15 15 15 8 0 15 7 15 15 0 8 7 15 15 15 8 0 15 7 15
15 0 8 7 15 15 15 8 0 15 7 15 15 0 8 7 15 15 15 8 0 15 -7 15 -15 0 -8 -7
-15 -15 -15 -13 0 -15 -23 -15 -145 0 -122 2 -145 15 -145 13 0 15 -41 15
-310 0 -269 -2 -310 -15 -310 -12 0 -15 -16 -15 -85 0 -69 3 -85 15 -85 13 0
15 -28 15 -190 0 -162 -2 -190 -15 -190 -13 0 -15 -23 -15 -150 0 -127 2 -150
15 -150 8 0 15 -7 15 -15 0 -13 28 -15 218 -13 l217 3 3 1203 2 1202 -235 0
c-202 0 -235 -2 -235 -15z"/>
</g>
</svg>
