<?xml version="1.0" standalone="no"?>
<!DOCTYPE svg PUBLIC "-//W3C//DTD SVG 20010904//EN"
 "http://www.w3.org/TR/2001/REC-SVG-20010904/DTD/svg10.dtd">
<svg version="1.0" xmlns="http://www.w3.org/2000/svg"
 width="3000.000000pt" height="3000.000000pt" viewBox="0 0 3000.000000 3000.000000"
 preserveAspectRatio="xMidYMid meet">

<g transform="translate(0.000000,3000.000000) scale(0.100000,-0.100000)"
fill="#000000" stroke="none">
<path d="M14820 21577 l0 -1974 -127 -6 c-163 -9 -347 -9 -407 -1 l-46 7 0 88
c0 53 4 89 10 89 6 0 10 108 10 305 0 197 -4 305 -10 305 -7 0 -10 295 -10
865 0 732 -2 865 -14 865 -8 0 -17 11 -20 25 -4 14 -11 25 -16 25 -6 0 -10 7
-10 15 0 8 -7 15 -15 15 -8 0 -15 7 -15 15 0 8 -7 15 -15 15 -8 0 -15 7 -15
15 0 8 -7 15 -15 15 -10 0 -15 10 -15 34 0 19 7 41 15 50 8 8 15 26 15 40 0
16 6 26 15 26 11 0 15 11 15 43 0 24 7 52 15 63 21 28 21 224 0 224 -12 0 -15
13 -15 55 0 42 -3 55 -15 55 -10 0 -15 10 -15 30 0 20 -5 30 -15 30 -8 0 -15
7 -15 15 0 8 -4 15 -10 15 -5 0 -12 11 -16 24 -3 14 -12 27 -20 30 -8 3 -14
12 -14 21 0 8 -7 15 -15 15 -8 0 -15 7 -15 15 0 8 -5 15 -11 15 -6 0 -24 14
-41 30 -16 17 -36 30 -44 30 -8 0 -14 4 -14 9 0 5 -13 12 -30 16 -16 4 -30 11
-30 16 0 5 -13 9 -29 9 -16 0 -37 7 -46 16 -13 14 -41 16 -172 16 -105 0 -158
-4 -163 -11 -3 -7 -24 -15 -46 -18 -21 -4 -45 -12 -52 -20 -7 -7 -22 -13 -33
-13 -10 0 -19 -7 -19 -15 0 -8 -7 -15 -15 -15 -8 0 -15 -4 -15 -10 0 -5 -7
-10 -15 -10 -8 0 -15 -7 -15 -15 0 -8 -7 -15 -15 -15 -8 0 -15 -6 -15 -14 0
-8 -11 -17 -25 -20 -15 -4 -27 -16 -31 -31 -3 -14 -10 -25 -15 -25 -5 0 -9 -7
-9 -15 0 -8 -6 -15 -14 -15 -8 0 -17 -13 -21 -30 -4 -16 -11 -30 -16 -30 -5 0
-9 -13 -9 -30 0 -19 -5 -30 -14 -30 -18 0 -28 -141 -19 -278 4 -76 9 -102 20
-102 8 0 13 -11 13 -30 0 -16 4 -30 9 -30 5 0 12 -13 16 -30 4 -16 10 -30 15
-30 5 0 12 -10 15 -22 4 -11 18 -31 31 -43 13 -12 24 -27 24 -34 0 -6 7 -11
15 -11 8 0 15 -7 15 -15 0 -8 7 -15 15 -15 8 0 15 -7 15 -15 0 -8 7 -15 15
-15 8 0 15 -7 15 -15 0 -10 10 -15 30 -15 20 0 30 -5 30 -15 0 -10 10 -15 30
-15 20 0 30 -5 30 -15 0 -11 11 -15 41 -15 23 0 47 -7 55 -15 12 -12 42 -15
135 -15 99 0 119 3 119 15 0 11 12 15 45 15 33 0 45 4 45 15 0 8 7 15 15 15 8
0 15 -7 15 -15 0 -8 7 -15 15 -15 8 0 15 -7 15 -15 0 -8 7 -15 15 -15 8 0 15
-6 15 -14 0 -8 6 -16 13 -18 9 -4 13 -255 15 -1201 l2 -1197 -280 0 -280 0 0
675 c0 593 -2 675 -15 675 -8 0 -15 7 -15 15 0 8 -7 15 -15 15 -8 0 -15 7 -15
15 0 8 -7 15 -15 15 -8 0 -15 7 -15 15 0 8 -5 15 -11 15 -14 0 -99 85 -99 99
0 6 -7 11 -15 11 -8 0 -15 7 -15 15 0 8 -7 15 -15 15 -8 0 -15 7 -15 15 0 8
-7 15 -15 15 -8 0 -15 7 -15 15 0 8 -7 15 -15 15 -8 0 -15 7 -15 15 0 8 -7 15
-15 15 -8 0 -15 7 -15 15 0 8 -7 15 -15 15 -8 0 -15 7 -15 15 0 8 -7 15 -15
15 -8 0 -15 7 -15 15 0 8 -7 15 -15 15 -8 0 -15 7 -15 15 0 8 -7 15 -15 15 -8
0 -15 7 -15 15 0 8 -7 15 -15 15 -8 0 -15 7 -15 15 0 8 -7 15 -15 15 -8 0 -15
7 -15 15 0 8 -7 15 -15 15 -8 0 -15 7 -15 15 0 8 -5 15 -11 15 -14 0 -39 25
-39 39 0 6 -7 11 -15 11 -8 0 -15 7 -15 15 0 8 -7 15 -15 15 -8 0 -15 7 -15
15 0 8 -7 15 -15 15 -8 0 -15 7 -15 15 0 8 -7 15 -15 15 -8 0 -15 7 -15 15 0
8 -7 15 -15 15 -8 0 -15 7 -15 15 0 8 -7 15 -15 15 -8 0 -15 7 -15 15 0 8 -7
15 -15 15 -8 0 -15 7 -15 15 0 8 -7 15 -15 15 -8 0 -15 7 -15 15 0 8 -7 15
-15 15 -8 0 -15 7 -15 15 0 8 -5 15 -11 15 -6 0 -29 18 -50 40 -22 22 -43 40
-49 40 -5 0 -10 7 -10 15 0 8 -7 15 -15 15 -8 0 -15 7 -15 15 0 8 -7 15 -15
15 -8 0 -15 7 -15 15 0 8 -7 15 -15 15 -8 0 -15 7 -15 15 0 8 -7 15 -15 15 -8
0 -15 7 -15 15 0 8 -7 15 -15 15 -8 0 -15 7 -15 15 0 8 -7 15 -15 15 -8 0 -15
7 -15 15 0 8 -5 15 -11 15 -12 0 -39 25 -39 37 0 11 -37 43 -50 43 -6 0 -10 7
-10 15 0 8 -7 15 -15 15 -8 0 -15 7 -15 15 0 8 -7 15 -15 15 -8 0 -15 7 -15
15 0 8 -7 15 -15 15 -8 0 -15 7 -15 15 0 8 -7 15 -15 15 -8 0 -15 7 -15 15 0
8 -7 15 -15 15 -8 0 -15 7 -15 15 0 8 -6 15 -14 15 -8 0 -28 14 -44 30 -17 17
-35 30 -41 30 -6 0 -11 7 -11 15 0 8 -7 15 -15 15 -8 0 -15 7 -15 15 0 8 -7
15 -15 15 -8 0 -15 7 -15 15 0 8 -7 15 -15 15 -8 0 -15 7 -15 15 0 8 -7 15
-15 15 -11 0 -15 12 -15 45 0 33 4 45 15 45 11 0 15 11 15 40 0 29 4 40 15 40
11 0 15 12 15 50 0 28 5 50 10 50 6 0 10 33 10 80 0 47 -4 80 -10 80 -5 0 -10
22 -10 49 0 31 -6 55 -15 65 -8 8 -15 26 -15 41 0 14 -7 28 -15 31 -8 4 -15
17 -15 30 0 15 -6 24 -15 24 -8 0 -15 9 -15 20 0 11 -4 20 -10 20 -5 0 -12 11
-16 25 -3 14 -12 25 -20 25 -8 0 -14 7 -14 15 0 8 -7 15 -15 15 -8 0 -15 7
-15 15 0 9 -9 15 -25 15 -16 0 -25 6 -25 15 0 8 -9 15 -20 15 -11 0 -20 7 -20
15 0 9 -9 15 -24 15 -13 0 -26 5 -28 10 -2 6 -21 13 -43 17 -22 3 -43 11 -47
17 -5 7 -60 11 -158 11 -98 0 -153 -4 -158 -11 -4 -6 -25 -14 -47 -17 -22 -4
-41 -11 -43 -17 -2 -5 -10 -10 -18 -10 -8 0 -17 -7 -20 -15 -4 -8 -17 -15 -30
-15 -15 0 -24 -6 -24 -15 0 -8 -7 -15 -15 -15 -8 0 -15 -7 -15 -15 0 -8 -7
-15 -15 -15 -8 0 -15 -7 -15 -15 0 -8 -7 -15 -15 -15 -8 0 -15 -7 -15 -15 0
-8 -7 -15 -15 -15 -8 0 -15 -7 -15 -15 0 -8 -7 -15 -15 -15 -9 0 -15 -9 -15
-24 0 -13 -7 -26 -15 -30 -8 -3 -15 -16 -15 -30 0 -13 -5 -26 -11 -28 -5 -2
-13 -22 -16 -46 -3 -23 -10 -42 -14 -42 -5 0 -9 -65 -9 -145 0 -80 4 -145 9
-145 4 0 11 -19 14 -41 3 -23 10 -45 15 -48 6 -3 14 -19 17 -34 4 -15 11 -27
16 -27 5 0 9 -7 9 -15 0 -9 6 -18 14 -21 8 -3 17 -16 20 -30 4 -13 11 -24 16
-24 6 0 10 -7 10 -15 0 -8 7 -15 15 -15 8 0 15 -7 15 -15 0 -8 6 -15 14 -15 8
0 16 -7 20 -15 3 -8 17 -15 31 -15 16 0 25 -6 25 -15 0 -8 7 -15 15 -15 8 0
15 -4 15 -9 0 -5 12 -12 27 -16 15 -3 31 -11 34 -17 4 -6 28 -13 55 -16 27 -2
52 -10 56 -16 10 -16 230 -15 235 2 3 7 21 12 43 12 27 0 42 6 49 18 8 12 13
14 18 5 5 -6 21 -15 36 -18 15 -4 27 -13 27 -21 0 -8 7 -14 15 -14 8 0 15 -7
15 -15 0 -8 7 -15 15 -15 8 0 15 -7 15 -15 0 -8 7 -15 15 -15 8 0 15 -7 15
-15 0 -8 5 -15 10 -15 6 0 21 -11 34 -25 13 -14 28 -25 35 -25 6 0 11 -7 11
-15 0 -8 7 -15 15 -15 8 0 15 -4 15 -10 0 -5 9 -19 20 -30 11 -11 25 -20 30
-20 6 0 10 -5 10 -11 0 -14 235 -249 249 -249 6 0 11 -7 11 -15 0 -8 7 -15 15
-15 8 0 15 -7 15 -15 0 -8 7 -15 15 -15 8 0 15 -7 15 -15 0 -8 7 -15 15 -15 8
0 15 -7 15 -15 0 -8 7 -15 15 -15 8 0 15 -7 15 -15 0 -8 7 -15 15 -15 8 0 15
-7 15 -15 0 -8 7 -15 15 -15 8 0 15 -7 15 -15 0 -8 7 -15 15 -15 8 0 15 -7 15
-15 0 -8 7 -15 15 -15 8 0 15 -7 15 -15 0 -8 5 -15 11 -15 14 0 159 -145 159
-159 0 -6 7 -11 15 -11 8 0 15 -7 15 -15 0 -8 5 -15 12 -15 6 0 18 -7 27 -15
9 -8 30 -28 48 -45 17 -16 36 -30 42 -30 6 0 11 -7 11 -15 0 -8 7 -15 15 -15
8 0 15 -7 15 -15 0 -8 7 -15 15 -15 8 0 15 -7 15 -15 0 -8 7 -15 15 -15 8 0
15 -7 15 -15 0 -8 7 -15 15 -15 8 0 15 -7 15 -15 0 -8 7 -15 15 -15 8 0 15 -7
15 -15 0 -8 7 -15 15 -15 8 0 15 -7 15 -15 0 -8 7 -15 15 -15 8 0 15 -7 15
-15 0 -8 7 -15 15 -15 8 0 15 -7 15 -15 0 -8 7 -15 15 -15 8 0 15 -7 15 -15 0
-8 7 -15 15 -15 8 0 15 -7 15 -15 0 -8 7 -15 15 -15 8 0 15 -7 15 -15 0 -8 7
-15 15 -15 8 0 15 -5 15 -11 0 -6 14 -24 30 -41 17 -16 30 -36 30 -43 0 -7 4
-15 10 -17 6 -2 10 -225 12 -601 l3 -597 -111 0 c-90 0 -113 -3 -118 -15 -4
-11 -21 -15 -66 -15 -47 0 -60 -3 -60 -15 0 -9 -9 -15 -24 -15 -13 0 -26 -7
-30 -15 -3 -8 -17 -15 -31 -15 -16 0 -25 -6 -25 -15 0 -8 -7 -15 -15 -15 -8 0
-15 -7 -15 -15 0 -8 -7 -15 -15 -15 -9 0 -15 -9 -15 -25 0 -16 -6 -25 -15 -25
-8 0 -15 -7 -15 -16 0 -8 -7 -22 -15 -30 -12 -13 -15 -48 -15 -190 0 -172 0
-174 -22 -179 -13 -3 -530 -4 -1149 -3 l-1125 3 -26 28 c-14 15 -30 27 -37 27
-6 0 -11 7 -11 15 0 8 -7 15 -15 15 -19 0 -22 86 -2 93 9 3 12 43 12 157 0
114 -3 154 -12 158 -7 2 -13 19 -13 37 0 19 -7 40 -15 49 -8 8 -15 24 -15 36
0 11 -7 23 -15 26 -8 4 -15 12 -15 20 0 8 -7 14 -15 14 -9 0 -15 9 -15 25 0
16 -6 25 -15 25 -8 0 -15 7 -15 15 0 8 -7 15 -15 15 -8 0 -15 7 -15 15 0 8 -7
15 -15 15 -8 0 -23 9 -32 20 -10 11 -23 20 -30 20 -7 0 -13 4 -13 9 0 5 -11
12 -25 15 -14 4 -25 11 -25 16 0 6 -13 10 -30 10 -16 0 -33 6 -37 14 -5 7 -35
16 -73 20 -36 3 -66 11 -68 16 -5 14 -109 13 -114 -1 -2 -6 -35 -13 -73 -16
-44 -4 -73 -11 -78 -19 -4 -8 -19 -14 -32 -14 -14 0 -25 -4 -25 -9 0 -5 -13
-12 -30 -16 -16 -4 -30 -11 -30 -16 0 -5 -7 -9 -15 -9 -8 0 -15 -7 -15 -15 0
-8 -6 -15 -14 -15 -16 0 -106 -86 -106 -101 0 -6 -11 -20 -24 -32 -14 -13 -28
-35 -31 -50 -4 -15 -11 -27 -15 -27 -4 0 -10 -18 -14 -39 -3 -22 -12 -41 -18
-43 -18 -6 -19 -345 -1 -356 6 -4 15 -20 18 -35 4 -15 11 -27 15 -27 4 0 11
-12 15 -27 3 -15 17 -37 30 -48 12 -12 26 -32 30 -43 3 -12 11 -22 16 -22 5 0
9 -7 9 -15 0 -8 7 -15 15 -15 8 0 15 -6 15 -14 0 -8 14 -17 30 -21 16 -4 30
-11 30 -16 0 -5 7 -9 15 -9 8 0 15 -7 15 -15 0 -9 9 -15 25 -15 14 0 28 -7 31
-15 4 -9 19 -15 35 -15 19 0 29 -5 29 -15 0 -12 14 -15 69 -15 52 0 70 -4 75
-15 8 -21 86 -21 86 0 0 12 15 15 75 15 60 0 75 3 75 15 0 10 10 15 30 15 20
0 30 5 30 15 0 10 10 15 30 15 20 0 30 5 30 15 0 9 9 15 25 15 16 0 25 -6 25
-15 0 -8 7 -15 15 -15 8 0 15 -7 15 -15 0 -8 7 -15 15 -15 8 0 15 -7 15 -15 0
-8 9 -15 20 -15 11 0 20 -7 20 -15 0 -9 9 -15 25 -15 16 0 25 -6 25 -15 0 -8
7 -15 15 -15 8 0 15 -7 15 -15 0 -8 6 -15 14 -15 8 0 16 -5 18 -10 2 -7 379
-11 1178 -10 646 0 1185 -3 1198 -6 l22 -6 0 -264 0 -264 -950 0 c-627 0 -950
-3 -950 -10 0 -7 -198 -10 -575 -10 -377 0 -575 3 -575 10 0 6 -63 10 -169 10
-145 0 -170 -2 -175 -16 -3 -9 -6 -87 -6 -175 l0 -159 1686 0 c1447 0 1687 -2
1700 -14 22 -22 21 -516 -1 -516 -8 0 -15 -4 -15 -10 0 -7 -568 -10 -1685 -10
l-1685 0 2 -162 3 -163 1683 -3 c1110 -1 1682 -5 1682 -12 0 -6 7 -10 15 -10
13 0 15 -36 15 -265 l0 -265 -1200 0 c-1060 0 -1200 -2 -1200 -15 0 -8 -7 -15
-15 -15 -8 0 -15 -7 -15 -15 0 -8 -7 -15 -15 -15 -8 0 -15 -7 -15 -15 0 -8 -7
-15 -15 -15 -8 0 -15 -7 -15 -15 0 -8 -7 -15 -15 -15 -8 0 -15 -7 -15 -15 0
-9 -9 -15 -22 -15 -13 -1 -34 -14 -48 -30 -26 -32 -68 -40 -92 -17 -7 7 -21
16 -30 20 -10 3 -18 11 -18 17 0 5 -18 10 -40 10 -29 0 -40 4 -40 15 0 13 -23
15 -144 15 -119 0 -145 -3 -150 -15 -3 -10 -19 -15 -45 -15 -25 0 -41 -5 -45
-15 -3 -8 -17 -15 -31 -15 -16 0 -25 -6 -25 -15 0 -9 -9 -15 -24 -15 -13 0
-26 -7 -30 -15 -3 -8 -12 -15 -21 -15 -8 0 -15 -7 -15 -15 0 -8 -5 -15 -10
-15 -15 0 -80 -64 -80 -79 0 -6 -4 -11 -10 -11 -5 0 -12 -11 -16 -25 -3 -14
-10 -25 -14 -25 -5 0 -11 -13 -15 -30 -4 -16 -10 -30 -15 -30 -4 0 -11 -12
-15 -27 -3 -15 -12 -31 -18 -35 -16 -10 -16 -340 1 -346 6 -2 15 -21 18 -43 4
-21 10 -39 15 -39 5 0 9 -7 9 -15 0 -9 6 -18 14 -21 8 -3 17 -17 21 -31 6 -27
116 -143 134 -143 6 0 11 -6 11 -14 0 -8 14 -17 30 -21 17 -4 30 -11 30 -16 0
-5 11 -9 25 -9 14 0 28 -7 31 -15 4 -8 18 -15 34 -15 16 0 35 -7 44 -15 12
-12 44 -15 160 -15 123 0 146 2 146 15 0 11 12 15 45 15 33 0 45 4 45 15 0 9
9 15 24 15 13 0 26 7 30 15 3 8 12 15 21 15 8 0 15 4 15 9 0 5 9 13 20 16 23
7 120 101 120 115 0 6 7 10 15 10 9 0 15 9 15 25 0 16 6 25 15 25 10 0 15 10
15 30 0 20 5 30 15 30 11 0 15 12 15 45 0 33 4 45 15 45 22 0 22 261 0 283 -9
9 -15 38 -17 75 -2 54 1 62 26 86 16 14 35 26 41 26 7 0 15 7 19 15 3 8 17 15
31 15 14 0 25 5 25 10 0 6 14 10 30 10 17 0 30 -4 30 -10 0 -7 373 -10 1100
-10 l1100 0 0 -280 0 -280 -495 0 c-433 0 -495 -2 -495 -15 0 -8 -4 -15 -10
-15 -5 0 -34 -25 -64 -55 -29 -30 -59 -55 -65 -55 -6 0 -11 -7 -11 -15 0 -8
-7 -15 -15 -15 -8 0 -15 -7 -15 -15 0 -8 -7 -15 -15 -15 -8 0 -15 -7 -15 -15
0 -8 -7 -15 -15 -15 -8 0 -15 -7 -15 -15 0 -8 -7 -15 -15 -15 -8 0 -15 -7 -15
-15 0 -8 -7 -15 -15 -15 -8 0 -15 -7 -15 -15 0 -8 -7 -15 -15 -15 -8 0 -15 -7
-15 -15 0 -8 -7 -15 -15 -15 -8 0 -15 -7 -15 -15 0 -8 -7 -15 -15 -15 -8 0
-15 -7 -15 -15 0 -8 -7 -15 -15 -15 -8 0 -15 -7 -15 -15 0 -8 -7 -15 -15 -15
-8 0 -15 -4 -15 -10 0 -5 -11 -12 -25 -16 -14 -3 -25 -12 -25 -19 0 -18 -88
-105 -106 -105 -8 0 -14 -7 -14 -15 0 -8 -7 -15 -15 -15 -8 0 -15 -7 -15 -15
0 -8 -7 -15 -15 -15 -8 0 -15 -5 -15 -11 0 -14 -85 -99 -99 -99 -6 0 -11 -7
-11 -15 0 -8 -7 -15 -15 -15 -8 0 -15 -7 -15 -15 0 -8 -7 -15 -15 -15 -8 0
-15 -7 -15 -15 0 -8 -7 -15 -15 -15 -8 0 -15 -7 -15 -15 0 -8 -7 -15 -15 -15
-8 0 -15 -7 -15 -15 0 -8 -7 -15 -15 -15 -8 0 -15 -7 -15 -15 0 -8 -7 -15 -15
-15 -8 0 -15 -7 -15 -15 0 -8 -7 -15 -15 -15 -8 0 -15 -7 -15 -15 0 -8 -7 -15
-15 -15 -8 0 -15 -7 -15 -15 0 -8 -7 -15 -15 -15 -8 0 -15 -7 -15 -15 0 -8 -7
-15 -15 -15 -8 0 -15 -7 -15 -15 0 -8 -5 -15 -11 -15 -14 0 -99 -85 -99 -99 0
-6 -7 -11 -15 -11 -8 0 -15 -7 -15 -15 0 -8 -7 -15 -15 -15 -8 0 -15 -7 -15
-15 0 -8 -7 -15 -15 -15 -8 0 -15 -7 -15 -15 0 -8 -7 -15 -15 -15 -8 0 -15 -7
-15 -15 0 -8 -7 -15 -15 -15 -8 0 -15 -7 -15 -15 0 -8 -7 -15 -15 -15 -8 0
-15 -7 -15 -15 0 -8 -7 -15 -15 -15 -8 0 -15 -7 -15 -15 0 -8 -7 -15 -15 -15
-8 0 -15 -7 -15 -15 0 -8 -7 -15 -15 -15 -8 0 -15 -7 -15 -15 0 -8 -7 -15 -15
-15 -8 0 -15 -7 -15 -15 0 -8 -7 -15 -15 -15 -8 0 -15 -7 -15 -15 0 -8 -5 -15
-11 -15 -14 0 -39 -25 -39 -39 0 -6 -7 -11 -15 -11 -8 0 -15 -7 -15 -15 0 -8
-7 -15 -15 -15 -8 0 -15 -7 -15 -15 0 -11 -12 -15 -44 -15 -30 0 -46 5 -50 15
-3 10 -19 15 -45 15 -25 0 -41 5 -45 15 -4 12 -31 15 -150 15 -115 0 -148 -3
-160 -15 -8 -8 -28 -15 -45 -15 -16 0 -36 -7 -45 -15 -8 -8 -19 -15 -25 -15
-6 0 -11 -7 -11 -15 0 -10 -10 -15 -30 -15 -20 0 -30 -5 -30 -15 0 -8 -7 -15
-15 -15 -8 0 -15 -7 -15 -15 0 -8 -7 -15 -15 -15 -8 0 -15 -7 -15 -15 0 -8 -7
-15 -15 -15 -8 0 -15 -7 -15 -15 0 -8 -7 -15 -15 -15 -8 0 -15 -7 -15 -15 0
-8 -4 -15 -10 -15 -5 0 -12 -11 -16 -25 -3 -14 -10 -25 -14 -25 -5 0 -11 -14
-15 -30 -4 -17 -10 -30 -15 -30 -4 0 -11 -12 -15 -27 -3 -15 -12 -31 -18 -35
-17 -11 -17 -350 1 -356 6 -2 15 -21 18 -43 4 -21 10 -39 15 -39 5 0 9 -6 9
-13 0 -7 9 -20 20 -30 11 -9 20 -24 20 -32 0 -8 5 -15 10 -15 6 0 10 -7 10
-15 0 -8 7 -15 15 -15 8 0 15 -7 15 -15 0 -8 7 -15 15 -15 8 0 15 -7 15 -15 0
-8 7 -15 15 -15 8 0 15 -7 15 -15 0 -8 7 -15 15 -15 8 0 15 -4 15 -9 0 -5 14
-12 30 -16 17 -4 30 -10 30 -15 0 -5 14 -11 30 -15 16 -4 30 -11 30 -16 0 -5
18 -12 40 -15 22 -4 40 -10 40 -15 0 -5 61 -9 135 -9 74 0 135 4 135 9 0 4 19
11 41 14 23 3 45 10 48 15 3 5 21 12 39 15 18 4 43 18 56 32 13 14 27 25 31
25 12 0 105 97 105 109 0 6 7 11 15 11 8 0 15 7 15 15 0 8 7 15 15 15 10 0 15
10 15 30 0 20 5 30 15 30 10 0 15 10 15 30 0 20 5 30 15 30 11 0 15 13 15 54
0 35 5 56 13 58 8 3 12 33 12 103 0 70 -4 100 -12 102 -8 3 -13 24 -13 59 0
41 -4 54 -15 54 -10 0 -15 11 -15 35 0 24 5 35 15 35 8 0 15 5 15 11 0 6 20
31 45 56 25 24 45 51 45 59 0 8 7 14 15 14 8 0 15 7 15 15 0 8 7 15 15 15 8 0
15 7 15 15 0 8 7 15 15 15 8 0 15 7 15 15 0 8 5 15 11 15 6 0 24 14 41 30 16
17 36 30 44 30 8 0 14 7 14 15 0 8 7 15 15 15 8 0 15 7 15 15 0 8 7 15 15 15
8 0 15 7 15 15 0 8 7 15 15 15 8 0 15 7 15 15 0 8 7 15 15 15 8 0 15 7 15 15
0 8 7 15 15 15 8 0 15 7 15 15 0 8 7 15 15 15 8 0 15 5 15 11 0 14 25 39 39
39 6 0 11 7 11 15 0 8 7 15 15 15 8 0 15 7 15 15 0 8 7 15 15 15 8 0 15 7 15
15 0 8 7 15 15 15 8 0 15 7 15 15 0 8 7 15 15 15 8 0 15 7 15 15 0 8 7 15 15
15 8 0 15 7 15 15 0 8 7 15 15 15 8 0 15 7 15 15 0 8 7 15 15 15 8 0 15 7 15
15 0 8 7 15 15 15 8 0 15 7 15 15 0 8 7 15 15 15 8 0 15 7 15 15 0 8 7 15 15
15 8 0 15 7 15 15 0 8 5 15 11 15 6 0 51 40 100 89 49 49 89 94 89 100 0 6 7
11 15 11 8 0 15 7 15 15 0 8 7 15 15 15 8 0 15 7 15 15 0 8 7 15 15 15 8 0 15
7 15 15 0 8 7 15 15 15 8 0 15 7 15 15 0 8 7 15 15 15 8 0 15 7 15 15 0 8 7
15 15 15 8 0 15 7 15 15 0 8 5 15 11 15 6 0 29 18 50 40 22 22 43 40 49 40 5
0 10 7 10 15 0 8 7 15 15 15 8 0 15 7 15 15 0 8 7 15 15 15 8 0 15 5 15 10 0
6 11 21 25 34 14 13 25 28 25 35 0 6 6 11 13 11 6 1 23 14 37 30 l24 30 448 0
448 0 0 -295 c0 -256 2 -295 15 -295 10 0 15 -10 15 -30 0 -20 5 -30 15 -30
13 0 15 -39 15 -290 0 -187 4 -290 10 -290 16 0 13 -267 -2 -274 -10 -5 -10
-7 0 -12 14 -7 17 -74 2 -74 -5 0 -10 -11 -10 -25 0 -16 -6 -25 -15 -25 -8 0
-15 -7 -15 -15 0 -8 -7 -15 -15 -15 -8 0 -15 -7 -15 -15 0 -8 -7 -15 -15 -15
-8 0 -15 -7 -15 -15 0 -8 -7 -15 -15 -15 -8 0 -15 -7 -15 -15 0 -8 -7 -15 -15
-15 -8 0 -15 -7 -15 -15 0 -8 -5 -15 -11 -15 -14 0 -279 -265 -279 -279 0 -6
-7 -11 -15 -11 -8 0 -15 -7 -15 -15 0 -8 -7 -15 -15 -15 -8 0 -15 -7 -15 -15
0 -8 -7 -15 -15 -15 -8 0 -15 -7 -15 -15 0 -8 -5 -15 -11 -15 -14 0 -219 -205
-219 -219 0 -6 -7 -11 -15 -11 -8 0 -15 -7 -15 -15 0 -8 -7 -15 -15 -15 -8 0
-15 -7 -15 -15 0 -8 -7 -15 -15 -15 -8 0 -15 -7 -15 -15 0 -8 -7 -15 -15 -15
-8 0 -15 -7 -15 -15 0 -8 -7 -15 -15 -15 -8 0 -15 -7 -15 -15 0 -8 -7 -15 -15
-15 -8 0 -15 -7 -15 -15 0 -8 -5 -15 -11 -15 -6 0 -31 -20 -56 -45 -47 -47
-72 -55 -97 -30 -8 8 -28 15 -45 15 -16 0 -36 7 -45 15 -21 22 -231 22 -240 0
-4 -10 -20 -15 -51 -15 -25 0 -45 -4 -45 -10 0 -5 -12 -13 -27 -16 -15 -4 -34
-13 -41 -21 -7 -7 -20 -13 -28 -13 -8 0 -14 -4 -14 -9 0 -5 -13 -12 -30 -16
-16 -4 -30 -13 -30 -21 0 -8 -7 -14 -15 -14 -8 0 -15 -7 -15 -15 0 -8 -7 -15
-15 -15 -8 0 -15 -7 -15 -15 0 -8 -4 -15 -10 -15 -5 0 -12 -11 -16 -25 -3 -14
-12 -25 -20 -25 -8 0 -14 -7 -14 -15 0 -8 -4 -15 -9 -15 -5 0 -12 -14 -16 -30
-4 -17 -11 -30 -15 -30 -5 0 -12 -17 -16 -37 -4 -21 -12 -41 -18 -45 -15 -10
-15 -316 0 -326 6 -4 14 -25 17 -46 4 -22 10 -42 15 -45 5 -3 12 -16 16 -28 4
-13 12 -23 17 -23 5 0 9 -7 9 -15 0 -9 7 -18 15 -21 8 -4 15 -12 15 -20 0 -8
7 -14 15 -14 8 0 15 -7 15 -15 0 -8 7 -15 15 -15 8 0 15 -7 15 -15 0 -8 5 -15
10 -15 6 0 21 -11 34 -25 13 -14 28 -25 35 -25 6 0 11 -7 11 -15 0 -10 10 -15
30 -15 20 0 30 -5 30 -15 0 -10 10 -15 29 -15 16 0 36 -6 44 -14 14 -15 86
-19 275 -17 75 1 92 4 92 16 0 10 10 15 30 15 17 0 30 4 30 10 0 5 12 13 27
16 15 4 34 13 41 21 7 7 20 13 28 13 8 0 14 7 14 15 0 8 4 15 10 15 12 0 110
98 110 110 0 6 7 10 15 10 9 0 15 9 15 24 0 13 7 26 15 30 8 3 15 16 15 30 0
13 5 26 10 28 6 2 13 21 17 43 3 22 11 43 17 47 16 11 15 230 -1 235 -8 3 -13
24 -13 59 0 41 -4 54 -15 54 -10 0 -15 10 -15 30 0 20 -5 30 -15 30 -10 0 -15
10 -15 30 0 20 5 30 15 30 8 0 15 7 15 15 0 8 7 15 15 15 8 0 15 7 15 15 0 8
7 15 15 15 8 0 15 7 15 15 0 8 7 15 15 15 8 0 15 7 15 15 0 8 5 15 11 15 14 0
69 55 69 69 0 6 7 11 15 11 8 0 15 7 15 15 0 8 7 15 15 15 8 0 15 7 15 15 0 8
7 15 15 15 8 0 15 7 15 15 0 8 7 15 15 15 8 0 15 7 15 15 0 8 7 15 15 15 8 0
15 7 15 15 0 8 7 15 15 15 8 0 15 7 15 15 0 8 7 15 15 15 8 0 15 7 15 15 0 8
7 15 15 15 8 0 15 7 15 15 0 8 7 15 15 15 8 0 15 7 15 15 0 8 7 15 15 15 8 0
15 7 15 15 0 8 5 15 11 15 14 0 159 145 159 159 0 6 7 11 15 11 8 0 15 7 15
15 0 8 7 15 15 15 8 0 15 7 15 15 0 8 7 15 15 15 8 0 15 7 15 15 0 8 7 15 15
15 8 0 15 7 15 15 0 8 7 15 15 15 8 0 15 7 15 15 0 8 7 15 15 15 8 0 15 7 15
15 0 8 5 15 11 15 14 0 249 235 249 249 0 6 7 11 15 11 8 0 15 7 15 15 0 8 7
15 15 15 13 0 15 57 15 449 0 247 3 456 6 465 5 14 40 16 280 16 l274 0 0
-220 c0 -140 4 -220 10 -220 6 0 10 -123 10 -350 0 -227 -4 -350 -10 -350 -6
0 -10 -83 -10 -230 0 -147 4 -230 10 -230 16 0 14 -767 -2 -774 -10 -5 -10 -7
0 -12 14 -7 16 -34 2 -34 -5 0 -10 -7 -10 -15 0 -8 -7 -15 -15 -15 -8 0 -15
-7 -15 -15 0 -8 -7 -15 -15 -15 -8 0 -15 -7 -15 -15 0 -8 -7 -15 -15 -15 -8 0
-15 -7 -15 -15 0 -8 -7 -15 -15 -15 -8 0 -15 -7 -15 -15 0 -8 -7 -15 -15 -15
-8 0 -15 -7 -15 -15 0 -8 -7 -15 -15 -15 -8 0 -15 -7 -15 -15 0 -8 -7 -15 -15
-15 -8 0 -15 -7 -15 -15 0 -8 -7 -15 -15 -15 -8 0 -15 -7 -15 -15 0 -8 -7 -15
-15 -15 -8 0 -15 -5 -15 -11 0 -14 -115 -129 -129 -129 -6 0 -11 -7 -11 -15 0
-8 -7 -15 -15 -15 -8 0 -15 -6 -15 -14 0 -7 -9 -16 -21 -19 -28 -7 -92 3 -101
17 -5 7 -60 11 -158 11 -98 0 -153 -4 -158 -11 -4 -6 -25 -14 -47 -17 -22 -4
-41 -11 -43 -17 -2 -5 -15 -10 -28 -10 -14 0 -27 -6 -30 -14 -3 -8 -16 -17
-30 -20 -13 -4 -24 -11 -24 -16 0 -6 -7 -10 -15 -10 -8 0 -15 -7 -15 -15 0 -8
-7 -15 -15 -15 -8 0 -15 -7 -15 -15 0 -8 -7 -15 -15 -15 -8 0 -15 -7 -15 -15
0 -8 -6 -15 -14 -15 -8 0 -17 -11 -20 -25 -4 -14 -11 -25 -16 -25 -6 0 -10 -7
-10 -15 0 -9 -7 -18 -15 -21 -8 -4 -15 -17 -15 -30 0 -15 -6 -24 -15 -24 -11
0 -15 -12 -15 -45 0 -33 -4 -45 -15 -45 -13 0 -15 -23 -15 -150 0 -127 2 -150
15 -150 11 0 15 -11 15 -39 0 -25 5 -41 15 -45 8 -3 15 -16 15 -30 0 -13 7
-26 15 -30 8 -3 15 -17 15 -31 0 -16 6 -25 15 -25 8 0 15 -7 15 -15 0 -8 7
-15 15 -15 8 0 15 -7 15 -15 0 -8 7 -15 15 -15 8 0 15 -7 15 -15 0 -8 7 -15
15 -15 8 0 15 -7 15 -15 0 -9 9 -15 25 -15 16 0 25 -6 25 -15 0 -8 9 -15 20
-15 11 0 20 -4 20 -10 0 -5 12 -13 27 -16 15 -4 34 -13 41 -21 7 -7 33 -13 58
-13 24 0 44 -4 44 -10 0 -6 45 -10 115 -10 63 0 115 4 115 9 0 4 19 11 42 14
24 3 44 11 46 16 2 6 17 11 33 11 19 0 29 5 29 15 0 9 9 15 25 15 14 0 28 7
31 15 4 8 12 15 20 15 8 0 14 7 14 15 0 8 6 15 14 15 19 0 76 57 76 76 0 8 7
14 15 14 8 0 15 7 15 15 0 8 4 15 9 15 5 0 12 13 16 30 4 16 11 30 16 30 5 0
9 11 9 25 0 13 6 28 14 32 7 4 16 30 19 58 3 27 10 51 16 53 15 5 15 179 0
184 -6 2 -14 28 -17 58 -3 30 -11 60 -18 68 -8 7 -14 20 -14 28 0 9 -7 22 -15
30 -25 25 -17 50 30 97 25 25 45 50 45 56 0 6 7 11 15 11 8 0 15 7 15 15 0 8
7 15 15 15 8 0 15 7 15 15 0 8 5 15 11 15 14 0 279 265 279 279 0 6 6 11 13
11 14 0 47 35 47 50 0 6 5 10 10 10 6 0 19 9 30 20 11 11 20 25 20 30 0 6 7
10 15 10 13 0 15 148 15 1268 l0 1269 287 6 c157 4 289 4 292 1 3 -3 7 -899 9
-1990 l2 -1984 156 0 c113 0 159 3 168 13 11 10 14 399 19 1981 3 1082 9 1971
12 1975 4 3 129 6 278 6 l272 0 3 -27 c2 -16 8 -28 13 -28 5 0 9 -703 9 -1830
l0 -1830 159 0 c156 0 159 0 165 23 3 12 6 846 6 1853 0 1661 1 1832 16 1838
9 3 138 6 288 6 l273 0 6 -157 c4 -87 7 -200 7 -250 0 -55 4 -93 10 -93 6 0
10 -100 10 -280 0 -180 -4 -280 -10 -280 -5 0 -10 -18 -10 -40 0 -22 5 -40 10
-40 6 0 10 -125 10 -355 0 -230 -4 -355 -10 -355 -6 0 -10 -90 -10 -250 0
-160 4 -250 10 -250 6 0 10 -45 10 -115 0 -96 3 -115 15 -115 8 0 15 -7 15
-15 0 -8 7 -15 15 -15 8 0 15 -7 15 -15 0 -8 7 -15 15 -15 8 0 15 -7 15 -15 0
-8 7 -15 15 -15 8 0 15 -7 15 -15 0 -8 7 -15 15 -15 8 0 15 -7 15 -15 0 -8 7
-15 15 -15 8 0 15 -7 15 -15 0 -8 7 -15 15 -15 8 0 15 -5 15 -11 0 -14 55 -69
69 -69 6 0 11 -7 11 -15 0 -8 7 -15 15 -15 8 0 15 -7 15 -15 0 -8 7 -15 15
-15 8 0 15 -7 15 -15 0 -8 7 -15 15 -15 8 0 15 -7 15 -15 0 -8 7 -15 15 -15 8
0 15 -7 15 -15 0 -8 7 -15 15 -15 8 0 15 -7 15 -15 0 -8 7 -15 15 -15 8 0 15
-7 15 -15 0 -8 7 -15 15 -15 8 0 15 -7 15 -15 0 -8 7 -15 15 -15 8 0 15 -7 15
-15 0 -8 7 -15 15 -15 8 0 15 -7 15 -15 0 -8 7 -15 16 -15 11 0 14 -6 8 -22
-3 -13 -11 -24 -15 -26 -5 -2 -9 -12 -9 -22 0 -10 -6 -25 -13 -32 -8 -7 -17
-31 -20 -53 -4 -22 -11 -41 -17 -43 -6 -2 -10 -53 -10 -132 0 -104 3 -129 15
-134 10 -3 15 -19 15 -45 0 -25 5 -41 15 -45 8 -3 15 -17 15 -31 0 -16 6 -25
15 -25 8 0 15 -7 15 -15 0 -8 4 -15 9 -15 5 0 12 -14 16 -30 4 -17 13 -30 21
-30 8 0 14 -7 14 -15 0 -8 7 -15 15 -15 8 0 15 -7 15 -15 0 -8 7 -15 15 -15 8
0 15 -4 15 -10 0 -5 11 -12 25 -16 14 -3 25 -12 25 -20 0 -9 11 -14 30 -14 20
0 30 -5 30 -15 0 -10 10 -15 29 -15 16 0 31 -5 33 -11 2 -5 22 -13 46 -16 23
-3 42 -10 42 -14 0 -5 52 -9 115 -9 63 0 115 4 115 9 0 4 19 11 42 14 24 3 44
11 46 16 2 6 17 11 33 11 19 0 29 5 29 15 0 9 9 15 25 15 14 0 28 7 31 15 4 8
12 15 20 15 8 0 14 7 14 15 0 9 9 15 25 15 16 0 25 6 25 15 0 8 7 15 15 15 8
0 15 7 15 15 0 8 7 15 15 15 9 0 15 9 15 25 0 14 6 28 14 31 8 3 17 16 20 30
4 13 11 24 16 24 6 0 10 9 10 19 0 11 7 26 15 35 8 8 15 28 15 45 0 21 5 31
15 31 13 0 15 22 15 140 0 118 -2 140 -15 140 -11 0 -15 12 -15 44 0 30 -5 46
-15 50 -8 3 -15 16 -15 30 0 13 -7 26 -15 30 -8 3 -15 17 -15 31 0 16 -6 25
-15 25 -8 0 -15 7 -15 15 0 8 -7 15 -15 15 -8 0 -15 7 -15 15 0 8 -4 15 -10
15 -5 0 -10 7 -10 15 0 8 -9 15 -20 15 -11 0 -20 7 -20 15 0 8 -7 15 -15 15
-8 0 -15 4 -15 10 0 5 -11 12 -25 16 -14 3 -25 12 -25 20 0 9 -11 14 -29 14
-16 0 -31 6 -35 15 -3 9 -18 15 -40 15 -19 0 -36 6 -38 13 -4 9 -45 12 -163
12 -118 0 -159 -3 -162 -12 -3 -7 -18 -13 -34 -13 -19 0 -29 -5 -29 -15 0 -8
-7 -15 -15 -15 -8 0 -15 5 -15 10 0 6 -7 10 -15 10 -8 0 -15 7 -15 15 0 8 -6
15 -14 15 -8 0 -62 47 -119 105 -58 58 -110 105 -116 105 -6 0 -11 7 -11 15 0
8 -7 15 -15 15 -8 0 -15 7 -15 15 0 8 -7 15 -15 15 -8 0 -15 7 -15 15 0 8 -7
15 -15 15 -8 0 -15 7 -15 15 0 8 -7 15 -15 15 -8 0 -15 7 -15 15 0 8 -7 15
-15 15 -8 0 -15 7 -15 15 0 8 -7 15 -15 15 -8 0 -15 7 -15 15 0 8 -7 15 -15
15 -13 0 -15 140 -13 1228 l3 1227 277 3 c241 2 278 0 292 -14 14 -14 16 -68
16 -470 0 -397 2 -454 15 -454 8 0 15 -7 15 -15 0 -8 7 -15 15 -15 8 0 15 -5
15 -11 0 -6 83 -94 185 -195 102 -101 185 -189 185 -194 0 -6 4 -10 9 -10 6 0
75 -65 154 -145 80 -80 150 -145 156 -145 6 0 11 -7 11 -15 0 -8 7 -15 15 -15
8 0 15 -7 15 -15 0 -8 7 -15 15 -15 8 0 15 -7 15 -15 0 -8 7 -15 15 -15 8 0
15 -7 15 -15 0 -8 7 -15 15 -15 8 0 15 -7 15 -15 0 -8 7 -15 15 -15 8 0 15 -5
15 -11 0 -6 52 -62 115 -125 103 -103 115 -119 115 -150 0 -20 -7 -42 -15 -50
-8 -9 -15 -26 -15 -39 0 -12 -7 -25 -15 -29 -10 -4 -15 -20 -15 -50 0 -25 -5
-46 -12 -48 -14 -5 -15 -217 -1 -227 6 -3 13 -24 16 -46 4 -22 11 -41 17 -43
5 -2 10 -17 10 -33 0 -19 5 -29 15 -29 9 0 15 -9 15 -25 0 -16 6 -25 15 -25 8
0 15 -9 15 -20 0 -11 7 -20 15 -20 8 0 15 -7 15 -15 0 -8 7 -15 15 -15 8 0 15
-7 15 -15 0 -8 7 -15 15 -15 8 0 15 -4 15 -10 0 -5 7 -10 15 -10 8 0 15 -6 15
-14 0 -8 11 -17 25 -20 14 -4 25 -11 25 -16 0 -6 9 -10 20 -10 11 0 20 -7 20
-15 0 -11 11 -15 40 -15 29 0 40 -4 40 -15 0 -12 15 -15 75 -15 60 0 75 -3 75
-15 0 -11 11 -15 39 -15 25 0 41 5 45 15 4 11 22 15 75 15 52 0 70 4 75 15 3
8 16 15 30 15 13 0 26 7 30 15 3 8 16 15 30 15 13 0 26 7 30 15 3 8 17 15 31
15 16 0 25 6 25 15 0 8 7 15 15 15 8 0 15 7 15 15 0 8 7 15 15 15 8 0 15 7 15
15 0 8 7 15 15 15 8 0 15 7 15 15 0 8 7 15 15 15 8 0 15 7 15 15 0 8 4 15 10
15 5 0 12 11 16 25 3 14 10 25 14 25 5 0 11 14 15 30 4 17 10 30 15 30 4 0 11
20 14 45 4 25 11 45 17 45 5 0 9 52 9 120 0 66 -4 120 -9 120 -5 0 -11 23 -13
51 -3 28 -10 54 -16 58 -6 3 -14 19 -17 34 -4 15 -11 27 -15 27 -5 0 -11 13
-15 30 -4 16 -11 30 -16 30 -5 0 -9 7 -9 15 0 8 -7 15 -15 15 -8 0 -15 7 -15
15 0 8 -7 15 -15 15 -8 0 -15 7 -15 15 0 8 -7 15 -15 15 -8 0 -15 7 -15 15 0
8 -7 15 -15 15 -8 0 -15 5 -15 10 0 6 -7 10 -15 10 -8 0 -15 6 -15 14 0 8 -13
17 -30 21 -16 4 -30 11 -30 16 0 5 -11 9 -25 9 -14 0 -28 7 -31 15 -4 10 -20
15 -49 15 -25 0 -50 6 -59 15 -21 22 -216 22 -216 0 0 -11 -13 -15 -54 -15
-39 0 -55 -4 -60 -15 -3 -8 -17 -15 -31 -15 -16 0 -25 6 -25 15 0 8 -7 15 -15
15 -8 0 -15 7 -15 15 0 8 -7 15 -15 15 -8 0 -15 7 -15 15 0 8 -7 15 -15 15 -8
0 -15 7 -15 15 0 8 -7 15 -15 15 -8 0 -15 7 -15 15 0 8 -7 15 -15 15 -8 0 -15
7 -15 15 0 8 -7 15 -15 15 -8 0 -15 7 -15 15 0 8 -7 15 -15 15 -8 0 -15 7 -15
15 0 8 -7 15 -15 15 -8 0 -15 7 -15 15 0 8 -5 15 -11 15 -14 0 -189 175 -189
189 0 6 -7 11 -15 11 -8 0 -15 7 -15 15 0 8 -7 15 -15 15 -8 0 -15 7 -15 15 0
8 -7 15 -15 15 -8 0 -15 7 -15 15 0 8 -7 15 -15 15 -8 0 -15 7 -15 15 0 8 -7
15 -15 15 -8 0 -15 7 -15 15 0 8 -7 15 -15 15 -8 0 -15 7 -15 15 0 8 -7 15
-15 15 -8 0 -15 7 -15 15 0 8 -7 15 -15 15 -8 0 -15 7 -15 15 0 8 -5 15 -11
15 -14 0 -219 205 -219 219 0 6 -7 11 -15 11 -8 0 -15 7 -15 15 0 8 -7 15 -15
15 -8 0 -15 7 -15 15 0 8 -7 15 -15 15 -8 0 -15 7 -15 15 0 8 -7 15 -15 15 -8
0 -15 7 -15 15 0 8 -7 15 -15 15 -13 0 -15 58 -15 465 0 407 2 465 15 465 10
0 15 10 15 30 0 20 5 30 15 30 13 0 15 41 15 310 l0 310 174 0 c96 0 176 4
178 9 2 4 119 11 261 15 229 7 258 6 263 -8 3 -9 12 -16 20 -16 8 0 14 -7 14
-15 0 -8 7 -15 15 -15 8 0 15 -7 15 -15 0 -8 7 -15 15 -15 8 0 15 -7 15 -15 0
-8 5 -15 11 -15 6 0 38 -27 71 -60 33 -33 66 -60 74 -60 8 0 14 -7 14 -15 0
-8 7 -15 15 -15 8 0 15 -7 15 -15 0 -8 7 -15 15 -15 8 0 15 -7 15 -15 0 -8 7
-15 15 -15 8 0 15 -7 15 -15 0 -8 5 -15 11 -15 6 0 42 -31 80 -70 38 -38 74
-70 79 -70 6 0 10 -5 10 -11 0 -14 205 -219 219 -219 6 0 11 -7 11 -15 0 -8 7
-15 15 -15 8 0 15 -7 15 -15 0 -8 7 -15 15 -15 8 0 15 -7 15 -15 0 -8 7 -15
15 -15 8 0 15 -7 15 -15 0 -8 7 -15 15 -15 8 0 15 -7 15 -15 0 -8 7 -15 15
-15 8 0 15 -7 15 -15 0 -8 7 -15 15 -15 8 0 15 -7 15 -15 0 -8 7 -15 15 -15 8
0 15 -7 15 -15 0 -8 5 -15 11 -15 6 0 24 -14 41 -30 16 -17 35 -30 43 -30 7 0
16 -11 19 -25 4 -15 16 -27 31 -31 14 -3 25 -12 25 -20 0 -8 7 -14 15 -14 8 0
15 -7 15 -15 0 -8 7 -15 15 -15 8 0 15 -5 15 -11 0 -14 115 -129 129 -129 6 0
11 -7 11 -15 0 -8 7 -15 15 -15 8 0 15 -7 15 -15 0 -8 7 -15 15 -15 8 0 15 -7
15 -15 0 -8 7 -15 15 -15 8 0 15 -7 15 -15 0 -8 6 -15 14 -15 8 0 17 -11 20
-25 4 -15 16 -27 31 -31 14 -3 25 -12 25 -20 0 -8 7 -14 15 -14 8 0 15 -7 15
-15 0 -8 7 -15 15 -15 11 0 15 -11 15 -40 0 -29 -4 -40 -15 -40 -11 0 -15 -12
-15 -45 0 -33 -4 -45 -15 -45 -13 0 -15 -23 -15 -149 0 -120 3 -153 15 -165 8
-8 15 -26 15 -41 0 -14 7 -28 15 -31 8 -4 15 -17 15 -30 0 -15 6 -24 15 -24
10 0 15 -10 15 -30 0 -20 5 -30 15 -30 8 0 15 -7 15 -15 0 -8 7 -15 15 -15 8
0 15 -7 15 -15 0 -8 7 -15 15 -15 8 0 15 -7 15 -15 0 -8 7 -15 15 -15 8 0 15
-7 15 -15 0 -8 7 -15 15 -15 8 0 15 -4 15 -9 0 -5 12 -12 26 -15 15 -4 33 -14
41 -21 8 -8 23 -15 34 -15 10 0 19 -4 19 -9 0 -5 25 -13 55 -16 30 -4 55 -11
55 -16 0 -5 54 -9 120 -9 67 0 120 4 120 9 0 5 25 13 55 16 30 4 55 11 55 15
0 5 14 11 30 15 17 4 30 11 30 16 0 5 7 9 15 9 8 0 15 7 15 15 0 8 6 15 14 15
19 0 106 87 106 106 0 8 7 14 15 14 8 0 15 7 15 15 0 8 5 15 10 15 6 0 10 7
10 15 0 8 9 23 20 32 11 10 20 23 20 30 0 7 4 13 9 13 5 0 12 25 16 55 3 30
11 55 16 55 13 0 12 267 -2 272 -5 2 -13 22 -16 46 -3 23 -10 42 -14 42 -5 0
-9 6 -9 14 0 8 -6 21 -14 28 -7 8 -17 25 -21 38 -4 13 -18 33 -31 45 -13 12
-24 27 -24 34 0 6 -7 11 -15 11 -8 0 -15 7 -15 15 0 8 -7 15 -15 15 -8 0 -15
7 -15 15 0 8 -7 15 -15 15 -8 0 -15 7 -15 15 0 10 -10 15 -30 15 -20 0 -30 5
-30 15 0 10 -10 15 -30 15 -20 0 -30 5 -30 15 0 11 -11 15 -39 15 -25 0 -41 5
-45 15 -4 12 -31 15 -151 15 -122 0 -145 -2 -145 -15 0 -11 -11 -15 -40 -15
-27 0 -43 -5 -46 -15 -4 -9 -19 -15 -40 -15 -28 0 -45 12 -118 85 -46 47 -89
85 -95 85 -6 0 -11 7 -11 15 0 8 -7 15 -15 15 -8 0 -15 7 -15 15 0 8 -7 15
-15 15 -8 0 -15 7 -15 15 0 8 -7 15 -15 15 -8 0 -15 7 -15 15 0 8 -7 15 -15
15 -8 0 -15 7 -15 15 0 8 -7 15 -15 15 -8 0 -15 7 -15 15 0 8 -7 15 -15 15 -8
0 -15 7 -15 15 0 8 -7 15 -15 15 -8 0 -15 7 -15 15 0 8 -7 15 -15 15 -8 0 -15
7 -15 15 0 8 -7 15 -15 15 -8 0 -15 7 -15 15 0 8 -5 15 -11 15 -14 0 -39 25
-39 39 0 6 -7 11 -15 11 -8 0 -15 7 -15 15 0 8 -7 15 -15 15 -8 0 -15 7 -15
15 0 8 -7 15 -15 15 -8 0 -15 7 -15 15 0 8 -7 15 -15 15 -8 0 -15 7 -15 15 0
8 -7 15 -15 15 -8 0 -15 7 -15 15 0 8 -7 15 -15 15 -8 0 -15 7 -15 15 0 8 -7
15 -15 15 -8 0 -15 7 -15 15 0 8 -7 15 -15 15 -8 0 -15 7 -15 15 0 8 -7 15
-15 15 -8 0 -15 7 -15 15 0 8 -7 15 -15 15 -8 0 -15 7 -15 15 0 8 -7 15 -15
15 -8 0 -15 7 -15 15 0 8 -5 15 -11 15 -6 0 -51 40 -100 89 -49 49 -89 94 -89
100 0 6 -6 11 -14 11 -8 0 -41 27 -74 60 -33 33 -65 60 -71 60 -6 0 -11 7 -11
15 0 8 -7 15 -15 15 -8 0 -15 7 -15 15 0 8 -7 15 -15 15 -8 0 -15 7 -15 15 0
8 -7 15 -15 15 -8 0 -15 7 -15 15 0 8 -7 15 -15 15 -8 0 -15 7 -15 15 0 8 -7
15 -15 15 -8 0 -15 7 -15 15 0 8 -7 15 -15 15 -8 0 -15 7 -15 15 0 8 -7 15
-15 15 -8 0 -15 7 -15 15 0 8 -7 15 -15 15 -8 0 -15 7 -15 15 0 8 -7 15 -15
15 -8 0 -15 5 -15 10 0 6 -7 10 -15 10 -8 0 -15 7 -15 15 0 8 -7 15 -15 15 -8
0 -15 7 -15 15 0 8 -7 15 -15 15 -8 0 -15 7 -15 15 0 8 -7 15 -15 15 -8 0 -15
7 -15 15 0 8 -7 15 -15 15 -8 0 -15 7 -15 15 0 8 -7 15 -15 15 -8 0 -15 7 -15
15 0 13 -63 15 -510 15 l-510 0 0 274 0 274 23 6 c12 3 534 6 1159 6 997 0
1138 -2 1152 -15 8 -8 19 -15 25 -15 6 0 11 -7 11 -15 0 -8 7 -15 15 -15 8 0
15 -7 15 -15 0 -8 7 -15 15 -15 12 0 15 -13 15 -60 0 -47 -3 -60 -15 -60 -13
0 -15 -24 -15 -160 0 -136 2 -160 15 -160 11 0 15 -11 15 -40 0 -27 5 -43 15
-46 8 -4 15 -17 15 -30 0 -15 6 -24 15 -24 8 0 15 -9 15 -20 0 -11 7 -20 15
-20 8 0 15 -5 15 -11 0 -14 80 -93 103 -102 9 -3 17 -11 17 -17 0 -5 7 -10 15
-10 8 0 15 -7 15 -15 0 -9 9 -15 25 -15 14 0 28 -7 31 -15 4 -8 18 -15 34 -15
16 0 35 -7 44 -15 22 -22 320 -22 342 0 9 8 28 15 44 15 16 0 30 7 34 15 3 8
17 15 31 15 16 0 25 6 25 15 0 10 10 15 30 15 20 0 30 5 30 15 0 8 7 15 15 15
8 0 15 7 15 15 0 8 7 15 15 15 8 0 15 7 15 15 0 8 7 15 15 15 8 0 15 7 15 15
0 8 4 15 10 15 5 0 12 11 16 25 3 14 12 25 20 25 8 0 14 7 14 15 0 8 4 15 9
15 5 0 12 13 16 30 4 16 10 30 14 30 5 0 11 19 14 42 3 24 11 44 16 46 13 4
15 272 2 272 -5 0 -11 18 -15 40 -3 22 -11 40 -16 40 -6 0 -10 13 -10 29 0 16
-7 36 -15 45 -8 8 -15 20 -15 26 0 6 -7 13 -15 16 -8 4 -15 12 -15 19 0 18
-88 105 -106 105 -8 0 -14 7 -14 15 0 8 -7 15 -15 15 -8 0 -15 4 -15 9 0 5
-11 12 -25 15 -14 4 -25 11 -25 16 0 6 -9 10 -20 10 -11 0 -20 7 -20 15 0 11
-12 15 -44 15 -26 0 -51 6 -60 15 -11 12 -42 15 -145 15 -110 0 -131 -2 -131
-15 0 -11 -12 -15 -45 -15 -33 0 -45 -4 -45 -15 0 -9 -9 -15 -25 -15 -16 0
-25 -6 -25 -15 0 -10 -10 -15 -30 -15 -18 0 -33 6 -36 15 -4 8 -12 15 -20 15
-8 0 -14 7 -14 15 0 9 -9 15 -25 15 -16 0 -25 6 -25 15 0 8 -7 15 -15 15 -8 0
-15 7 -15 15 0 8 -7 15 -15 15 -8 0 -15 7 -15 15 0 8 -7 15 -15 15 -8 0 -15 7
-15 15 0 8 -7 15 -15 15 -8 0 -15 7 -15 15 0 14 -128 16 -1197 15 -659 0
-1206 -1 -1215 0 -17 0 -18 19 -18 265 0 229 2 265 15 265 8 0 15 5 15 10 0 7
566 10 1678 10 922 0 1687 3 1700 6 22 6 22 9 22 165 l0 159 -1700 0 c-1504 0
-1700 2 -1700 15 0 8 -7 15 -15 15 -22 0 -23 484 -1 506 12 12 143 14 880 14
l864 0 30 30 c17 17 35 30 41 30 6 0 11 7 11 15 0 8 7 15 15 15 8 0 15 7 15
15 0 8 7 15 15 15 8 0 15 7 15 15 0 8 7 15 15 15 8 0 15 7 15 15 0 8 7 15 15
15 8 0 15 7 15 15 0 8 7 15 15 15 8 0 15 7 15 15 0 8 7 15 15 15 8 0 15 7 15
15 0 8 7 15 15 15 8 0 15 7 15 15 0 8 5 15 11 15 6 0 62 52 125 115 64 63 119
115 125 115 5 0 9 5 9 11 0 6 33 44 74 85 41 41 79 74 85 74 6 0 11 7 11 15 0
8 7 15 15 15 8 0 15 7 15 15 0 8 7 15 15 15 8 0 15 7 15 15 0 8 7 15 15 15 8
0 15 7 15 15 0 8 7 15 15 15 8 0 15 7 15 15 0 8 6 15 14 15 8 0 28 14 44 30
34 34 47 37 56 15 3 -8 16 -15 30 -15 13 0 26 -7 30 -15 3 -10 19 -15 46 -15
22 0 40 -4 40 -10 0 -6 45 -10 115 -10 70 0 115 4 115 10 0 6 20 10 45 10 31
0 47 5 51 15 4 8 17 15 30 15 15 0 24 6 24 15 0 10 10 15 30 15 20 0 30 5 30
15 0 8 7 15 15 15 8 0 15 7 15 15 0 8 7 15 15 15 8 0 15 7 15 15 0 9 9 15 24
15 19 0 26 7 31 30 4 17 13 30 21 30 8 0 14 7 14 15 0 8 4 15 10 15 5 0 12 11
16 25 3 14 10 25 14 25 5 0 11 14 15 30 4 17 10 30 15 30 5 0 12 20 16 45 3
25 10 45 15 45 5 0 9 65 9 145 0 85 -4 145 -10 145 -5 0 -12 16 -16 35 -3 19
-10 35 -15 35 -5 0 -9 11 -9 25 0 14 -6 28 -14 31 -8 3 -17 16 -20 30 -4 13
-11 24 -16 24 -6 0 -10 7 -10 15 0 8 -7 15 -15 15 -8 0 -15 7 -15 15 0 8 -7
15 -15 15 -8 0 -15 7 -15 15 0 8 -7 15 -15 15 -8 0 -15 7 -15 15 0 8 -7 15
-15 15 -8 0 -15 7 -15 15 0 8 -7 15 -15 15 -8 0 -15 4 -15 9 0 5 -13 12 -30
16 -16 4 -30 11 -30 15 0 5 -17 12 -37 16 -21 4 -41 12 -45 18 -11 17 -350 15
-355 -1 -3 -7 -17 -13 -33 -13 -16 0 -35 -6 -42 -13 -7 -8 -26 -17 -41 -21
-15 -3 -27 -11 -27 -16 0 -6 -7 -10 -15 -10 -8 0 -15 -7 -15 -15 0 -8 -7 -15
-15 -15 -8 0 -15 -7 -15 -15 0 -8 -7 -15 -15 -15 -8 0 -15 -7 -15 -15 0 -8 -7
-15 -15 -15 -8 0 -15 -7 -15 -15 0 -8 -7 -15 -15 -15 -8 0 -15 -7 -15 -15 0
-8 -7 -15 -15 -15 -10 0 -15 -10 -15 -30 0 -20 -5 -30 -15 -30 -11 0 -15 -11
-15 -40 0 -29 -4 -40 -15 -40 -12 0 -15 -14 -15 -65 0 -37 -4 -65 -10 -65 -6
0 -10 -30 -10 -70 0 -40 4 -70 10 -70 6 0 10 -26 10 -59 0 -40 5 -65 15 -75 8
-8 15 -32 15 -55 0 -30 -4 -41 -15 -41 -8 0 -15 -7 -15 -15 0 -8 -7 -15 -15
-15 -8 0 -15 -7 -15 -15 0 -8 -7 -15 -15 -15 -8 0 -15 -7 -15 -15 0 -8 -7 -15
-15 -15 -8 0 -15 -7 -15 -15 0 -8 -7 -15 -15 -15 -8 0 -15 -7 -15 -15 0 -8 -7
-15 -15 -15 -8 0 -15 -7 -15 -15 0 -8 -7 -15 -15 -15 -8 0 -15 -5 -15 -11 0
-6 -20 -30 -44 -55 -25 -24 -49 -44 -55 -44 -6 0 -11 -7 -11 -15 0 -8 -7 -15
-15 -15 -8 0 -15 -7 -15 -15 0 -8 -7 -15 -15 -15 -8 0 -15 -7 -15 -15 0 -8 -7
-15 -15 -15 -8 0 -15 -7 -15 -15 0 -8 -7 -15 -15 -15 -8 0 -15 -7 -15 -15 0
-8 -7 -15 -15 -15 -8 0 -15 -7 -15 -15 0 -8 -7 -15 -15 -15 -8 0 -15 -7 -15
-15 0 -8 -7 -15 -15 -15 -8 0 -15 -6 -15 -14 0 -8 -11 -17 -25 -20 -14 -4 -25
-11 -25 -16 0 -6 -7 -10 -15 -10 -8 0 -15 -7 -15 -15 0 -8 -7 -15 -15 -15 -8
0 -15 -7 -15 -15 0 -8 -7 -15 -15 -15 -8 0 -15 -7 -15 -15 0 -8 -7 -15 -15
-15 -8 0 -15 -7 -15 -15 0 -8 -7 -15 -15 -15 -8 0 -15 -7 -15 -15 0 -8 -7 -15
-15 -15 -8 0 -15 -7 -15 -15 0 -8 -7 -15 -15 -15 -8 0 -15 -7 -15 -15 0 -8 -7
-15 -15 -15 -8 0 -15 -4 -15 -10 0 -7 -273 -10 -800 -10 -787 0 -800 0 -820
20 -19 19 -20 33 -20 274 0 140 4 256 9 258 5 2 10 147 12 322 3 249 1 320 -8
323 -8 3 -13 22 -13 49 0 32 -4 44 -15 44 -9 0 -15 9 -15 25 0 16 -6 25 -15
25 -8 0 -15 9 -15 20 0 11 -5 20 -11 20 -7 0 -22 11 -35 25 -13 14 -28 25 -34
25 -5 0 -10 7 -10 15 0 9 -9 15 -25 15 -16 0 -25 6 -25 15 0 11 -12 15 -50 15
-38 0 -50 4 -50 15 0 13 -21 15 -130 15 l-130 0 0 615 c0 540 2 615 15 615 8
0 15 7 15 15 0 8 7 15 15 15 8 0 15 7 15 15 0 8 7 15 15 15 8 0 15 7 15 15 0
8 7 15 15 15 8 0 15 7 15 15 0 8 7 15 15 15 8 0 15 7 15 15 0 8 7 15 15 15 8
0 15 7 15 15 0 8 5 15 11 15 7 0 81 70 165 155 84 85 158 155 163 155 6 0 11
7 11 15 0 8 7 15 15 15 8 0 15 7 15 15 0 8 7 15 15 15 8 0 15 7 15 15 0 8 7
15 15 15 8 0 15 7 15 15 0 8 7 15 15 15 8 0 15 7 15 15 0 8 7 15 15 15 8 0 15
7 15 15 0 8 7 15 15 15 8 0 15 7 15 15 0 8 7 15 15 15 8 0 15 7 15 15 0 8 7
15 15 15 8 0 15 7 15 15 0 8 7 15 15 15 8 0 15 6 15 14 0 8 11 17 25 20 14 4
25 11 25 16 0 6 7 10 15 10 8 0 15 7 15 15 0 8 7 15 15 15 8 0 15 7 15 15 0 8
7 15 15 15 8 0 15 4 15 10 0 15 33 50 47 50 7 0 13 7 13 15 0 8 7 15 15 15 8
0 15 5 15 11 0 14 145 159 159 159 6 0 11 7 11 15 0 8 7 15 15 15 8 0 15 7 15
15 0 8 7 15 15 15 8 0 15 7 15 15 0 8 7 15 15 15 8 0 15 7 15 15 0 8 7 15 15
15 8 0 15 7 15 15 0 8 7 15 15 15 8 0 15 7 15 15 0 8 7 15 15 15 8 0 15 7 15
15 0 8 7 15 15 15 8 0 15 7 15 15 0 8 7 15 15 15 8 0 15 7 15 15 0 8 7 15 15
15 8 0 15 7 15 15 0 8 7 15 15 15 8 0 15 7 15 15 0 8 7 15 15 15 8 0 15 5 15
11 0 13 20 33 43 42 9 3 17 11 17 17 0 15 19 12 36 -5 9 -9 34 -15 60 -15 24
0 44 -4 44 -10 0 -6 45 -10 115 -10 70 0 115 4 115 10 0 6 15 10 34 10 19 0
41 7 50 15 8 8 26 15 40 15 16 0 26 6 26 15 0 10 10 15 30 15 20 0 30 5 30 15
0 8 7 15 15 15 8 0 15 7 15 15 0 8 7 15 15 15 8 0 15 7 15 15 0 9 9 15 25 15
16 0 25 6 25 15 0 8 9 23 20 32 11 10 20 23 20 30 0 7 7 13 15 13 9 0 15 9 15
24 0 13 7 26 15 30 8 3 15 16 15 30 0 13 5 26 11 28 6 2 13 25 16 51 3 26 10
47 14 47 5 0 9 52 9 115 0 63 -4 115 -9 115 -4 0 -11 19 -14 41 -3 23 -10 45
-15 48 -5 3 -12 23 -16 44 -4 20 -11 37 -16 37 -6 0 -10 7 -10 15 0 8 -7 15
-15 15 -8 0 -15 9 -15 19 0 11 -7 26 -15 35 -8 8 -15 19 -15 25 0 6 -7 11 -15
11 -8 0 -15 7 -15 15 0 8 -7 15 -15 15 -8 0 -15 7 -15 15 0 8 -7 15 -15 15 -8
0 -15 4 -15 9 0 5 -13 12 -30 16 -16 4 -30 13 -30 21 0 8 -10 14 -26 14 -14 0
-32 7 -40 15 -9 8 -28 15 -44 15 -16 0 -30 6 -32 13 -4 9 -45 12 -163 12 -118
0 -159 -3 -162 -12 -3 -7 -17 -13 -33 -13 -16 0 -35 -7 -44 -15 -8 -8 -22 -15
-30 -15 -9 0 -16 -7 -16 -15 0 -9 -9 -15 -25 -15 -16 0 -25 -6 -25 -15 0 -8
-5 -15 -11 -15 -15 0 -79 -65 -79 -80 0 -5 -7 -10 -15 -10 -8 0 -15 -7 -15
-15 0 -8 -7 -15 -15 -15 -8 0 -15 -7 -15 -15 0 -8 -4 -15 -10 -15 -5 0 -13
-12 -16 -27 -4 -15 -13 -34 -21 -41 -7 -7 -13 -26 -13 -42 0 -16 -6 -30 -12
-32 -10 -4 -14 -48 -16 -165 -3 -135 -1 -163 12 -176 9 -9 16 -27 16 -42 0
-14 7 -28 15 -31 8 -4 15 -17 15 -30 0 -15 6 -24 15 -24 10 0 15 -10 15 -30 0
-20 -5 -30 -15 -30 -8 0 -15 -7 -15 -15 0 -8 -7 -15 -15 -15 -8 0 -15 -7 -15
-15 0 -8 -7 -15 -15 -15 -8 0 -15 -7 -15 -15 0 -8 -7 -15 -15 -15 -8 0 -15 -7
-15 -15 0 -8 -7 -15 -15 -15 -8 0 -15 -7 -15 -15 0 -8 -7 -15 -15 -15 -8 0
-15 -7 -15 -15 0 -8 -5 -15 -11 -15 -14 0 -69 -55 -69 -69 0 -6 -7 -11 -15
-11 -8 0 -15 -7 -15 -15 0 -8 -7 -15 -15 -15 -8 0 -15 -7 -15 -15 0 -8 -7 -15
-15 -15 -8 0 -15 -7 -15 -15 0 -8 -7 -15 -15 -15 -8 0 -15 -7 -15 -15 0 -8 -7
-15 -15 -15 -8 0 -15 -7 -15 -15 0 -8 -7 -15 -15 -15 -8 0 -15 -7 -15 -15 0
-8 -7 -15 -15 -15 -8 0 -15 -7 -15 -15 0 -9 -9 -15 -25 -15 -16 0 -25 -6 -25
-15 0 -8 -7 -15 -15 -15 -8 0 -15 -7 -15 -15 0 -8 -7 -15 -15 -15 -8 0 -15 -7
-15 -15 0 -8 -7 -15 -15 -15 -8 0 -15 -7 -15 -15 0 -8 -7 -15 -15 -15 -8 0
-15 -7 -15 -15 0 -8 -7 -15 -15 -15 -8 0 -15 -7 -15 -15 0 -8 -7 -15 -15 -15
-8 0 -15 -7 -15 -15 0 -8 -5 -15 -10 -15 -6 0 -21 -11 -34 -25 -13 -14 -28
-25 -35 -25 -6 0 -11 -7 -11 -15 0 -8 -7 -15 -15 -15 -8 0 -15 -7 -15 -15 0
-8 -7 -15 -15 -15 -8 0 -15 -7 -15 -15 0 -8 -7 -15 -15 -15 -8 0 -15 -7 -15
-15 0 -8 -7 -15 -15 -15 -8 0 -15 -7 -15 -15 0 -8 -7 -15 -15 -15 -8 0 -15 -7
-15 -15 0 -8 -7 -15 -15 -15 -8 0 -15 -7 -15 -15 0 -8 -7 -15 -15 -15 -8 0
-15 -7 -15 -15 0 -8 -7 -15 -15 -15 -8 0 -15 -7 -15 -15 0 -8 -7 -15 -15 -15
-8 0 -15 -7 -15 -15 0 -8 -5 -15 -11 -15 -14 0 -39 -25 -39 -39 0 -6 -7 -11
-15 -11 -8 0 -15 -7 -15 -15 0 -8 -7 -15 -15 -15 -8 0 -15 -7 -15 -15 0 -8 -7
-15 -15 -15 -8 0 -15 -7 -15 -15 0 -8 -7 -15 -15 -15 -8 0 -15 -7 -15 -15 0
-8 -7 -15 -15 -15 -8 0 -15 -7 -15 -15 0 -8 -7 -15 -15 -15 -8 0 -15 -7 -15
-15 0 -8 -7 -15 -15 -15 -8 0 -15 -7 -15 -15 0 -8 -7 -15 -15 -15 -8 0 -15 -7
-15 -15 0 -8 -7 -15 -15 -15 -8 0 -15 -7 -15 -15 0 -8 -7 -15 -15 -15 -8 0
-15 -7 -15 -15 0 -8 -7 -15 -15 -15 -8 0 -15 -7 -15 -15 0 -8 -5 -15 -11 -15
-14 0 -99 -85 -99 -99 0 -6 -7 -11 -15 -11 -8 0 -15 -7 -15 -15 0 -8 -7 -15
-15 -15 -8 0 -15 -7 -15 -15 0 -8 -7 -15 -15 -15 -8 0 -15 -7 -15 -15 0 -8 -7
-15 -15 -15 -8 0 -15 -7 -15 -15 0 -8 -7 -15 -15 -15 -14 0 -15 -73 -13 -660
l3 -660 -283 0 -282 0 2 1197 c2 946 6 1197 16 1201 6 2 12 10 12 18 0 8 7 14
15 14 8 0 15 7 15 15 0 8 7 15 15 15 8 0 15 7 15 15 0 10 10 15 30 15 20 0 30
-5 30 -15 0 -12 13 -15 60 -15 48 0 60 -3 60 -16 0 -14 13 -15 97 -12 66 2 98
7 101 16 2 7 21 12 48 12 32 0 44 4 44 15 0 10 10 15 30 15 20 0 30 5 30 15 0
10 10 15 30 15 20 0 30 5 30 15 0 8 7 15 15 15 8 0 15 7 15 15 0 8 5 15 10 15
13 0 80 63 80 75 0 4 11 18 24 30 13 12 27 32 31 43 3 12 11 22 16 22 5 0 9 9
9 19 0 11 6 26 13 33 8 7 17 45 21 83 4 39 11 72 16 73 14 5 13 149 -1 154 -6
2 -14 27 -17 56 -2 29 -8 52 -12 52 -5 0 -11 14 -15 30 -4 17 -10 30 -15 30
-5 0 -11 14 -15 30 -4 17 -11 30 -16 30 -5 0 -9 6 -9 14 0 19 -117 136 -136
136 -8 0 -14 7 -14 15 0 8 -7 15 -15 15 -8 0 -15 4 -15 9 0 5 -13 12 -30 16
-16 4 -30 11 -30 16 0 5 -13 9 -29 9 -16 0 -37 7 -45 16 -13 13 -43 15 -173
15 -99 0 -159 -4 -161 -11 -2 -5 -21 -13 -43 -16 -21 -4 -39 -10 -39 -14 0 -5
-13 -11 -30 -15 -16 -4 -30 -11 -30 -16 0 -5 -6 -9 -13 -9 -7 0 -24 -13 -37
-30 -14 -16 -30 -29 -36 -30 -20 0 -64 -49 -64 -70 0 -11 -7 -20 -15 -20 -8 0
-15 -7 -15 -15 0 -8 -7 -15 -15 -15 -10 0 -15 -10 -15 -30 0 -20 -5 -30 -15
-30 -11 0 -15 -11 -15 -40 0 -29 -4 -40 -15 -40 -13 0 -15 -25 -15 -165 0
-140 2 -165 15 -165 11 0 15 -12 15 -45 0 -33 4 -45 15 -45 10 0 15 -10 15
-30 0 -20 5 -30 15 -30 8 0 15 -5 15 -10 0 -6 -7 -13 -15 -16 -8 -4 -15 -12
-15 -20 0 -8 -7 -14 -15 -14 -9 0 -15 -9 -15 -25 0 -16 -6 -25 -15 -25 -8 0
-15 -7 -15 -15 0 -8 -7 -15 -15 -15 -8 0 -15 -7 -15 -15 0 -8 -7 -15 -15 -15
-8 0 -15 -7 -15 -15 0 -8 -7 -15 -15 -15 -13 0 -15 -147 -15 -1259 l0 -1259
-112 -4 c-62 -1 -193 -1 -290 0 l-178 4 0 1974 0 1974 -165 0 -165 0 0 -1973z
m-3570 1668 c0 -11 12 -15 45 -15 33 0 45 -4 45 -15 0 -8 7 -15 15 -15 8 0 15
-4 15 -10 0 -5 6 -10 14 -10 18 0 62 -42 71 -68 3 -12 10 -22 15 -22 5 0 11
-13 15 -30 4 -16 11 -30 16 -30 5 0 9 -47 9 -105 0 -58 -4 -105 -9 -105 -5 0
-11 -18 -15 -39 -3 -21 -13 -41 -21 -45 -8 -3 -15 -10 -15 -16 0 -15 -55 -70
-69 -70 -6 0 -11 -7 -11 -15 0 -10 -10 -15 -30 -15 -20 0 -30 -5 -30 -15 0
-12 -19 -15 -114 -15 -92 0 -115 3 -120 15 -3 8 -17 15 -31 15 -14 0 -25 5
-25 10 0 6 -8 14 -17 17 -23 9 -73 58 -73 72 0 6 -7 11 -15 11 -8 0 -15 9 -15
19 0 11 -7 26 -15 35 -8 8 -15 32 -15 56 0 27 -5 43 -15 46 -8 4 -15 15 -15
26 0 11 7 26 15 34 9 10 15 34 15 65 0 37 4 49 15 49 8 0 15 9 15 20 0 22 89
115 120 125 11 3 20 10 20 14 0 5 19 11 42 14 24 3 44 11 46 16 2 6 30 11 63
11 46 0 59 -3 59 -15z m7592 4 c2 -5 22 -13 46 -16 23 -3 42 -9 42 -13 0 -4
12 -11 26 -14 28 -7 114 -87 114 -105 0 -6 7 -11 15 -11 10 0 15 -10 15 -30 0
-20 5 -30 15 -30 12 0 15 -18 15 -101 0 -76 -4 -104 -15 -115 -8 -9 -15 -29
-15 -45 0 -19 -5 -29 -15 -29 -8 0 -15 -4 -15 -10 0 -12 -68 -80 -80 -80 -6 0
-10 -6 -10 -14 0 -8 -16 -16 -40 -20 -22 -3 -40 -11 -40 -16 0 -6 -46 -10
-114 -10 -92 0 -115 3 -120 15 -3 8 -16 15 -30 15 -13 0 -26 7 -30 15 -3 8
-12 15 -21 15 -8 0 -15 7 -15 15 0 8 -7 15 -15 15 -8 0 -15 7 -15 15 0 8 -4
15 -10 15 -5 0 -12 11 -16 25 -3 14 -10 25 -14 25 -5 0 -11 14 -15 30 -4 17
-11 30 -16 30 -5 0 -9 41 -9 90 0 53 4 90 10 90 5 0 13 18 16 40 4 22 11 40
16 40 5 0 12 8 15 18 11 29 89 101 117 108 14 3 26 10 26 15 0 5 14 9 30 9 20
0 30 5 30 15 0 12 13 15 59 15 33 0 61 -5 63 -11z m-5222 -294 c0 -12 13 -15
60 -15 47 0 60 -3 60 -15 0 -8 7 -15 15 -15 8 0 15 -7 15 -15 0 -8 5 -15 10
-15 15 0 80 -64 80 -79 0 -6 4 -11 10 -11 5 0 13 -12 16 -27 4 -16 12 -31 18
-35 14 -9 14 -197 0 -206 -6 -4 -14 -24 -18 -44 -4 -21 -11 -38 -16 -38 -6 0
-10 -7 -10 -15 0 -8 -7 -15 -15 -15 -8 0 -15 -7 -15 -15 0 -8 -7 -15 -15 -15
-8 0 -15 -7 -15 -15 0 -8 -7 -15 -15 -15 -8 0 -15 -4 -15 -9 0 -5 -12 -12 -27
-16 -15 -3 -31 -12 -35 -18 -10 -17 -220 -16 -225 1 -3 6 -18 12 -34 12 -18 0
-29 5 -29 14 0 8 -13 17 -30 21 -16 4 -30 13 -30 21 0 8 -7 14 -15 14 -8 0
-15 7 -15 15 0 8 -4 15 -10 15 -5 0 -12 11 -16 25 -3 14 -12 25 -20 25 -10 0
-14 13 -14 45 0 25 -4 45 -10 45 -5 0 -10 25 -10 55 0 30 5 55 10 55 6 0 10
20 10 45 0 31 5 47 15 51 8 4 15 17 15 30 0 15 6 24 15 24 8 0 15 7 15 15 0 8
7 15 15 15 8 0 15 7 15 15 0 8 7 15 15 15 8 0 15 7 15 15 0 10 10 15 30 15 20
0 30 5 30 15 0 11 12 15 45 15 25 0 45 4 45 9 0 10 22 18 58 20 13 1 22 -5 22
-14z m2816 0 c5 -11 21 -15 60 -15 41 0 54 -4 54 -15 0 -8 7 -15 15 -15 8 0
15 -7 15 -15 0 -8 4 -15 10 -15 12 0 80 -68 80 -80 0 -6 7 -10 15 -10 11 0 15
-11 15 -40 0 -29 4 -40 15 -40 12 0 15 -15 15 -79 0 -57 -4 -84 -15 -95 -8 -8
-15 -26 -15 -40 0 -16 -6 -26 -15 -26 -10 0 -15 -10 -15 -30 0 -20 -5 -30 -15
-30 -8 0 -15 -7 -15 -15 0 -8 -7 -15 -15 -15 -8 0 -15 -7 -15 -15 0 -9 -9 -15
-24 -15 -13 0 -26 -7 -30 -15 -3 -8 -16 -15 -30 -15 -13 0 -26 -6 -28 -12 -3
-9 -34 -13 -103 -13 -69 0 -100 4 -103 13 -2 6 -17 12 -33 12 -18 0 -29 5 -29
14 0 8 -11 17 -25 20 -31 8 -65 36 -65 53 0 7 -4 13 -9 13 -5 0 -13 10 -17 23
-4 12 -11 25 -16 28 -5 3 -12 25 -15 48 -3 22 -10 41 -14 41 -5 0 -9 32 -9 70
0 39 4 70 9 70 4 0 11 19 14 42 3 24 11 44 16 46 6 2 11 10 11 18 0 8 7 14 15
14 8 0 15 7 15 15 0 8 7 15 15 15 8 0 15 7 15 15 0 8 7 15 15 15 8 0 15 7 15
15 0 10 10 15 30 15 20 0 30 5 30 15 0 11 12 15 45 15 25 0 45 4 45 9 0 22 78
27 86 6z m-6828 -3312 c2 -7 15 -13 28 -13 14 0 27 -7 30 -15 4 -8 12 -15 20
-15 8 0 14 -7 14 -15 0 -8 7 -15 15 -15 8 0 15 -7 15 -15 0 -8 7 -15 15 -15 8
0 15 -7 15 -15 0 -8 4 -15 9 -15 5 0 13 -10 17 -22 4 -13 11 -26 16 -29 27
-17 20 -299 -8 -299 -8 0 -14 -7 -14 -15 0 -8 -4 -15 -10 -15 -5 0 -10 -7 -10
-15 0 -8 -7 -15 -15 -15 -8 0 -15 -7 -15 -15 0 -8 -6 -15 -14 -15 -8 0 -16 -7
-20 -15 -3 -8 -17 -15 -31 -15 -16 0 -25 -6 -25 -15 0 -10 -10 -15 -30 -15
-16 0 -30 -4 -30 -10 0 -6 -35 -10 -85 -10 -47 0 -85 4 -85 9 0 4 -19 11 -42
14 -24 3 -44 11 -46 16 -2 6 -10 11 -18 11 -8 0 -14 7 -14 15 0 8 -6 15 -13
15 -14 0 -47 35 -47 50 0 6 -7 10 -15 10 -8 0 -15 7 -15 15 0 8 -7 15 -15 15
-11 0 -15 12 -15 45 0 33 -4 45 -15 45 -12 0 -15 13 -15 59 0 40 5 65 15 75 8
8 15 32 15 55 0 30 4 41 15 41 8 0 15 6 15 14 0 8 7 16 15 20 8 3 15 17 15 31
0 20 5 25 25 25 16 0 25 6 25 15 0 8 9 15 20 15 11 0 20 7 20 15 0 9 10 15 26
15 14 0 33 7 41 16 13 13 35 15 116 12 69 -2 102 -7 105 -15z m10986 -148 c3
-9 18 -15 36 -15 16 0 30 -4 30 -9 0 -5 10 -13 22 -16 11 -4 31 -18 43 -31 12
-13 27 -24 34 -24 6 0 11 -7 11 -15 0 -9 7 -18 15 -21 8 -4 15 -17 15 -30 0
-15 6 -24 15 -24 13 0 15 -22 15 -135 0 -113 -2 -135 -15 -135 -9 0 -15 -9
-15 -24 0 -13 -7 -26 -15 -30 -8 -3 -15 -12 -15 -21 0 -8 -5 -15 -11 -15 -7 0
-22 -11 -34 -24 -12 -13 -32 -27 -43 -31 -12 -3 -22 -10 -22 -15 0 -4 -16 -11
-35 -14 -19 -4 -35 -11 -35 -16 0 -6 -38 -10 -85 -10 -47 0 -85 4 -85 9 0 5
-13 12 -30 16 -16 4 -30 10 -30 15 0 5 -13 11 -30 15 -16 4 -30 13 -30 21 0 8
-7 14 -15 14 -8 0 -15 5 -15 11 0 7 -11 22 -24 34 -13 12 -27 33 -31 46 -4 13
-13 27 -19 31 -14 9 -15 216 0 226 6 4 14 24 18 45 4 20 11 37 16 37 6 0 10 5
10 11 0 15 59 73 83 82 9 3 17 10 17 15 0 5 18 12 40 16 22 3 40 11 40 16 0 6
35 10 84 10 65 0 85 -3 90 -15z m-6154 -705 c13 -20 13 -470 0 -490 -8 -12
-63 -15 -355 -18 l-345 -4 0 -29 c0 -16 -4 -29 -10 -29 -6 0 -10 -71 -10 -192
0 -106 -3 -264 -7 -350 l-6 -158 -249 0 -248 0 0 90 c0 53 -4 90 -10 90 -5 0
-10 11 -10 25 0 14 5 25 10 25 6 0 10 7 10 15 0 8 -4 15 -10 15 -16 0 -13 707
3 714 10 5 10 7 0 12 -15 7 -18 64 -3 64 6 0 10 27 10 60 0 33 -4 60 -10 60
-5 0 -10 20 -10 45 l0 45 40 0 c22 0 40 4 40 10 0 13 141 16 688 16 409 -1
474 -3 482 -16z m863 12 l77 -2 0 -245 0 -245 -39 0 c-24 0 -41 -5 -44 -14 -5
-12 -54 -14 -294 -15 -158 0 -316 3 -350 6 l-63 6 0 243 c0 210 2 244 15 244
8 0 15 4 15 10 0 5 26 10 58 12 68 4 515 4 625 0z m1470 -7 c15 -15 17 -74 17
-646 l0 -629 -265 0 -265 0 0 380 0 380 -312 2 c-172 1 -322 2 -333 3 -11 1
-35 3 -52 4 l-33 1 0 254 0 255 43 3 c23 2 299 4 613 6 521 3 572 2 587 -13z
m-3055 -1421 c22 -6 30 -29 13 -36 -5 -2 -13 -195 -17 -450 l-7 -448 -248 0
-249 0 0 350 c0 227 -4 350 -10 350 -5 0 -10 14 -10 30 0 17 5 30 10 30 15 0
13 147 -2 153 -10 4 -9 8 2 16 16 11 477 16 518 5z m2885 -3 l187 -1 0 -442
c0 -244 -3 -453 -6 -465 l-6 -23 -259 0 -259 0 0 464 c0 528 -11 476 95 471
33 -2 144 -4 248 -4z m-2893 -1446 l0 -395 365 0 c201 0 365 -1 366 -2 1 -2 3
-114 5 -250 l4 -248 -620 0 -620 0 0 645 0 645 250 0 250 0 0 -395z m3058 370
l22 -19 0 -623 0 -623 -630 0 -630 0 0 244 0 244 23 6 c12 3 176 6 365 6 l342
0 0 375 c0 342 2 377 18 396 16 20 24 20 242 17 207 -3 227 -5 248 -23z
m-7130 -372 c2 -7 10 -13 18 -13 8 0 14 -7 14 -15 0 -9 9 -15 25 -15 16 0 25
-6 25 -15 0 -8 7 -15 15 -15 8 0 15 -7 15 -15 0 -8 9 -23 20 -32 11 -10 20
-23 20 -29 0 -7 6 -14 13 -16 9 -4 12 -41 12 -143 0 -102 -3 -139 -12 -142 -7
-3 -13 -11 -13 -19 0 -8 -6 -14 -14 -14 -8 0 -17 -13 -21 -30 -4 -16 -13 -30
-21 -30 -8 0 -14 -7 -14 -15 0 -9 -9 -15 -25 -15 -16 0 -25 -6 -25 -15 0 -8
-6 -15 -14 -15 -8 0 -16 -6 -18 -12 -7 -20 -260 -24 -279 -5 -8 7 -27 17 -42
21 -15 3 -27 11 -27 16 0 6 -7 10 -15 10 -8 0 -15 7 -15 15 0 8 -7 15 -15 15
-8 0 -15 7 -15 15 0 8 -7 15 -15 15 -10 0 -15 10 -15 30 0 20 -5 30 -15 30
-10 0 -15 10 -15 29 0 16 -7 36 -15 45 -10 9 -15 34 -15 70 0 43 3 56 15 56
11 0 15 12 15 45 0 33 4 45 15 45 10 0 15 10 15 30 0 20 5 30 15 30 8 0 15 7
15 15 0 8 7 15 15 15 8 0 15 7 15 15 0 8 7 15 15 15 8 0 15 4 15 10 0 5 12 13
27 16 15 4 34 14 42 21 19 19 272 15 279 -4z m10976 2 c8 -8 26 -15 40 -15 16
0 26 -6 26 -15 0 -8 7 -15 15 -15 8 0 15 -7 15 -15 0 -8 7 -15 15 -15 8 0 15
-7 15 -15 0 -8 7 -15 15 -15 8 0 15 -7 15 -15 0 -8 7 -15 15 -15 10 0 15 -10
15 -30 0 -20 5 -30 15 -30 13 0 15 -21 15 -130 0 -109 -2 -130 -15 -130 -8 0
-15 -6 -15 -14 0 -8 -7 -16 -15 -20 -8 -3 -15 -17 -15 -31 0 -16 -6 -25 -15
-25 -8 0 -15 -4 -15 -10 0 -5 -11 -12 -25 -16 -14 -3 -25 -10 -25 -15 0 -5 -8
-13 -17 -16 -10 -4 -24 -13 -32 -21 -19 -18 -272 -14 -279 6 -2 6 -10 12 -18
12 -8 0 -14 7 -14 15 0 9 -9 15 -25 15 -16 0 -25 6 -25 15 0 8 -7 15 -15 15
-8 0 -15 7 -15 15 0 8 -6 15 -14 15 -8 0 -17 14 -21 30 -4 17 -11 30 -15 30
-5 0 -12 27 -16 60 -4 33 -11 60 -15 60 -5 0 -9 11 -9 25 0 14 4 25 9 25 5 0
12 27 16 60 4 33 11 60 16 60 5 0 9 7 9 15 0 8 7 15 15 15 8 0 15 7 15 15 0 9
7 18 15 21 8 3 17 14 20 25 4 10 17 22 31 25 13 3 24 12 24 20 0 9 11 14 30
14 20 0 30 5 30 15 0 12 18 15 104 15 80 0 108 -4 120 -15z m-5234 -645 l0
-250 -395 0 -395 0 0 244 0 245 33 4 c17 2 195 5 395 5 l362 2 0 -250z m-5828
-1700 c2 -6 21 -13 43 -17 23 -3 50 -16 62 -30 12 -12 27 -23 33 -23 5 0 10
-7 10 -15 0 -8 7 -15 15 -15 8 0 15 -7 15 -15 0 -8 7 -15 15 -15 8 0 15 -7 15
-15 0 -8 4 -15 9 -15 5 0 12 -12 16 -27 3 -15 11 -31 17 -35 15 -8 14 -218 0
-227 -6 -3 -14 -19 -17 -34 -4 -15 -11 -27 -16 -27 -5 0 -9 -7 -9 -15 0 -8 -7
-15 -15 -15 -8 0 -15 -7 -15 -15 0 -8 -7 -15 -15 -15 -8 0 -15 -7 -15 -15 0
-8 -7 -15 -15 -15 -8 0 -15 -7 -15 -15 0 -10 -10 -15 -30 -15 -20 0 -30 -5
-30 -15 0 -12 -20 -15 -120 -15 -72 0 -120 4 -120 10 0 5 -12 13 -27 16 -15 4
-34 13 -41 21 -7 7 -20 13 -28 13 -8 0 -14 7 -14 15 0 8 -7 15 -15 15 -8 0
-15 7 -15 15 0 8 -7 15 -15 15 -9 0 -15 9 -15 25 0 16 -6 25 -15 25 -11 0 -15
12 -15 45 0 33 -4 45 -15 45 -12 0 -15 14 -15 64 0 44 5 69 15 80 8 8 15 30
15 49 0 22 6 37 15 41 8 3 15 12 15 21 0 8 7 15 15 15 8 0 15 4 15 10 0 15 33
50 47 50 7 0 13 7 13 15 0 8 7 15 15 15 8 0 15 4 15 9 0 5 20 12 45 15 25 4
45 11 45 17 0 12 137 12 142 -1z m11018 1 c0 -5 18 -11 40 -15 22 -3 40 -11
40 -16 0 -6 6 -10 13 -10 7 0 20 -9 30 -20 9 -11 24 -20 32 -20 8 0 15 -7 15
-15 0 -8 7 -15 15 -15 9 0 15 -9 15 -25 0 -16 6 -25 15 -25 10 0 15 -10 15
-30 0 -20 5 -30 15 -30 13 0 15 -20 15 -120 0 -100 -2 -120 -15 -120 -9 0 -15
-9 -15 -24 0 -13 -7 -26 -15 -30 -8 -3 -15 -10 -15 -16 0 -17 -56 -70 -74 -70
-9 0 -16 -7 -16 -15 0 -9 -9 -15 -25 -15 -14 0 -28 -7 -31 -15 -5 -12 -28 -15
-120 -15 -95 0 -114 3 -114 15 0 10 -10 15 -30 15 -20 0 -30 5 -30 15 0 8 -9
15 -20 15 -23 0 -55 29 -64 58 -4 11 -13 23 -21 26 -8 3 -15 12 -15 20 0 8 -6
16 -12 19 -10 3 -13 40 -13 142 0 102 3 139 13 143 6 2 12 10 12 18 0 8 9 22
20 31 11 10 20 21 20 25 0 14 34 48 47 48 7 0 13 4 13 9 0 5 10 13 23 17 12 4
25 11 28 16 3 5 25 12 48 15 22 3 41 10 41 14 0 5 27 9 60 9 33 0 60 -4 60 -9z
m-9262 -1408 c2 -7 15 -13 28 -13 14 0 27 -7 30 -15 4 -8 12 -15 20 -15 8 0
14 -7 14 -15 0 -8 7 -15 15 -15 8 0 15 -7 15 -15 0 -8 7 -15 15 -15 8 0 15 -7
15 -15 0 -8 4 -15 9 -15 5 0 12 -13 16 -30 4 -16 10 -30 14 -30 12 0 21 -122
14 -195 -4 -45 -10 -65 -19 -65 -8 0 -14 -7 -14 -15 0 -8 -4 -15 -9 -15 -5 0
-12 -13 -16 -30 -4 -16 -13 -30 -21 -30 -8 0 -14 -7 -14 -15 0 -9 -9 -15 -25
-15 -16 0 -25 -6 -25 -15 0 -8 -7 -15 -16 -15 -8 0 -22 -7 -30 -15 -9 -9 -34
-15 -60 -15 -24 0 -44 -4 -44 -10 0 -5 -13 -10 -30 -10 -16 0 -30 5 -30 10 0
6 -20 10 -44 10 -26 0 -51 6 -60 15 -8 8 -22 15 -30 15 -9 0 -16 7 -16 15 0 9
-9 15 -25 15 -16 0 -25 6 -25 15 0 8 -7 15 -15 15 -8 0 -15 7 -15 15 0 8 -7
15 -15 15 -10 0 -15 10 -15 30 0 20 -5 30 -15 30 -11 0 -15 11 -15 40 0 27 -5
43 -15 46 -10 4 -15 20 -15 46 0 22 7 46 15 54 9 9 15 34 15 60 0 32 4 44 15
44 8 0 15 9 15 20 0 11 4 20 10 20 5 0 12 11 16 25 3 14 12 25 20 25 8 0 14 7
14 15 0 9 9 15 25 15 16 0 25 6 25 15 0 10 10 15 29 15 17 0 31 6 35 16 5 13
23 15 118 12 78 -2 113 -7 116 -15z m7606 2 c8 -8 26 -15 40 -15 16 0 26 -6
26 -15 0 -8 7 -15 15 -15 8 0 15 -7 15 -15 0 -8 7 -15 15 -15 8 0 15 -7 15
-15 0 -8 7 -15 15 -15 8 0 15 -7 15 -15 0 -8 7 -15 15 -15 10 0 15 -10 15 -30
0 -20 5 -30 15 -30 12 0 15 -19 15 -115 0 -63 -4 -115 -9 -115 -5 0 -12 -13
-16 -30 -4 -16 -10 -30 -15 -30 -5 0 -11 -13 -15 -30 -4 -16 -13 -30 -21 -30
-8 0 -14 -7 -14 -15 0 -8 -7 -15 -15 -15 -8 0 -15 -4 -15 -10 0 -5 -12 -13
-27 -16 -15 -4 -34 -13 -41 -21 -7 -7 -26 -13 -42 -13 -16 0 -30 -5 -32 -10
-5 -15 -161 -17 -166 -2 -2 7 -17 12 -33 12 -16 0 -32 6 -35 14 -3 8 -16 17
-30 20 -13 4 -24 11 -24 16 0 6 -7 10 -15 10 -8 0 -15 7 -15 15 0 8 -6 15 -14
15 -8 0 -17 14 -21 30 -4 17 -10 30 -15 30 -5 0 -11 14 -15 30 -4 17 -11 30
-16 30 -5 0 -9 45 -9 101 0 76 4 104 15 115 8 9 15 24 15 35 0 10 4 19 9 19 5
0 13 9 16 20 8 25 68 90 84 90 6 0 11 4 11 10 0 5 12 13 27 16 15 4 34 13 41
21 20 20 215 18 236 -2z m-6202 -1025 c2 -6 29 -14 61 -17 38 -4 57 -10 57
-19 0 -8 9 -14 20 -14 11 0 20 -4 20 -10 0 -5 11 -12 25 -16 14 -3 25 -12 25
-20 0 -8 7 -14 15 -14 9 0 15 -9 15 -25 0 -16 6 -25 15 -25 8 0 15 -7 15 -16
0 -8 7 -22 15 -30 12 -12 15 -41 15 -130 0 -93 -3 -116 -15 -120 -8 -4 -15
-17 -15 -30 0 -15 -6 -24 -15 -24 -8 0 -15 -9 -15 -20 0 -11 -7 -20 -15 -20
-8 0 -15 -7 -15 -15 0 -8 -7 -15 -15 -15 -8 0 -15 -4 -15 -10 0 -5 -7 -10 -15
-10 -8 0 -15 -7 -15 -15 0 -9 -9 -15 -25 -15 -14 0 -28 -7 -31 -15 -5 -12 -28
-15 -120 -15 -95 0 -114 3 -114 15 0 10 -10 15 -30 15 -20 0 -30 5 -30 15 0 8
-7 15 -15 15 -8 0 -15 5 -15 10 0 6 -7 10 -15 10 -8 0 -15 7 -15 15 0 8 -7 15
-15 15 -8 0 -15 6 -15 14 0 8 -7 16 -15 20 -8 3 -15 17 -15 31 0 16 -6 25 -15
25 -11 0 -15 12 -15 45 0 25 -4 45 -10 45 -5 0 -10 14 -10 30 0 17 4 30 9 30
5 0 11 25 13 56 3 31 9 59 15 62 6 4 13 17 17 30 4 12 12 22 17 22 5 0 9 7 9
15 0 8 7 15 15 15 8 0 15 7 15 15 0 8 7 15 15 15 8 0 15 6 15 14 0 8 14 17 30
21 17 4 30 10 30 14 0 5 19 11 42 14 24 3 44 11 46 16 5 14 79 14 84 1z m4718
-30 c3 -5 18 -12 33 -15 15 -4 27 -11 27 -16 0 -5 7 -9 15 -9 8 0 15 -7 15
-15 0 -8 7 -15 15 -15 8 0 15 -7 15 -15 0 -8 7 -15 15 -15 8 0 15 -7 15 -15 0
-8 7 -15 15 -15 10 0 15 -10 15 -30 0 -21 5 -30 16 -30 14 0 15 -15 12 -115
-2 -71 -7 -119 -14 -123 -6 -4 -14 -17 -18 -29 -4 -13 -12 -23 -17 -23 -5 0
-9 -5 -9 -11 0 -15 -65 -79 -80 -79 -5 0 -10 -7 -10 -15 0 -10 -10 -15 -30
-15 -20 0 -30 -5 -30 -15 0 -12 -19 -15 -115 -15 -96 0 -115 3 -115 15 0 10
-10 15 -30 15 -20 0 -30 5 -30 15 0 8 -7 15 -15 15 -8 0 -15 5 -15 10 0 6 -7
10 -15 10 -8 0 -15 7 -15 15 0 8 -7 15 -15 15 -8 0 -15 6 -15 14 0 8 -7 16
-15 20 -8 3 -15 16 -15 30 0 13 -7 26 -15 30 -12 4 -15 27 -15 121 0 96 3 115
15 115 10 0 15 10 15 30 0 20 5 30 15 30 9 0 15 9 15 25 0 16 6 25 15 25 8 0
15 6 15 14 0 8 14 17 30 21 17 4 30 11 30 16 0 5 6 9 14 9 8 0 21 6 29 14 8 8
29 17 48 19 47 7 193 -3 199 -13z"/>
<path d="M13360 18645 c0 -8 -7 -15 -15 -15 -13 0 -15 -45 -15 -344 0 -215 4
-355 10 -372 9 -23 13 -77 20 -261 0 -10 26 -13 95 -13 84 0 97 2 117 22 14
14 18 23 10 26 -16 5 -16 99 1 106 10 5 10 7 0 12 -10 4 -13 76 -13 309 0 267
2 304 16 309 9 3 173 6 365 6 l349 0 0 115 0 115 -470 0 c-411 0 -470 -2 -470
-15z"/>
<path d="M14740 18545 l0 -115 244 0 c213 0 245 2 250 16 8 20 8 162 0 192
l-6 22 -244 0 -244 0 0 -115z"/>
<path d="M15670 18545 l0 -115 370 0 370 0 0 -379 c0 -336 2 -380 16 -385 9
-3 60 -6 115 -6 l99 0 0 500 0 500 -485 0 -485 0 0 -115z"/>
<path d="M13360 17018 c-1 -117 -5 -233 -11 -258 -5 -25 -13 -68 -16 -96 -8
-76 4 -84 133 -84 l104 0 0 325 0 325 -105 0 -105 0 0 -212z"/>
<path d="M16410 16905 l0 -325 115 0 115 0 0 325 0 325 -115 0 -115 0 0 -325z"/>
<path d="M13355 15793 c-9 -529 -9 -523 -1 -575 l7 -48 457 0 c251 0 467 3
480 6 18 5 22 13 22 50 0 24 -4 44 -10 44 -5 0 -10 7 -10 15 0 8 5 15 10 15 6
0 10 11 10 25 0 14 -4 25 -10 25 -5 0 -10 7 -10 15 0 13 -47 15 -365 15 l-365
0 0 395 0 395 -104 0 -104 0 -7 -377z"/>
<path d="M16410 15775 l0 -395 -370 0 -371 0 3 -102 3 -103 483 -3 482 -2 0
500 0 500 -115 0 -115 0 0 -395z"/>
<path d="M14740 15280 l0 -99 33 -6 c17 -3 129 -5 247 -3 l215 3 3 103 3 102
-251 0 -250 0 0 -100z"/>
<path d="M9314 22105 c-4 -10 -20 -15 -45 -15 -28 0 -39 -4 -39 -15 0 -10 -10
-15 -30 -15 -20 0 -30 -5 -30 -15 0 -8 -7 -15 -15 -15 -8 0 -15 -7 -15 -15 0
-8 -7 -15 -15 -15 -8 0 -15 -4 -15 -10 0 -5 -6 -10 -14 -10 -16 0 -76 -56 -76
-71 0 -6 -11 -20 -24 -32 -14 -13 -28 -35 -31 -50 -4 -15 -11 -27 -15 -27 -5
0 -11 -13 -15 -30 -4 -16 -10 -30 -14 -30 -5 0 -11 -26 -14 -57 -3 -32 -11
-59 -17 -61 -13 -5 -14 -152 -1 -152 6 0 13 -31 17 -70 3 -38 10 -70 14 -70 5
0 11 -13 15 -30 4 -16 11 -30 16 -30 5 0 9 -7 9 -15 0 -8 9 -23 20 -32 11 -10
20 -23 20 -30 0 -7 5 -13 10 -13 6 0 10 -7 10 -15 0 -8 7 -15 15 -15 8 0 15
-7 15 -15 0 -8 7 -15 15 -15 8 0 15 -7 15 -15 0 -8 5 -15 10 -15 6 0 21 -11
33 -24 13 -14 35 -28 50 -31 15 -4 27 -11 27 -15 0 -5 14 -11 30 -15 17 -4 30
-10 30 -15 0 -4 18 -10 40 -14 22 -3 40 -11 40 -16 0 -14 267 -13 272 0 2 6
21 13 43 17 22 3 46 12 53 20 7 7 22 13 32 13 10 0 21 6 24 13 5 10 7 10 12 0
3 -7 12 -13 20 -13 8 0 14 -7 14 -15 0 -8 7 -15 15 -15 8 0 15 -7 15 -15 0 -8
7 -15 15 -15 8 0 15 -7 15 -15 0 -8 7 -15 15 -15 8 0 15 -7 15 -15 0 -8 7 -15
15 -15 8 0 15 -7 15 -15 0 -8 7 -15 15 -15 8 0 15 -7 15 -15 0 -8 7 -15 15
-15 8 0 15 -7 15 -15 0 -8 7 -15 15 -15 8 0 15 -7 15 -15 0 -8 7 -15 15 -15 8
0 15 -7 15 -15 0 -8 5 -15 11 -15 6 0 62 -52 125 -115 64 -63 119 -115 125
-115 5 0 9 -6 9 -14 0 -8 11 -17 25 -20 14 -4 25 -11 25 -16 0 -6 7 -10 15
-10 8 0 15 -7 15 -15 0 -8 7 -15 15 -15 8 0 15 -7 15 -15 0 -8 7 -15 15 -15 8
0 15 -7 15 -15 0 -8 7 -15 15 -15 8 0 15 -7 15 -15 0 -8 7 -15 15 -15 8 0 15
-5 15 -11 0 -14 175 -189 189 -189 6 0 11 -7 11 -15 0 -8 7 -15 15 -15 8 0 15
-7 15 -15 0 -8 7 -15 15 -15 8 0 15 -7 15 -15 0 -8 7 -15 15 -15 8 0 15 -7 15
-15 0 -8 7 -15 15 -15 8 0 15 -7 15 -15 0 -8 7 -15 15 -15 8 0 15 -7 15 -15 0
-8 7 -15 15 -15 8 0 15 -7 15 -15 0 -8 7 -15 15 -15 8 0 15 -7 15 -15 0 -8 7
-15 15 -15 8 0 15 -7 15 -15 0 -8 7 -15 15 -15 8 0 15 -7 15 -15 0 -8 5 -15
11 -15 14 0 69 -55 69 -69 0 -6 7 -11 15 -11 8 0 15 -7 15 -15 0 -8 7 -15 15
-15 8 0 15 -7 15 -15 0 -8 7 -15 15 -15 8 0 15 -7 15 -15 0 -8 7 -15 15 -15 8
0 15 -7 15 -15 0 -8 7 -15 15 -15 8 0 15 -7 15 -15 0 -8 7 -15 15 -15 8 0 15
-7 15 -15 0 -8 7 -15 15 -15 8 0 15 -7 15 -15 0 -13 56 -15 440 -15 l440 0 0
144 c0 79 -3 151 -6 160 -5 14 -47 16 -362 16 l-355 0 -33 35 c-19 18 -34 39
-34 45 0 5 -7 10 -15 10 -8 0 -15 7 -15 15 0 8 -7 15 -15 15 -8 0 -15 7 -15
15 0 8 -7 15 -15 15 -8 0 -15 7 -15 15 0 8 -5 15 -11 15 -7 0 -22 11 -35 25
-13 14 -28 25 -34 25 -5 0 -10 7 -10 15 0 8 -6 15 -14 15 -8 0 -62 47 -119
105 -58 58 -110 105 -116 105 -6 0 -11 7 -11 15 0 8 -7 15 -15 15 -8 0 -15 7
-15 15 0 8 -7 15 -15 15 -8 0 -15 7 -15 15 0 8 -7 15 -15 15 -8 0 -15 7 -15
15 0 8 -7 15 -15 15 -8 0 -15 7 -15 15 0 8 -7 15 -15 15 -8 0 -15 7 -15 15 0
8 -7 15 -15 15 -8 0 -15 7 -15 15 0 8 -7 15 -15 15 -8 0 -15 7 -15 15 0 8 -7
15 -15 15 -8 0 -15 7 -15 15 0 8 -7 15 -15 15 -8 0 -15 7 -15 15 0 8 -5 15
-11 15 -14 0 -39 25 -39 39 0 6 -7 11 -15 11 -8 0 -15 7 -15 15 0 8 -7 15 -15
15 -8 0 -15 7 -15 15 0 8 -7 15 -15 15 -8 0 -15 7 -15 15 0 8 -7 15 -15 15 -8
0 -15 7 -15 15 0 8 -7 15 -15 15 -8 0 -15 7 -15 15 0 8 -7 15 -15 15 -8 0 -15
7 -15 15 0 8 -7 15 -15 15 -8 0 -15 7 -15 15 0 8 -5 15 -11 15 -6 0 -56 45
-110 100 -55 55 -104 100 -108 100 -15 0 -119 107 -126 129 -3 12 -11 21 -16
21 -5 0 -9 14 -9 30 0 20 5 30 15 30 11 0 15 13 15 54 0 35 5 56 13 59 9 3 12
41 12 147 0 106 -3 144 -12 148 -7 2 -13 17 -13 33 0 19 -5 29 -15 29 -10 0
-15 10 -15 30 0 20 -5 30 -15 30 -9 0 -15 9 -15 25 0 16 -6 25 -15 25 -8 0
-15 4 -15 10 0 12 -98 110 -110 110 -6 0 -10 6 -10 14 0 8 -11 17 -25 20 -14
4 -25 11 -25 16 0 6 -9 10 -20 10 -11 0 -20 7 -20 15 0 11 -11 15 -40 15 -29
0 -40 4 -40 15 0 13 -26 15 -175 15 -147 0 -177 -2 -181 -15z m266 -235 c0 -5
11 -10 25 -10 14 0 28 -6 31 -14 3 -8 17 -17 31 -21 28 -7 93 -65 93 -84 0 -6
4 -11 9 -11 5 0 13 -10 17 -22 4 -13 12 -26 18 -30 7 -5 11 -51 11 -133 0 -82
-4 -128 -11 -133 -6 -4 -14 -17 -18 -29 -4 -13 -12 -23 -17 -23 -5 0 -9 -6 -9
-13 0 -14 -35 -47 -50 -47 -6 0 -10 -7 -10 -15 0 -8 -7 -15 -15 -15 -8 0 -15
-7 -15 -15 0 -10 -10 -15 -30 -15 -20 0 -30 -5 -30 -15 0 -12 -20 -15 -120
-15 -100 0 -120 3 -120 15 0 10 -10 15 -30 15 -20 0 -30 5 -30 15 0 9 -9 15
-25 15 -16 0 -25 6 -25 15 0 8 -7 15 -15 15 -8 0 -15 7 -15 15 0 8 -7 15 -15
15 -10 0 -15 10 -15 30 0 20 -5 30 -15 30 -11 0 -15 11 -15 40 0 29 -4 40 -15
40 -12 0 -15 15 -15 75 0 60 3 75 15 75 11 0 15 12 15 45 0 33 4 45 15 45 8 0
15 7 15 15 0 8 7 15 15 15 8 0 15 4 15 10 0 15 33 50 47 50 7 0 13 7 13 15 0
8 7 15 15 15 8 0 15 4 15 10 0 5 18 13 40 16 22 4 40 10 40 15 0 5 41 9 90 9
53 0 90 -4 90 -10z"/>
<path d="M20334 22105 c-4 -9 -19 -15 -35 -15 -19 0 -29 -5 -29 -15 0 -10 -10
-15 -30 -15 -20 0 -30 -5 -30 -15 0 -9 -9 -15 -25 -15 -16 0 -25 -6 -25 -15 0
-8 -4 -15 -10 -15 -12 0 -80 -68 -80 -80 0 -6 -7 -10 -15 -10 -8 0 -15 -7 -15
-15 0 -8 -7 -15 -15 -15 -9 0 -15 -9 -15 -25 0 -16 -6 -25 -15 -25 -10 0 -15
-10 -15 -31 0 -17 -7 -37 -15 -45 -8 -9 -15 -33 -15 -55 0 -23 -7 -47 -15 -55
-11 -12 -15 -41 -15 -124 0 -83 4 -112 15 -124 8 -8 15 -32 15 -55 0 -30 4
-41 15 -41 10 0 15 -11 15 -35 0 -28 -8 -43 -41 -75 -23 -22 -45 -40 -50 -40
-4 0 -53 -45 -108 -100 -54 -55 -104 -100 -110 -100 -6 0 -11 -7 -11 -15 0 -8
-7 -15 -15 -15 -8 0 -15 -7 -15 -15 0 -8 -7 -15 -15 -15 -8 0 -15 -7 -15 -15
0 -8 -7 -15 -15 -15 -8 0 -15 -7 -15 -15 0 -8 -7 -15 -15 -15 -8 0 -15 -7 -15
-15 0 -8 -7 -15 -15 -15 -8 0 -15 -7 -15 -15 0 -8 -7 -15 -15 -15 -8 0 -15 -7
-15 -15 0 -8 -7 -15 -15 -15 -8 0 -15 -7 -15 -15 0 -8 -7 -15 -15 -15 -8 0
-15 -7 -15 -15 0 -8 -5 -15 -11 -15 -14 0 -99 -85 -99 -99 0 -6 -7 -11 -15
-11 -8 0 -15 -7 -15 -15 0 -8 -7 -15 -15 -15 -8 0 -15 -7 -15 -15 0 -8 -7 -15
-15 -15 -8 0 -15 -7 -15 -15 0 -8 -7 -15 -15 -15 -8 0 -15 -7 -15 -15 0 -8 -7
-15 -15 -15 -8 0 -15 -7 -15 -15 0 -8 -7 -15 -15 -15 -8 0 -15 -4 -15 -10 0
-5 -11 -12 -25 -16 -14 -3 -25 -12 -25 -20 0 -8 -7 -14 -15 -14 -8 0 -15 -7
-15 -15 0 -8 -4 -15 -10 -15 -5 0 -19 -9 -30 -20 -11 -11 -20 -24 -20 -30 0
-5 -4 -10 -10 -10 -5 0 -41 -31 -79 -70 -38 -38 -74 -70 -80 -70 -6 0 -11 -7
-11 -15 0 -8 -7 -15 -15 -15 -8 0 -15 -7 -15 -15 0 -8 -7 -15 -15 -15 -8 0
-15 -7 -15 -15 0 -8 -7 -15 -15 -15 -8 0 -15 -7 -15 -15 0 -8 -7 -15 -15 -15
-8 0 -15 -7 -15 -15 0 -8 -7 -15 -15 -15 -8 0 -15 -7 -15 -15 0 -8 -7 -15 -15
-15 -8 0 -15 -7 -15 -15 0 -8 -7 -15 -15 -15 -8 0 -15 -7 -15 -15 0 -8 -7 -15
-15 -15 -8 0 -15 -7 -15 -15 0 -8 -7 -15 -15 -15 -8 0 -15 -5 -15 -11 0 -14
-55 -69 -69 -69 -6 0 -11 -7 -11 -15 0 -8 -7 -15 -15 -15 -8 0 -15 -7 -15 -15
0 -8 -7 -15 -15 -15 -8 0 -15 -7 -15 -15 0 -8 -7 -15 -15 -15 -8 0 -15 -7 -15
-15 0 -8 -7 -15 -15 -15 -8 0 -15 -7 -15 -15 0 -8 -7 -15 -15 -15 -8 0 -15 -7
-15 -15 0 -8 -7 -15 -15 -15 -8 0 -15 -7 -15 -15 0 -8 -7 -15 -15 -15 -8 0
-15 -7 -15 -15 0 -8 -7 -15 -15 -15 -8 0 -15 -7 -15 -15 0 -8 -7 -15 -15 -15
-8 0 -15 -7 -15 -15 0 -8 -7 -15 -15 -15 -8 0 -15 -7 -15 -15 0 -8 -5 -15 -11
-15 -6 0 -37 -27 -70 -59 -32 -33 -59 -64 -59 -70 0 -6 -7 -11 -15 -11 -8 0
-15 -7 -15 -15 0 -8 -7 -15 -15 -15 -8 0 -15 -7 -15 -15 0 -8 -7 -15 -15 -15
-8 0 -15 -7 -15 -15 0 -8 -7 -15 -15 -15 -8 0 -15 -7 -15 -15 0 -8 7 -15 15
-15 8 0 15 -7 15 -15 0 -8 7 -15 15 -15 8 0 15 -7 15 -15 0 -8 7 -15 15 -15 8
0 15 -7 15 -15 0 -8 7 -15 15 -15 8 0 15 -7 15 -15 0 -8 7 -15 15 -15 8 0 15
-7 15 -15 0 -8 7 -15 15 -15 8 0 15 -7 15 -15 0 -8 7 -15 15 -15 8 0 15 -4 15
-10 0 -23 26 -6 91 59 37 38 77 72 89 76 11 3 20 11 20 16 0 5 7 9 15 9 8 0
15 5 15 11 0 6 34 44 75 86 41 41 75 79 75 84 0 12 37 49 50 49 6 0 10 7 10
15 0 8 7 15 15 15 8 0 15 7 15 15 0 8 6 15 14 15 8 0 35 20 59 45 25 25 50 45
56 45 6 0 11 7 11 15 0 8 7 15 15 15 8 0 15 7 15 15 0 8 7 15 15 15 8 0 15 7
15 15 0 8 7 15 15 15 8 0 15 7 15 15 0 8 7 15 15 15 8 0 15 7 15 15 0 8 7 15
15 15 8 0 15 7 15 15 0 8 7 15 15 15 8 0 15 5 15 11 0 14 115 129 129 129 6 0
11 7 11 15 0 8 7 15 15 15 8 0 15 7 15 15 0 8 7 15 15 15 8 0 15 7 15 15 0 8
7 15 15 15 8 0 15 7 15 15 0 8 7 15 15 15 8 0 15 7 15 15 0 8 7 15 15 15 8 0
15 7 15 15 0 8 7 15 15 15 8 0 15 7 15 15 0 8 7 15 15 15 8 0 15 7 15 15 0 8
7 15 15 15 8 0 15 7 15 15 0 8 7 15 15 15 8 0 15 7 15 15 0 8 5 15 11 15 14 0
129 115 129 129 0 6 7 11 15 11 8 0 15 7 15 15 0 8 7 15 15 15 8 0 15 7 15 15
0 8 7 15 15 15 8 0 15 7 15 15 0 8 7 15 15 15 8 0 15 7 15 15 0 8 7 15 15 15
8 0 15 7 15 15 0 8 7 15 15 15 8 0 15 7 15 15 0 8 7 15 15 15 8 0 15 7 15 15
0 8 5 15 11 15 14 0 279 265 279 279 0 6 7 11 15 11 8 0 15 7 15 15 0 8 7 15
15 15 8 0 15 4 15 10 0 5 11 12 25 16 14 3 25 12 25 20 0 8 4 14 10 14 5 0 25
16 45 35 19 20 35 40 35 45 0 6 6 10 14 10 8 0 16 7 20 15 7 19 60 20 78 1 8
-7 39 -16 71 -20 31 -4 57 -12 57 -17 0 -13 257 -12 262 2 2 5 22 13 46 16 23
3 42 9 42 13 0 4 12 11 26 14 14 4 35 17 47 30 12 13 32 26 44 30 11 4 24 13
27 21 3 8 12 15 21 15 8 0 15 5 15 11 0 6 14 24 30 41 17 16 30 36 30 44 0 8
7 14 15 14 8 0 15 7 15 15 0 8 4 15 10 15 5 0 13 18 16 40 4 22 10 40 15 40 4
0 11 20 15 45 3 25 10 45 15 45 5 0 9 68 9 150 0 85 -4 150 -9 150 -5 0 -12
14 -16 30 -4 17 -11 30 -16 30 -5 0 -9 11 -9 25 0 14 -6 28 -14 31 -8 3 -17
16 -20 30 -4 13 -11 24 -16 24 -6 0 -10 5 -10 11 0 15 -65 79 -80 79 -5 0 -10
7 -10 15 0 8 -7 15 -15 15 -8 0 -15 6 -15 14 0 8 -11 17 -25 20 -14 4 -25 11
-25 16 0 6 -9 10 -20 10 -11 0 -20 7 -20 15 0 11 -12 15 -45 15 -33 0 -45 4
-45 15 0 13 -26 15 -170 15 -142 0 -172 -2 -176 -15z m256 -235 c0 -5 14 -10
30 -10 18 0 33 -6 36 -15 4 -8 17 -15 30 -15 15 0 24 -6 24 -15 0 -8 7 -15 15
-15 8 0 15 -7 15 -15 0 -8 7 -15 15 -15 8 0 15 -7 15 -15 0 -8 7 -15 15 -15
10 0 15 -10 15 -30 0 -20 5 -30 15 -30 13 0 15 -21 15 -131 0 -103 -3 -134
-15 -145 -8 -9 -15 -24 -15 -35 0 -10 -7 -19 -15 -19 -9 0 -15 -9 -15 -25 0
-16 -6 -25 -15 -25 -8 0 -15 -7 -15 -15 0 -9 -9 -15 -24 -15 -13 0 -26 -7 -30
-15 -3 -8 -16 -15 -30 -15 -13 0 -26 -7 -30 -15 -4 -12 -27 -15 -121 -15 -96
0 -115 3 -115 15 0 10 -10 15 -30 15 -20 0 -30 5 -30 15 0 9 -9 15 -25 15 -16
0 -25 6 -25 15 0 8 -7 15 -15 15 -8 0 -15 6 -15 14 0 8 -6 21 -14 28 -7 8 -17
25 -21 38 -4 14 -13 28 -19 32 -16 11 -15 260 2 266 6 2 12 10 12 18 0 8 9 22
20 31 11 10 20 21 20 25 0 14 34 48 47 48 7 0 13 4 13 10 0 5 11 12 25 16 14
3 25 10 25 15 0 5 18 12 40 15 22 4 40 10 40 15 0 5 34 9 75 9 43 0 75 -4 75
-10z"/>
<path d="M11426 21575 c-3 -10 -19 -15 -45 -15 -25 0 -41 -5 -45 -15 -3 -8
-17 -15 -31 -15 -16 0 -25 -6 -25 -15 0 -9 -9 -15 -24 -15 -13 0 -26 -7 -30
-15 -3 -8 -12 -15 -21 -15 -8 0 -15 -7 -15 -15 0 -8 -4 -15 -10 -15 -5 0 -12
-11 -16 -25 -3 -14 -12 -25 -20 -25 -8 0 -14 -6 -14 -14 0 -8 -5 -16 -10 -18
-6 -2 -13 -21 -17 -43 -3 -22 -11 -43 -17 -47 -15 -10 -15 -256 0 -266 6 -4
14 -24 18 -44 4 -21 11 -38 16 -38 6 0 10 -7 10 -15 0 -8 7 -15 15 -15 8 0 15
-9 15 -19 0 -11 7 -26 15 -35 8 -8 15 -19 15 -25 0 -6 9 -11 20 -11 11 0 20
-4 20 -10 0 -5 11 -12 25 -16 14 -3 25 -12 25 -20 0 -8 10 -14 24 -14 13 0 26
-7 30 -15 3 -10 19 -15 45 -15 22 0 41 -5 43 -12 3 -9 34 -13 103 -13 69 0
100 4 103 13 2 6 16 12 32 12 16 0 35 7 44 15 8 8 22 15 30 15 9 0 16 7 16 15
0 9 9 15 25 15 14 0 28 7 31 15 4 8 12 15 20 15 8 0 14 7 14 15 0 8 7 15 15
15 8 0 15 7 15 15 0 8 4 15 9 15 5 0 12 11 15 25 4 14 11 25 16 25 6 0 10 9
10 19 0 11 6 26 13 33 8 7 17 31 20 53 4 22 11 41 17 43 13 5 14 162 1 162 -5
0 -13 25 -16 55 -5 37 -12 55 -21 55 -8 0 -14 10 -14 25 0 14 -5 25 -10 25 -6
0 -14 8 -17 18 -9 22 -83 96 -105 105 -10 3 -18 11 -18 17 0 5 -11 10 -25 10
-16 0 -25 6 -25 15 0 11 -12 15 -44 15 -26 0 -51 6 -60 15 -11 11 -37 15 -99
15 -66 0 -86 -3 -91 -15z"/>
<path d="M18268 21383 c-10 -2 -18 -9 -18 -14 0 -5 -11 -9 -25 -9 -14 0 -28
-7 -31 -15 -4 -8 -17 -15 -30 -15 -15 0 -24 -6 -24 -15 0 -8 -7 -15 -15 -15
-8 0 -15 -7 -15 -15 0 -8 -7 -15 -15 -15 -8 0 -15 -7 -15 -15 0 -8 -6 -15 -14
-15 -8 0 -17 -11 -20 -25 -4 -14 -11 -25 -16 -25 -6 0 -10 -9 -10 -20 0 -11
-7 -20 -15 -20 -11 0 -15 -12 -15 -44 0 -26 -6 -51 -15 -60 -11 -11 -15 -37
-15 -100 0 -70 3 -86 15 -86 11 0 15 -12 15 -45 0 -33 4 -45 15 -45 10 0 15
-10 15 -30 0 -20 5 -30 15 -30 8 0 15 -7 15 -15 0 -8 4 -15 10 -15 5 0 12 -11
16 -25 3 -14 12 -25 19 -25 8 0 27 -13 43 -29 16 -17 41 -33 56 -37 14 -3 26
-10 26 -15 0 -5 14 -9 30 -9 20 0 30 -5 30 -15 0 -13 21 -15 129 -15 79 0 131
4 133 10 2 6 21 13 43 17 22 3 44 12 48 20 4 7 19 13 32 13 16 0 25 6 25 15 0
8 5 15 10 15 6 0 19 9 30 20 11 11 20 25 20 30 0 6 7 10 15 10 8 0 15 7 15 15
0 8 4 15 10 15 5 0 12 11 16 24 3 14 12 27 20 30 9 3 14 20 14 46 0 29 4 40
15 40 12 0 15 20 15 119 0 93 -3 123 -15 135 -8 8 -15 26 -15 41 0 14 -7 28
-15 31 -8 4 -15 17 -15 30 0 15 -6 24 -15 24 -8 0 -15 7 -15 15 0 8 -7 15 -15
15 -8 0 -15 7 -15 15 0 8 -7 15 -15 15 -8 0 -15 7 -15 15 0 8 -7 15 -15 15 -8
0 -15 7 -15 15 0 8 -7 15 -15 15 -8 0 -15 4 -15 10 0 5 -12 13 -27 16 -16 4
-31 12 -35 18 -7 11 -295 19 -330 9z"/>
<path d="M18382 14075 c-7 -8 -26 -15 -42 -15 -17 0 -30 -4 -30 -9 0 -5 -13
-12 -30 -16 -16 -4 -30 -13 -30 -21 0 -8 -7 -14 -15 -14 -8 0 -15 -4 -15 -10
0 -5 -6 -10 -14 -10 -16 0 -76 -56 -76 -71 0 -6 -11 -20 -25 -33 -14 -13 -25
-30 -25 -39 0 -9 -6 -22 -13 -29 -8 -7 -17 -42 -20 -78 -4 -36 -12 -66 -17
-68 -12 -4 -13 -62 -1 -62 5 0 12 -27 16 -60 4 -33 11 -60 15 -60 5 0 11 -13
15 -30 4 -16 10 -30 15 -30 5 0 11 -13 15 -30 4 -16 13 -30 21 -30 8 0 14 -7
14 -15 0 -8 7 -15 15 -15 8 0 15 -4 15 -10 0 -19 35 -50 57 -50 14 0 23 -6 23
-15 0 -8 7 -15 16 -15 8 0 22 -7 30 -15 9 -8 28 -15 44 -15 16 0 30 -6 32 -12
6 -18 220 -18 225 0 3 6 20 12 38 12 19 0 40 6 47 13 7 8 26 17 41 21 15 3 27
11 27 16 0 6 7 10 15 10 8 0 15 7 15 15 0 8 7 15 15 15 8 0 15 7 15 15 0 8 7
15 15 15 8 0 15 7 15 15 0 8 7 15 15 15 8 0 15 7 15 15 0 8 4 15 9 15 5 0 12
12 15 26 4 15 14 33 21 41 8 8 15 27 15 43 0 16 5 30 11 32 13 4 14 198 1 207
-5 3 -12 24 -15 45 -4 22 -10 42 -15 45 -5 3 -12 16 -16 29 -4 12 -12 22 -17
22 -5 0 -9 7 -9 15 0 9 -7 18 -15 21 -8 4 -15 12 -15 20 0 8 -5 14 -10 14 -6
0 -21 11 -34 25 -13 14 -28 25 -35 25 -6 0 -11 7 -11 15 0 10 -10 15 -30 15
-19 0 -30 5 -30 14 0 8 -16 16 -42 19 -24 3 -44 11 -46 16 -6 18 -204 14 -220
-4z"/>
<path d="M11382 14045 c-7 -8 -26 -15 -42 -15 -17 0 -30 -4 -30 -9 0 -5 -13
-12 -30 -16 -16 -4 -30 -10 -30 -15 0 -5 -13 -11 -30 -15 -16 -4 -30 -13 -30
-21 0 -8 -7 -14 -15 -14 -8 0 -15 -7 -15 -15 0 -8 -7 -15 -15 -15 -8 0 -15 -7
-15 -15 0 -8 -4 -15 -10 -15 -5 0 -12 -11 -16 -25 -3 -14 -10 -25 -14 -25 -4
0 -11 -12 -15 -27 -3 -15 -11 -31 -17 -34 -6 -4 -13 -32 -16 -63 -2 -31 -8
-56 -13 -56 -5 0 -9 -18 -9 -40 0 -22 4 -40 9 -40 5 0 11 -25 13 -56 3 -31 10
-59 16 -63 6 -3 14 -19 17 -34 4 -15 11 -27 15 -27 5 0 11 -13 15 -30 4 -16
13 -30 21 -30 8 0 14 -4 14 -10 0 -19 35 -50 57 -50 14 0 23 -6 23 -15 0 -8 7
-15 15 -15 8 0 15 -7 15 -15 0 -9 10 -15 26 -15 14 0 32 -7 40 -15 9 -9 34
-15 60 -15 24 0 44 -4 44 -10 0 -6 27 -10 60 -10 33 0 60 4 60 9 0 5 26 11 57
13 31 3 59 10 61 16 2 7 17 12 33 12 18 0 29 5 29 14 0 8 11 17 25 20 14 4 25
11 25 16 0 6 7 10 15 10 8 0 15 7 15 15 0 8 7 15 15 15 8 0 15 7 15 15 0 8 6
15 14 15 8 0 17 14 21 30 4 17 10 30 15 30 5 0 11 14 15 30 4 17 10 30 15 30
4 0 11 20 14 45 4 25 11 45 17 45 5 0 9 32 9 70 0 39 -4 70 -9 70 -4 0 -11 19
-14 42 -3 24 -11 44 -16 46 -6 2 -11 15 -11 28 0 14 -6 27 -14 30 -8 3 -17 17
-21 31 -7 27 -79 105 -107 116 -10 3 -18 11 -18 17 0 5 -11 10 -25 10 -14 0
-25 6 -25 14 0 8 -16 16 -42 19 -24 3 -44 11 -46 16 -6 18 -204 14 -220 -4z"/>
<path d="M9490 8860 c0 -6 -75 -10 -205 -10 l-205 0 0 -1175 0 -1175 793 2
792 3 0 205 0 205 -564 3 c-437 2 -567 5 -573 15 -4 6 -8 445 -8 975 0 848 -2
962 -15 962 -8 0 -15 -4 -15 -10z"/>
<path d="M11930 8860 c0 -6 -82 -10 -225 -10 -193 0 -225 -2 -225 -15 0 -8 -7
-15 -15 -15 -8 0 -15 -7 -15 -15 0 -8 -7 -15 -15 -15 -8 0 -15 -7 -15 -15 0
-8 -7 -15 -15 -15 -8 0 -15 -7 -15 -15 0 -9 -9 -15 -25 -15 -16 0 -25 -6 -25
-15 0 -8 -7 -15 -15 -15 -8 0 -15 -7 -15 -15 0 -8 -7 -15 -15 -15 -8 0 -15 -7
-15 -15 0 -8 -7 -15 -15 -15 -8 0 -15 -7 -15 -15 0 -8 -7 -15 -15 -15 -8 0
-15 -5 -15 -11 0 -6 -45 -56 -100 -110 l-100 -100 0 -269 c0 -173 4 -270 10
-270 6 0 10 7 10 15 0 8 7 15 15 15 8 0 15 7 15 15 0 8 7 15 15 15 8 0 15 7
15 15 0 8 9 15 20 15 11 0 20 4 20 10 0 15 33 50 47 50 7 0 13 4 13 10 0 5 11
12 25 16 14 3 25 12 25 20 0 8 7 14 15 14 8 0 15 7 15 15 0 8 7 15 15 15 8 0
15 7 15 15 0 8 7 15 15 15 8 0 15 7 15 15 0 8 5 15 11 15 6 0 29 18 50 40 22
22 43 40 49 40 5 0 10 7 10 15 0 8 7 15 15 15 8 0 15 7 15 15 0 9 9 15 25 15
l25 0 0 -895 0 -895 220 0 220 0 0 1175 c0 1038 -2 1175 -15 1175 -8 0 -15 5
-15 10 0 6 -4 10 -10 10 -5 0 -10 -4 -10 -10z"/>
<path d="M19581 8863 c-1 -10 -108 -13 -499 -13 -486 0 -498 0 -515 -20 -9
-11 -17 -25 -17 -30 0 -6 -7 -10 -15 -10 -8 0 -15 -7 -15 -15 0 -8 -7 -15 -15
-15 -8 0 -15 -7 -15 -15 0 -8 -7 -15 -15 -15 -8 0 -15 -7 -15 -15 0 -8 -7 -15
-15 -15 -8 0 -15 -7 -15 -15 0 -8 -7 -15 -15 -15 -8 0 -15 -7 -15 -15 0 -8 -7
-15 -15 -15 -8 0 -15 -7 -15 -15 0 -8 -7 -15 -15 -15 -8 0 -15 -7 -15 -15 0
-8 -7 -15 -15 -15 -8 0 -15 -5 -15 -11 0 -6 -7 -17 -15 -25 -13 -14 -15 -124
-15 -870 0 -752 2 -854 15 -854 8 0 15 -7 15 -15 0 -8 7 -15 15 -15 8 0 15 -7
15 -15 0 -8 7 -15 15 -15 8 0 15 -7 15 -15 0 -8 7 -15 15 -15 8 0 15 -5 15
-10 0 -21 106 -130 126 -130 8 0 14 -7 14 -15 0 -8 7 -15 15 -15 8 0 15 -7 15
-15 0 -8 6 -15 14 -15 8 0 16 -7 20 -15 5 -13 58 -15 396 -15 253 0 390 -4
390 -10 0 -6 28 -10 65 -10 37 0 65 4 65 10 0 6 11 10 25 10 14 0 25 -4 25
-10 0 -5 7 -10 15 -10 8 0 15 5 15 10 0 6 11 10 25 10 14 0 28 7 31 15 4 8 12
15 20 15 8 0 14 7 14 15 0 8 7 15 15 15 8 0 15 7 15 15 0 8 7 15 15 15 8 0 15
7 15 15 0 8 7 15 15 15 8 0 15 7 15 15 0 8 7 15 15 15 8 0 15 7 15 15 0 8 7
15 15 15 8 0 15 7 15 15 0 8 7 15 15 15 8 0 15 7 15 15 0 8 5 15 11 15 14 0
39 25 39 39 0 6 7 11 15 11 8 0 15 7 15 15 0 8 7 15 15 15 13 0 15 102 15 855
0 753 -2 855 -15 855 -8 0 -15 5 -15 11 0 14 -115 129 -129 129 -6 0 -11 7
-11 15 0 8 -7 15 -15 15 -8 0 -15 7 -15 15 0 8 -7 15 -15 15 -8 0 -15 7 -15
15 0 8 -7 15 -15 15 -8 0 -15 7 -15 15 0 8 -7 15 -15 15 -8 0 -15 7 -15 15 0
8 -7 15 -15 15 -8 0 -15 7 -15 15 0 10 -10 15 -34 15 -19 0 -37 6 -39 13 -4
10 -6 10 -6 0z m-191 -438 c0 -8 9 -15 20 -15 11 0 20 -7 20 -15 0 -8 7 -15
15 -15 8 0 15 -7 15 -15 0 -8 7 -15 15 -15 8 0 15 -7 15 -15 0 -8 5 -15 10
-15 6 0 10 -7 10 -15 0 -8 7 -15 15 -15 13 0 15 -75 15 -615 0 -540 -2 -615
-15 -615 -8 0 -15 -7 -15 -15 0 -8 -7 -15 -15 -15 -8 0 -15 -7 -15 -15 0 -8
-7 -15 -15 -15 -8 0 -15 -7 -15 -15 0 -8 -7 -15 -15 -15 -8 0 -15 -7 -15 -15
0 -8 -6 -15 -14 -15 -8 0 -16 -6 -19 -12 -3 -10 -63 -13 -257 -13 -194 0 -254
3 -258 13 -2 6 -9 12 -16 12 -13 0 -46 35 -46 50 0 6 -7 10 -15 10 -8 0 -15 7
-15 15 0 8 -7 15 -15 15 -8 0 -15 7 -15 15 0 8 -7 15 -15 15 -13 0 -15 75 -15
615 0 540 2 615 15 615 10 0 15 10 15 30 0 20 5 30 15 30 8 0 15 7 15 15 0 8
7 15 15 15 8 0 15 4 15 10 0 5 11 12 24 16 14 3 27 12 30 20 8 22 526 21 526
-1z"/>
<path d="M12800 8835 c0 -8 -6 -15 -14 -15 -8 0 -28 -13 -44 -30 -17 -16 -35
-30 -41 -30 -6 0 -11 -7 -11 -15 0 -8 -7 -15 -15 -15 -8 0 -15 -7 -15 -15 0
-8 -7 -15 -15 -15 -8 0 -15 -7 -15 -15 0 -8 -6 -15 -14 -15 -8 0 -17 -11 -20
-25 -4 -14 -11 -25 -16 -25 -6 0 -10 -7 -10 -15 0 -8 -7 -15 -15 -15 -8 0 -15
-7 -15 -15 0 -8 -7 -15 -15 -15 -8 0 -15 -7 -15 -15 0 -8 -7 -15 -15 -15 -13
0 -15 -102 -15 -855 0 -753 2 -855 15 -855 8 0 15 -7 15 -15 0 -8 4 -15 10
-15 5 0 12 -11 16 -25 3 -14 12 -25 20 -25 8 0 14 -7 14 -15 0 -8 7 -15 15
-15 8 0 15 -7 15 -15 0 -8 7 -15 15 -15 8 0 15 -7 15 -15 0 -8 7 -15 15 -15 8
0 15 -7 15 -15 0 -8 5 -15 11 -15 6 0 24 -13 41 -30 16 -16 36 -30 44 -30 8 0
14 -7 14 -15 0 -8 7 -15 15 -15 8 0 15 -7 15 -15 0 -13 65 -15 529 -15 l529 0
30 30 c17 16 35 30 41 30 6 0 11 7 11 15 0 8 7 15 15 15 8 0 15 7 15 15 0 8 7
15 15 15 8 0 15 7 15 15 0 8 7 15 15 15 8 0 15 7 15 15 0 8 7 15 15 15 8 0 15
7 15 15 0 8 7 15 15 15 8 0 15 7 15 15 0 8 7 15 15 15 8 0 15 7 15 15 0 8 7
15 15 15 9 0 15 9 15 25 0 16 6 25 15 25 13 0 15 102 15 855 0 753 -2 855 -15
855 -8 0 -15 7 -15 15 0 8 -7 15 -15 15 -8 0 -15 5 -15 11 0 14 -115 129 -129
129 -6 0 -11 7 -11 15 0 8 -7 15 -15 15 -8 0 -15 7 -15 15 0 8 -7 15 -15 15
-8 0 -15 7 -15 15 0 8 -7 15 -15 15 -8 0 -15 7 -15 15 0 8 -7 15 -15 15 -8 0
-15 7 -15 15 0 13 -66 15 -530 15 -464 0 -530 -2 -530 -15z m790 -410 c0 -8 7
-15 15 -15 9 0 18 -7 21 -15 4 -8 12 -15 20 -15 8 0 14 -7 14 -15 0 -8 5 -15
10 -15 6 0 10 -7 10 -15 0 -8 7 -15 15 -15 8 0 15 -7 15 -15 0 -8 7 -15 15
-15 13 0 15 -75 15 -615 0 -540 -2 -615 -15 -615 -8 0 -15 -7 -15 -15 0 -8 -7
-15 -15 -15 -8 0 -15 -5 -15 -11 0 -6 -20 -31 -45 -56 l-46 -45 -247 -6 c-221
-4 -249 -3 -264 12 -9 9 -21 16 -27 16 -6 0 -11 7 -11 15 0 8 -7 15 -15 15 -8
0 -15 7 -15 15 0 8 -7 15 -15 15 -8 0 -15 7 -15 15 0 8 -7 15 -15 15 -8 0 -15
7 -15 15 0 8 -7 15 -15 15 -13 0 -15 75 -15 615 0 540 2 615 15 615 8 0 15 9
15 20 0 11 4 20 10 20 5 0 12 11 16 25 3 14 12 25 20 25 8 0 14 4 14 10 0 5
11 12 24 16 14 3 27 12 30 20 8 22 526 21 526 -1z"/>
<path d="M14940 8835 c0 -8 -7 -15 -15 -15 -8 0 -15 -7 -15 -15 0 -8 -7 -15
-15 -15 -8 0 -15 -7 -15 -15 0 -8 -7 -15 -15 -15 -8 0 -15 -7 -15 -15 0 -8 -7
-15 -15 -15 -8 0 -15 -7 -15 -15 0 -8 -7 -15 -15 -15 -8 0 -15 -7 -15 -15 0
-8 -7 -15 -15 -15 -8 0 -15 -5 -15 -11 0 -6 -31 -42 -70 -80 l-70 -70 0 -838
c0 -736 2 -840 15 -845 8 -3 15 -12 15 -21 0 -8 5 -15 11 -15 14 0 39 -25 39
-39 0 -6 7 -11 15 -11 8 0 15 -6 15 -13 0 -14 35 -47 50 -47 6 0 10 -7 10 -15
0 -8 7 -15 15 -15 8 0 15 -7 15 -15 0 -8 7 -15 15 -15 8 0 15 -7 15 -15 0 -8
6 -15 14 -15 8 0 17 -11 20 -25 4 -15 16 -27 31 -31 14 -3 25 -12 25 -20 0
-12 84 -14 530 -14 464 0 530 2 530 15 0 8 7 15 15 15 8 0 15 7 15 15 0 8 6
15 14 15 8 0 35 20 59 45 25 25 50 45 56 45 6 0 11 7 11 15 0 8 7 15 15 15 8
0 15 7 15 15 0 8 7 15 15 15 8 0 15 7 15 15 0 8 7 15 15 15 8 0 15 5 15 11 0
6 14 24 30 41 l30 30 0 459 c0 299 3 459 10 459 6 0 10 113 10 320 0 207 -4
320 -10 320 -5 0 -10 11 -10 25 0 14 5 25 10 25 14 0 12 37 -2 44 -10 5 -10 7
0 12 14 7 16 34 2 34 -5 0 -10 7 -10 15 0 8 -7 15 -15 15 -8 0 -15 7 -15 15 0
8 -7 15 -15 15 -8 0 -15 7 -15 15 0 8 -7 15 -15 15 -8 0 -15 7 -15 15 0 8 -7
15 -15 15 -8 0 -15 7 -15 15 0 8 -7 15 -15 15 -8 0 -15 7 -15 15 0 8 -7 15
-15 15 -8 0 -15 7 -15 15 0 8 -7 15 -15 15 -8 0 -15 5 -15 11 0 5 -22 32 -49
60 l-48 49 -537 0 c-470 0 -536 -2 -536 -15z m814 -410 c8 -8 19 -15 25 -15 6
0 11 -7 11 -15 0 -8 7 -15 15 -15 8 0 15 -7 15 -15 0 -8 7 -15 15 -15 8 0 15
-5 15 -11 0 -6 7 -17 15 -25 13 -13 15 -98 15 -635 0 -544 -2 -619 -15 -619
-8 0 -15 -7 -15 -15 0 -8 -7 -15 -15 -15 -8 0 -15 -7 -15 -15 0 -8 -7 -15 -15
-15 -8 0 -15 -7 -15 -15 0 -8 -7 -15 -15 -15 -8 0 -15 -7 -15 -15 0 -8 -5 -15
-11 -15 -6 0 -18 -7 -27 -16 -14 -15 -44 -16 -261 -12 -172 4 -246 8 -249 17
-2 6 -10 11 -18 11 -8 0 -14 7 -14 15 0 8 -7 15 -15 15 -8 0 -15 7 -15 15 0 8
-7 15 -15 15 -8 0 -15 7 -15 15 0 8 -7 15 -15 15 -8 0 -15 7 -15 15 0 8 -7 15
-15 15 -13 0 -15 75 -15 615 0 540 2 615 15 615 8 0 15 7 15 15 0 8 7 15 15
15 8 0 15 7 15 15 0 8 7 15 15 15 8 0 15 7 15 15 0 8 7 15 15 15 8 0 15 7 15
15 0 8 7 15 15 15 8 0 15 7 15 15 0 13 36 15 264 15 222 0 267 -2 280 -15z"/>
<path d="M17230 8835 c0 -8 -7 -15 -15 -15 -8 0 -15 -7 -15 -15 0 -8 -7 -15
-15 -15 -8 0 -15 -7 -15 -15 0 -8 -7 -15 -15 -15 -8 0 -15 -7 -15 -15 0 -8 -5
-15 -10 -15 -6 0 -21 -11 -34 -25 -13 -14 -28 -25 -34 -25 -6 0 -26 -16 -45
-35 -19 -19 -39 -35 -46 -35 -6 0 -11 -5 -11 -11 0 -6 -20 -30 -44 -55 -25
-24 -49 -44 -55 -44 -6 0 -11 -7 -11 -15 0 -8 -7 -15 -15 -15 -8 0 -15 -7 -15
-15 0 -8 -7 -15 -15 -15 -8 0 -15 -7 -15 -15 0 -8 -7 -15 -15 -15 -13 0 -15
-36 -15 -265 l0 -265 25 0 c16 0 25 6 25 15 0 8 7 15 15 15 8 0 15 7 15 15 0
8 4 15 10 15 5 0 34 25 64 55 29 30 59 55 65 55 6 0 11 7 11 15 0 8 6 15 13
15 7 0 20 9 30 20 9 11 24 20 32 20 8 0 15 7 15 15 0 8 7 15 15 15 8 0 15 7
15 15 0 8 5 15 11 15 6 0 36 25 65 55 30 30 59 55 64 55 7 0 10 -318 10 -895
l0 -895 214 0 c118 0 221 3 230 6 12 5 16 21 16 75 0 39 -4 69 -10 69 -7 0
-10 373 -10 1100 l0 1100 -235 0 c-202 0 -235 -2 -235 -15z"/>
<path d="M20860 8835 c0 -8 -7 -15 -15 -15 -8 0 -15 -7 -15 -15 0 -8 -7 -15
-15 -15 -8 0 -15 -7 -15 -15 0 -8 -7 -15 -15 -15 -8 0 -15 -7 -15 -15 0 -8 -7
-15 -15 -15 -8 0 -15 -7 -15 -15 0 -8 -7 -15 -15 -15 -8 0 -15 -7 -15 -15 0
-8 -7 -15 -15 -15 -8 0 -15 -7 -15 -15 0 -8 -7 -15 -15 -15 -8 0 -15 -7 -15
-15 0 -8 -7 -15 -15 -15 -8 0 -15 -5 -15 -11 0 -14 -25 -39 -39 -39 -6 0 -11
-7 -11 -15 0 -8 -7 -15 -15 -15 -8 0 -15 -7 -15 -15 0 -8 -7 -15 -15 -15 -8 0
-15 -7 -15 -15 0 -8 -7 -15 -15 -15 -8 0 -15 -7 -15 -15 0 -8 -7 -15 -15 -15
-8 0 -15 -7 -15 -15 0 -8 -7 -15 -15 -15 -13 0 -15 -36 -15 -265 0 -229 2
-265 15 -265 8 0 15 7 15 15 0 9 9 15 25 15 16 0 25 6 25 15 0 8 4 15 10 15 5
0 47 38 94 85 46 47 89 85 95 85 6 0 11 7 11 15 0 8 7 15 15 15 8 0 15 7 15
15 0 8 7 15 15 15 8 0 15 7 15 15 0 8 7 15 15 15 8 0 15 7 15 15 0 8 7 15 15
15 8 0 15 6 15 14 0 8 11 17 25 20 14 4 25 11 25 16 0 6 9 10 20 10 20 0 20
-7 20 -895 l0 -895 220 0 220 0 0 1175 0 1175 -250 0 c-216 0 -250 -2 -250
-15z"/>
</g>
</svg>
